<?xml version="1.0" encoding="UTF-8"?><svg id="Layer_2" xmlns="http://www.w3.org/2000/svg" xmlns:xlink="http://www.w3.org/1999/xlink" viewBox="0 0 105.21 186.57"><defs><style>.cls-1{fill:none;}.cls-2{letter-spacing:0em;}.cls-3{letter-spacing:-.01em;}.cls-4,.cls-5{font-size:3.1px;}.cls-4,.cls-5,.cls-6,.cls-7,.cls-8{font-family:Montserrat-Bold, Montserrat;}.cls-4,.cls-7,.cls-8{fill:#2b2b2b;}.cls-5,.cls-9,.cls-10,.cls-11{fill:#fff;}.cls-12{letter-spacing:-.02em;}.cls-13{letter-spacing:-.01em;}.cls-14{letter-spacing:0em;}.cls-15,.cls-16{fill:#f99e1d;}.cls-6{fill:#149314;font-size:6px;}.cls-17{letter-spacing:-.02em;}.cls-18{letter-spacing:0em;}.cls-19{letter-spacing:0em;}.cls-7{font-size:3.5px;}.cls-20{letter-spacing:-.02em;}.cls-8{font-size:3.98px;}.cls-21{letter-spacing:0em;}.cls-22{letter-spacing:0em;}.cls-23{letter-spacing:0em;}.cls-24{letter-spacing:0em;}.cls-25{letter-spacing:0em;}.cls-26{opacity:.8;}.cls-16{filter:url(#drop-shadow-1);}.cls-10{filter:url(#drop-shadow-2);}.cls-11{filter:url(#drop-shadow-3);}.cls-27{letter-spacing:0em;}</style><filter id="drop-shadow-1" filterUnits="userSpaceOnUse"><feOffset dx="3" dy="3"/><feGaussianBlur result="blur" stdDeviation="3"/><feFlood flood-color="#000" flood-opacity=".2"/><feComposite in2="blur" operator="in"/><feComposite in="SourceGraphic"/></filter><filter id="drop-shadow-2" filterUnits="userSpaceOnUse"><feOffset dx="3" dy="3"/><feGaussianBlur result="blur-2" stdDeviation="3"/><feFlood flood-color="#000" flood-opacity=".2"/><feComposite in2="blur-2" operator="in"/><feComposite in="SourceGraphic"/></filter><filter id="drop-shadow-3" filterUnits="userSpaceOnUse"><feOffset dx="3" dy="3"/><feGaussianBlur result="blur-3" stdDeviation="3"/><feFlood flood-color="#000" flood-opacity=".2"/><feComposite in2="blur-3" operator="in"/><feComposite in="SourceGraphic"/></filter></defs><g id="OBJECTS"><rect class="cls-1" width="104.95" height="186.57"/><path class="cls-9" d="M54.08,155.66c-.16-.16-.42-.16-.59,0l-.82,.82-.82-.82c-.16-.16-.42-.16-.59,0-.16,.16-.16,.42,0,.59l1.11,1.11c.08,.08,.19,.12,.29,.12,.11,0,.21-.04,.29-.12l1.11-1.11c.16-.16,.16-.42,0-.59Z"/><path class="cls-16" d="M43.92,172.98H16.62c-2.75,0-4.97-2.23-4.97-4.97h0c0-2.75,2.23-4.97,4.97-4.97h27.3c2.75,0,4.97,2.23,4.97,4.97h0c0,2.75-2.23,4.97-4.97,4.97Z"/><text class="cls-5" transform="translate(17.19 169.15)"><tspan x="0" y="0">busca </tspan><tspan class="cls-3" x="10.55" y="0">a</tspan><tspan class="cls-17" x="12.44" y="0">v</tspan><tspan x="14.24" y="0">a</tspan><tspan class="cls-27" x="16.15" y="0">n</tspan><tspan x="18.32" y="0">ç</tspan><tspan class="cls-27" x="20.15" y="0">a</tspan><tspan x="22.08" y="0">da</tspan></text><path class="cls-10" d="M87.15,172.98h-27.3c-2.75,0-4.97-2.23-4.97-4.97h0c0-2.75,2.23-4.97,4.97-4.97h27.3c2.75,0,4.97,2.23,4.97,4.97h0c0,2.75-2.23,4.97-4.97,4.97Z"/><text class="cls-4" transform="translate(57.63 169.15)"><tspan x="0" y="0">E</tspan><tspan class="cls-27" x="2.08" y="0">n</tspan><tspan class="cls-18" x="4.25" y="0">c</tspan><tspan x="6.06" y="0">ont</tspan><tspan class="cls-19" x="11.59" y="0">r</tspan><tspan x="12.9" y="0">e uma </tspan><tspan class="cls-17" x="23.92" y="0">v</tspan><tspan class="cls-27" x="25.72" y="0">a</tspan><tspan x="27.66" y="0">ga</tspan></text><rect class="cls-11" x="12.23" y="22.56" width="80.25" height="13.85" rx="4.44" ry="4.44"/><text class="cls-8" transform="translate(18.2 30.84)"><tspan x="0" y="0">E</tspan><tspan class="cls-24" x="2.67" y="0">n</tspan><tspan x="5.45" y="0">genha</tspan><tspan class="cls-22" x="18.72" y="0">r</tspan><tspan x="20.42" y="0">ia</tspan></text><g><g class="cls-26"><rect class="cls-9" x="12.53" y="41.22" width="79.98" height="14.02" rx="2.76" ry="2.76"/></g><text class="cls-6" transform="translate(76.33 49.96)"><tspan class="cls-14" x="0" y="0">5</tspan><tspan x="3.54" y="0">5</tspan></text><text class="cls-7" transform="translate(18.64 49.23)"><tspan x="0" y="0">E</tspan><tspan class="cls-25" x="2.35" y="0">n</tspan><tspan x="4.79" y="0">genha</tspan><tspan class="cls-21" x="16.44" y="0">r</tspan><tspan x="17.94" y="0">ia Civil</tspan></text><path class="cls-15" d="M87.44,45.89c-.27,.27-.27,.71,0,.98l1.36,1.36-1.36,1.36c-.27,.27-.27,.71,0,.98,.27,.27,.71,.27,.98,0l1.85-1.85c.13-.14,.2-.31,.2-.49,0-.18-.07-.35-.2-.49l-1.85-1.85c-.27-.27-.71-.27-.98,0Z"/></g><g><g class="cls-26"><rect class="cls-9" x="12.53" y="57.03" width="79.98" height="14.02" rx="2.76" ry="2.76"/></g><text class="cls-6" transform="translate(75.79 65.77)"><tspan class="cls-23" x="0" y="0">4</tspan><tspan x="4.09" y="0">3</tspan></text><text class="cls-7" transform="translate(18.64 65.04)"><tspan x="0" y="0">E</tspan><tspan class="cls-25" x="2.35" y="0">n</tspan><tspan x="4.79" y="0">genha</tspan><tspan class="cls-21" x="16.44" y="0">r</tspan><tspan x="17.94" y="0">ia da </tspan><tspan class="cls-20" x="27.71" y="0">C</tspan><tspan x="30.21" y="0">omput</tspan><tspan class="cls-2" x="42.52" y="0">a</tspan><tspan x="44.7" y="0">ç</tspan><tspan class="cls-25" x="46.77" y="0">ã</tspan><tspan x="48.95" y="0">o</tspan></text><path class="cls-15" d="M87.44,61.7c-.27,.27-.27,.71,0,.98l1.36,1.36-1.36,1.36c-.27,.27-.27,.71,0,.98,.27,.27,.71,.27,.98,0l1.85-1.85c.13-.14,.2-.31,.2-.49,0-.18-.07-.35-.2-.49l-1.85-1.85c-.27-.27-.71-.27-.98,0Z"/></g><g><g class="cls-26"><rect class="cls-9" x="12.53" y="72.85" width="79.98" height="14.02" rx="2.76" ry="2.76"/></g><text class="cls-6" transform="translate(77.54 81.59)"><tspan x="0" y="0">12</tspan></text><text class="cls-7" transform="translate(18.64 80.85)"><tspan x="0" y="0">E</tspan><tspan class="cls-25" x="2.35" y="0">n</tspan><tspan x="4.79" y="0">genha</tspan><tspan class="cls-21" x="16.44" y="0">r</tspan><tspan x="17.94" y="0">ia Elét</tspan><tspan class="cls-21" x="29.27" y="0">r</tspan><tspan x="30.77" y="0">ica</tspan></text><path class="cls-15" d="M87.44,77.52c-.27,.27-.27,.71,0,.98l1.36,1.36-1.36,1.36c-.27,.27-.27,.71,0,.98,.27,.27,.71,.27,.98,0l1.85-1.85c.13-.14,.2-.31,.2-.49,0-.18-.07-.35-.2-.49l-1.85-1.85c-.27-.27-.71-.27-.98,0Z"/></g><g><g class="cls-26"><rect class="cls-9" x="12.53" y="88.66" width="79.98" height="14.02" rx="2.76" ry="2.76"/></g><text class="cls-6" transform="translate(76.01 97.4)"><tspan class="cls-12" x="0" y="0">7</tspan><tspan x="3.6" y="0">6</tspan></text><text class="cls-7" transform="translate(18.64 96.67)"><tspan x="0" y="0">E</tspan><tspan class="cls-25" x="2.35" y="0">n</tspan><tspan x="4.79" y="0">genha</tspan><tspan class="cls-21" x="16.44" y="0">r</tspan><tspan x="17.94" y="0">ia Ambiental</tspan></text><path class="cls-15" d="M87.44,93.33c-.27,.27-.27,.71,0,.98l1.36,1.36-1.36,1.36c-.27,.27-.27,.71,0,.98,.27,.27,.71,.27,.98,0l1.85-1.85c.13-.14,.2-.31,.2-.49,0-.18-.07-.35-.2-.49l-1.85-1.85c-.27-.27-.71-.27-.98,0Z"/></g><g><g class="cls-26"><rect class="cls-9" x="12.53" y="104.47" width="79.98" height="14.02" rx="2.76" ry="2.76"/></g><text class="cls-6" transform="translate(73.44 113.21)"><tspan x="0" y="0">105</tspan></text><text class="cls-7" transform="translate(18.64 112.48)"><tspan x="0" y="0">E</tspan><tspan class="cls-25" x="2.35" y="0">n</tspan><tspan x="4.79" y="0">genha</tspan><tspan class="cls-21" x="16.44" y="0">r</tspan><tspan x="17.94" y="0">ia de Redes</tspan></text><path class="cls-15" d="M87.44,109.14c-.27,.27-.27,.71,0,.98l1.36,1.36-1.36,1.36c-.27,.27-.27,.71,0,.98,.27,.27,.71,.27,.98,0l1.85-1.85c.13-.14,.2-.31,.2-.49,0-.18-.07-.35-.2-.49l-1.85-1.85c-.27-.27-.71-.27-.98,0Z"/></g><g><g class="cls-26"><rect class="cls-9" x="12.53" y="120.28" width="79.98" height="14.02" rx="2.76" ry="2.76"/></g><text class="cls-6" transform="translate(79.48 129.02)"><tspan x="0" y="0">8</tspan></text><text class="cls-7" transform="translate(18.64 126.29)"><tspan x="0" y="0">E</tspan><tspan class="cls-25" x="2.35" y="0">n</tspan><tspan x="4.79" y="0">genha</tspan><tspan class="cls-21" x="16.44" y="0">r</tspan><tspan x="17.94" y="0">ia de </tspan><tspan class="cls-13" x="27.76" y="0">Pr</tspan><tspan x="31.77" y="0">oduç</tspan><tspan class="cls-2" x="40.95" y="0">ã</tspan><tspan x="43.13" y="0">o</tspan></text><path class="cls-15" d="M87.44,124.95c-.27,.27-.27,.71,0,.98l1.36,1.36-1.36,1.36c-.27,.27-.27,.71,0,.98,.27,.27,.71,.27,.98,0l1.85-1.85c.13-.14,.2-.31,.2-.49,0-.18-.07-.35-.2-.49l-1.85-1.85c-.27-.27-.71-.27-.98,0Z"/></g><g><g class="cls-26"><rect class="cls-9" x="12.53" y="136.09" width="79.98" height="14.02" rx="2.76" ry="2.76"/></g><text class="cls-6" transform="translate(75.18 144.83)"><tspan x="0" y="0">311</tspan></text><text class="cls-7" transform="translate(18.64 144.1)"><tspan x="0" y="0">E</tspan><tspan class="cls-25" x="2.35" y="0">n</tspan><tspan x="4.79" y="0">genha</tspan><tspan class="cls-21" x="16.44" y="0">r</tspan><tspan x="17.94" y="0">ia Mecânica</tspan></text><path class="cls-15" d="M87.44,140.76c-.27,.27-.27,.71,0,.98l1.36,1.36-1.36,1.36c-.27,.27-.27,.71,0,.98,.27,.27,.71,.27,.98,0l1.85-1.85c.13-.14,.2-.31,.2-.49,0-.18-.07-.35-.2-.49l-1.85-1.85c-.27-.27-.71-.27-.98,0Z"/></g></g></svg>