<?xml version="1.0" encoding="UTF-8"?><svg id="Layer_2" xmlns="http://www.w3.org/2000/svg" xmlns:xlink="http://www.w3.org/1999/xlink" viewBox="0 0 105.14 186.57"><defs><style>.cls-1{fill:none;}.cls-2{letter-spacing:0em;}.cls-3{letter-spacing:-.02em;}.cls-4{letter-spacing:-.02em;}.cls-5{font-size:6.08px;}.cls-5,.cls-6,.cls-7{fill:#fff;}.cls-5,.cls-8{font-family:Montserrat-Bold, Montserrat;}.cls-9{fill:url(#linear-gradient);}.cls-10{letter-spacing:-.02em;}.cls-11{fill:#f99e1d;}.cls-12{fill:#3733bf;}.cls-13{letter-spacing:0em;}.cls-8{fill:#2b2b2b;font-size:3.04px;}.cls-14{letter-spacing:0em;}.cls-15{filter:url(#drop-shadow-2);}.cls-16{filter:url(#drop-shadow-3);}.cls-17{filter:url(#drop-shadow-1);}.cls-18{letter-spacing:0em;}.cls-19{fill:url(#linear-gradient-3);}.cls-20{fill:url(#linear-gradient-4);}.cls-21{fill:url(#linear-gradient-2);}.cls-22{letter-spacing:.02em;}.cls-7{filter:url(#drop-shadow-4);}.cls-23{letter-spacing:0em;}.cls-24{letter-spacing:0em;}.cls-25{letter-spacing:-.02em;}.cls-26{letter-spacing:-.01em;}</style><filter id="drop-shadow-1" filterUnits="userSpaceOnUse"><feOffset dx="3" dy="3"/><feGaussianBlur result="blur" stdDeviation="3"/><feFlood flood-color="#000" flood-opacity=".2"/><feComposite in2="blur" operator="in"/><feComposite in="SourceGraphic"/></filter><linearGradient id="linear-gradient" x1="14.07" y1="58.73" x2="34.66" y2="58.73" gradientTransform="matrix(1, 0, 0, 1, 0, 0)" gradientUnits="userSpaceOnUse"><stop offset="0" stop-color="#339ce9"/><stop offset="1" stop-color="#1d5bdf"/></linearGradient><filter id="drop-shadow-2" filterUnits="userSpaceOnUse"><feOffset dx="3" dy="3"/><feGaussianBlur result="blur-2" stdDeviation="3"/><feFlood flood-color="#000" flood-opacity=".2"/><feComposite in2="blur-2" operator="in"/><feComposite in="SourceGraphic"/></filter><linearGradient id="linear-gradient-2" y1="87.39" y2="87.39" xlink:href="#linear-gradient"/><filter id="drop-shadow-3" filterUnits="userSpaceOnUse"><feOffset dx="3" dy="3"/><feGaussianBlur result="blur-3" stdDeviation="3"/><feFlood flood-color="#000" flood-opacity=".2"/><feComposite in2="blur-3" operator="in"/><feComposite in="SourceGraphic"/></filter><linearGradient id="linear-gradient-3" y1="115.53" y2="115.53" xlink:href="#linear-gradient"/><filter id="drop-shadow-4" filterUnits="userSpaceOnUse"><feOffset dx="3" dy="3"/><feGaussianBlur result="blur-4" stdDeviation="3"/><feFlood flood-color="#000" flood-opacity=".2"/><feComposite in2="blur-4" operator="in"/><feComposite in="SourceGraphic"/></filter><linearGradient id="linear-gradient-4" y1="143.5" y2="143.5" xlink:href="#linear-gradient"/></defs><g id="OBJECTS"><rect class="cls-1" width="104.95" height="186.57"/><g><path class="cls-12" d="M50.79,168.33h0c-.16-.16-.16-.42,0-.59l1.11-1.11c.16-.16,.42-.16,.59,0h0c.16,.16,.16,.42,0,.59l-1.11,1.11c-.16,.16-.42,.16-.59,0Z"/><path class="cls-12" d="M49.68,166.63h0c.16-.16,.42-.16,.59,0l1.11,1.11c.16,.16,.16,.42,0,.59h0c-.16,.16-.42,.16-.59,0l-1.11-1.11c-.16-.16-.16-.42,0-.59Z"/></g><text class="cls-5" transform="translate(32.4 27.49)"><tspan x="0" y="0">Minha </tspan><tspan class="cls-4" x="21.5" y="0">C</tspan><tspan x="25.84" y="0">onta</tspan></text><g class="cls-17"><rect class="cls-6" x="12.29" y="46.64" width="80.28" height="24.18" rx="3.07" ry="3.07"/><rect class="cls-9" x="14.07" y="48.3" width="20.6" height="20.88" rx="1.45" ry="1.45"/><g><path class="cls-11" d="M26.42,60.15l-6.05,2.11v-6.81l5.69-2.01c.47-.13,.92,.27,.92,.81v5.08c0,.38-.23,.72-.56,.81Z"/><path class="cls-6" d="M20.37,55.46h6.78c.46,0,.84,.37,.84,.84v5.13c0,.46-.37,.84-.84,.84h-6.78v-6.81h0Z"/><rect class="cls-11" x="26.34" y="58.14" width="2.01" height="1.58" rx=".22" ry=".22"/></g></g><text class="cls-8" transform="translate(43.05 58.1)"><tspan x="0" y="0">O</tspan><tspan class="cls-18" x="2.57" y="0">f</tspan><tspan x="3.72" y="0">e</tspan><tspan class="cls-22" x="5.64" y="0">r</tspan><tspan x="6.99" y="0">tas de emp</tspan><tspan class="cls-13" x="24.75" y="0">r</tspan><tspan x="26.03" y="0">ego</tspan><tspan x="0" y="3.65">em a</tspan><tspan class="cls-2" x="7.84" y="3.65">n</tspan><tspan x="9.96" y="3.65">da</tspan><tspan class="cls-14" x="13.94" y="3.65">m</tspan><tspan x="17.14" y="3.65">en</tspan><tspan class="cls-25" x="21.16" y="3.65">t</tspan><tspan x="22.43" y="3.65">o</tspan></text><g class="cls-15"><rect class="cls-6" x="12.29" y="75.3" width="80.28" height="24.18" rx="3.07" ry="3.07"/><rect class="cls-21" x="14.07" y="76.96" width="20.6" height="20.88" rx="1.45" ry="1.45"/><g><g><path class="cls-6" d="M27.66,88.35l-3.55,3.55-4.05-4.05c-.98-.98-.98-2.57,0-3.55h0c.98-.98,2.57-.98,3.55,0l4.05,4.05Z"/><path class="cls-6" d="M24.13,91.91l-3.55-3.55,4.06-4.06c.98-.98,2.57-.98,3.55,0h0c.98,.98,.98,2.57,0,3.55l-4.06,4.06Z"/></g><path class="cls-11" d="M22.44,88.57c-.06,0-.12-.02-.17-.07-.09-.09-.09-.24,0-.33l1.22-1.22c.09-.09,.24-.09,.33,0l.6,.6,1.18-1.18c.09-.09,.24-.09,.33,0,.09,.09,.09,.24,0,.33l-1.35,1.35c-.09,.09-.24,.09-.33,0l-.6-.6-1.05,1.05s-.11,.07-.17,.07Z"/></g></g><text class="cls-8" transform="translate(43.05 89.06)"><tspan class="cls-10" x="0" y="0">F</tspan><tspan class="cls-23" x="1.9" y="0">a</tspan><tspan class="cls-26" x="3.74" y="0">v</tspan><tspan x="5.51" y="0">o</tspan><tspan class="cls-24" x="7.5" y="0">r</tspan><tspan x="8.8" y="0">i</tspan><tspan class="cls-25" x="9.72" y="0">t</tspan><tspan x="10.99" y="0">os</tspan></text><g class="cls-16"><rect class="cls-6" x="12.29" y="103.44" width="80.28" height="24.18" rx="3.07" ry="3.07"/><rect class="cls-19" x="14.07" y="105.09" width="20.6" height="20.88" rx="1.45" ry="1.45"/><g><path class="cls-6" d="M28.44,112.6v7.17c0,.33-.27,.59-.59,.59h-6.98c-.32,0-.59-.26-.59-.59v-9.41c0-.33,.26-.59,.59-.59h4.74l2.83,2.83Z"/><path class="cls-11" d="M25.62,112.02v-2.24l2.83,2.83h-2.24c-.32,0-.59-.26-.59-.59Z"/><path class="cls-11" d="M26.46,114.61h-4.18c-.14,0-.26-.11-.26-.26h0c0-.14,.11-.26,.26-.26h4.18c.14,0,.26,.11,.26,.26h0c0,.14-.11,.26-.26,.26Z"/><path class="cls-11" d="M26.46,115.92h-4.18c-.14,0-.26-.11-.26-.26h0c0-.14,.11-.26,.26-.26h4.18c.14,0,.26,.11,.26,.26h0c0,.14-.11,.26-.26,.26Z"/><path class="cls-11" d="M26.46,117.23h-4.18c-.14,0-.26-.11-.26-.26h0c0-.14,.11-.26,.26-.26h4.18c.14,0,.26,.11,.26,.26h0c0,.14-.11,.26-.26,.26Z"/></g></g><text class="cls-8" transform="translate(43.05 116.87)"><tspan x="0" y="0">Meus Docu</tspan><tspan class="cls-2" x="17.77" y="0">m</tspan><tspan x="20.97" y="0">en</tspan><tspan class="cls-25" x="24.99" y="0">t</tspan><tspan x="26.26" y="0">os</tspan></text><rect class="cls-7" x="12.29" y="131.41" width="80.28" height="24.18" rx="3.07" ry="3.07"/><rect class="cls-20" x="14.07" y="133.07" width="20.6" height="20.88" rx="1.45" ry="1.45"/><text class="cls-8" transform="translate(43.05 144.85)"><tspan class="cls-3" x="0" y="0">C</tspan><tspan x="2.17" y="0">onfigu</tspan><tspan class="cls-18" x="12.81" y="0">r</tspan><tspan class="cls-2" x="14.1" y="0">a</tspan><tspan class="cls-18" x="15.99" y="0">ç</tspan><tspan x="17.77" y="0">ões</tspan></text><g><path class="cls-6" d="M29.01,142l-.68-.15c-.18-.04-.32-.18-.38-.35-.03-.08-.06-.15-.09-.22-.07-.17-.07-.36,.03-.52l.38-.63c.14-.21,.11-.5-.07-.68l-.62-.62c-.18-.18-.47-.21-.68-.07l-.59,.36c-.16,.1-.36,.1-.54,.03-.07-.04-.14-.07-.22-.1-.17-.07-.3-.2-.34-.39l-.16-.72c-.05-.24-.27-.42-.53-.42h-.88c-.25,0-.48,.17-.53,.42l-.16,.69c-.04,.18-.17,.32-.35,.38-.07,.03-.15,.06-.22,.09-.17,.07-.36,.07-.52-.03l-.62-.4c-.22-.13-.5-.1-.68,.08l-.63,.62c-.17,.18-.21,.47-.07,.68l.36,.59c.1,.16,.11,.35,.03,.53-.04,.08-.07,.15-.1,.22-.06,.17-.2,.3-.38,.34l-.71,.16c-.25,.06-.43,.28-.43,.54v.88c0,.25,.17,.48,.43,.53l.68,.16c.18,.04,.32,.17,.38,.35,.03,.07,.06,.15,.09,.22,.08,.17,.07,.36-.03,.52l-.38,.62c-.14,.22-.11,.5,.07,.68l.62,.62c.18,.18,.47,.21,.68,.08l.59-.37c.16-.1,.36-.1,.54-.02,.07,.03,.14,.07,.22,.1,.17,.06,.3,.2,.34,.38l.16,.71c.05,.25,.27,.43,.53,.43h.88c.25,0,.48-.17,.54-.43l.15-.68c.04-.18,.17-.32,.35-.4,.08-.02,.15-.05,.22-.08,.17-.08,.36-.07,.52,.03l.62,.39c.22,.14,.51,.1,.68-.07l.63-.63c.17-.17,.21-.46,.07-.67l-.36-.59c-.1-.16-.11-.36-.03-.54,.04-.07,.07-.14,.1-.22,.06-.17,.2-.3,.38-.34l.71-.16c.25-.05,.43-.27,.43-.53v-.88c0-.25-.17-.48-.43-.54Zm-4.97,3.14c-1.23,0-2.22-.98-2.22-2.21s.99-2.22,2.22-2.22,2.22,.99,2.22,2.22-.99,2.21-2.22,2.21Z"/><path class="cls-11" d="M24.03,145.4c-1.36,0-2.47-1.11-2.47-2.47s1.11-2.47,2.47-2.47,2.47,1.11,2.47,2.47-1.11,2.47-2.47,2.47Zm0-4.43c-1.08,0-1.96,.88-1.96,1.96s.88,1.96,1.96,1.96,1.96-.88,1.96-1.96-.88-1.96-1.96-1.96Z"/></g></g></svg>