<?xml version="1.0" encoding="utf-8"?>
<!-- Generator: Adobe Illustrator 26.3.1, SVG Export Plug-In . SVG Version: 6.00 Build 0)  -->
<svg version="1.1" id="Layer_2_00000085216090932991462550000012801050573153720717_"
	 xmlns="http://www.w3.org/2000/svg" xmlns:xlink="http://www.w3.org/1999/xlink" x="0px" y="0px" viewBox="0 0 218.7 388.9"
	 style="enable-background:new 0 0 218.7 388.9;" xml:space="preserve">
<style type="text/css">
	.st0{fill:none;}
	.st1{enable-background:new    ;}
	.st2{fill:#F2F2F4;}
	.st3{fill:#2B2B2B;}
	.st4{fill:#F99E1D;}
	.st5{fill:#FFFFFF;}
	.st6{fill:#57B952;}
	.st7{fill:#36ACE2;}
</style>
<g id="OBJECTS">
	<g>
		<path class="st0" d="M214.8,388.9H4c-2.2,0-4-1.8-4-4V4c0-2.2,1.8-4,4-4h210.8c2.2,0,4,1.8,4,4v380.9
			C218.7,387.1,217,388.9,214.8,388.9z"/>
	</g>
	<g class="st1">
		<path class="st2" d="M18,369.2c0,1.3-0.9,2.2-2.1,2.2c-0.6,0-1.1-0.2-1.5-0.7v2.2h-0.8v-5.8h0.7v0.7c0.3-0.5,0.9-0.7,1.5-0.7
			C17.1,367.1,18,367.9,18,369.2z M17.2,369.2c0-0.9-0.6-1.5-1.4-1.5c-0.8,0-1.4,0.6-1.4,1.5c0,0.9,0.6,1.5,1.4,1.5
			C16.6,370.7,17.2,370.1,17.2,369.2z"/>
	</g>
	<g class="st1">
		<path class="st2" d="M21.3,367.1v0.7c-0.1,0-0.1,0-0.2,0c-0.8,0-1.3,0.5-1.3,1.4v2.1h-0.8v-4.2h0.7v0.7
			C20.1,367.3,20.6,367.1,21.3,367.1z"/>
	</g>
	<g class="st1">
		<path class="st2" d="M26.1,369.5h-3.4c0.1,0.7,0.7,1.2,1.5,1.2c0.5,0,0.9-0.2,1.2-0.5l0.4,0.5c-0.4,0.4-1,0.7-1.7,0.7
			c-1.4,0-2.3-0.9-2.3-2.2c0-1.3,0.9-2.2,2.1-2.2s2.1,0.9,2.1,2.2C26.1,369.3,26.1,369.4,26.1,369.5z M22.6,368.9h2.7
			c-0.1-0.7-0.6-1.2-1.4-1.2C23.2,367.7,22.7,368.2,22.6,368.9z"/>
		<path class="st2" d="M26.7,369.2c0-1.3,0.9-2.2,2.2-2.2c0.8,0,1.4,0.3,1.7,0.9l-0.6,0.4c-0.3-0.4-0.7-0.6-1.2-0.6
			c-0.8,0-1.5,0.6-1.5,1.5c0,0.9,0.6,1.5,1.5,1.5c0.5,0,0.9-0.2,1.2-0.6l0.6,0.4c-0.3,0.6-1,0.9-1.7,0.9
			C27.7,371.4,26.7,370.5,26.7,369.2z"/>
		<path class="st2" d="M31.6,365.8c0-0.3,0.2-0.5,0.5-0.5s0.5,0.2,0.5,0.5c0,0.3-0.2,0.5-0.5,0.5C31.8,366.3,31.6,366.1,31.6,365.8z
			 M31.7,367.1h0.8v4.2h-0.8V367.1z"/>
		<path class="st2" d="M33.4,370.9l0.3-0.6c0.4,0.3,0.9,0.4,1.5,0.4c0.7,0,1-0.2,1-0.6c0-1-2.7-0.1-2.7-1.8c0-0.8,0.7-1.3,1.8-1.3
			c0.6,0,1.2,0.1,1.5,0.4l-0.3,0.6c-0.4-0.2-0.8-0.3-1.2-0.3c-0.7,0-1,0.2-1,0.6c0,1,2.7,0.2,2.7,1.8c0,0.8-0.7,1.3-1.8,1.3
			C34.4,371.4,33.7,371.2,33.4,370.9z"/>
		<path class="st2" d="M41.3,368.8v2.6h-0.7v-0.6c-0.3,0.4-0.7,0.6-1.4,0.6c-1,0-1.6-0.5-1.6-1.2c0-0.7,0.4-1.2,1.7-1.2h1.2v-0.2
			c0-0.6-0.4-1-1.1-1c-0.5,0-1,0.2-1.3,0.5l-0.3-0.6c0.4-0.4,1.1-0.5,1.8-0.5C40.6,367.1,41.3,367.6,41.3,368.8z M40.5,370v-0.6
			h-1.2c-0.8,0-1,0.3-1,0.7c0,0.4,0.4,0.7,0.9,0.7C39.9,370.8,40.3,370.5,40.5,370z"/>
		<path class="st2" d="M48.9,365.4v5.9h-0.7v-0.7c-0.3,0.5-0.9,0.7-1.5,0.7c-1.2,0-2.1-0.9-2.1-2.2c0-1.3,0.9-2.2,2.1-2.2
			c0.6,0,1.1,0.2,1.5,0.7v-2.3H48.9z M48.1,369.2c0-0.9-0.6-1.5-1.4-1.5c-0.8,0-1.4,0.6-1.4,1.5c0,0.9,0.6,1.5,1.4,1.5
			C47.5,370.7,48.1,370.1,48.1,369.2z"/>
		<path class="st2" d="M54.1,369.5h-3.4c0.1,0.7,0.7,1.2,1.5,1.2c0.5,0,0.9-0.2,1.2-0.5l0.4,0.5c-0.4,0.4-1,0.7-1.7,0.7
			c-1.4,0-2.3-0.9-2.3-2.2c0-1.3,0.9-2.2,2.1-2.2s2.1,0.9,2.1,2.2C54.2,369.3,54.2,369.4,54.1,369.5z M50.7,368.9h2.7
			c-0.1-0.7-0.6-1.2-1.4-1.2C51.3,367.7,50.8,368.2,50.7,368.9z"/>
		<path class="st2" d="M60.7,368.8v2.6H60v-0.6c-0.3,0.4-0.7,0.6-1.4,0.6c-1,0-1.6-0.5-1.6-1.2c0-0.7,0.4-1.2,1.7-1.2H60v-0.2
			c0-0.6-0.4-1-1.1-1c-0.5,0-1,0.2-1.3,0.5l-0.3-0.6c0.4-0.4,1.1-0.5,1.8-0.5C60.1,367.1,60.7,367.6,60.7,368.8z M60,370v-0.6h-1.2
			c-0.8,0-1,0.3-1,0.7c0,0.4,0.4,0.7,0.9,0.7C59.3,370.8,59.8,370.5,60,370z"/>
		<path class="st2" d="M60.7,372.7l0.2-0.6c0.2,0.1,0.4,0.2,0.6,0.2c0.4,0,0.6-0.3,0.6-0.7v-4.4H63v4.4c0,0.9-0.5,1.4-1.4,1.4
			C61.3,372.9,60.9,372.8,60.7,372.7z M62.1,365.8c0-0.3,0.2-0.5,0.5-0.5s0.5,0.2,0.5,0.5c0,0.3-0.2,0.5-0.5,0.5
			C62.3,366.3,62.1,366.1,62.1,365.8z"/>
		<path class="st2" d="M68.4,367.1v4.2h-0.7v-0.6c-0.3,0.4-0.8,0.7-1.4,0.7c-1.1,0-1.8-0.6-1.8-1.8v-2.4h0.8v2.4
			c0,0.8,0.4,1.2,1.1,1.2c0.8,0,1.3-0.5,1.3-1.4v-2.2H68.4z"/>
		<path class="st2" d="M73.9,365.4v5.9h-0.7v-0.7c-0.3,0.5-0.9,0.7-1.5,0.7c-1.2,0-2.1-0.9-2.1-2.2c0-1.3,0.9-2.2,2.1-2.2
			c0.6,0,1.1,0.2,1.5,0.7v-2.3H73.9z M73.1,369.2c0-0.9-0.6-1.5-1.4-1.5c-0.8,0-1.4,0.6-1.4,1.5c0,0.9,0.6,1.5,1.4,1.5
			C72.5,370.7,73.1,370.1,73.1,369.2z"/>
	</g>
	<g class="st1">
		<path class="st2" d="M78.7,368.8v2.6h-0.7v-0.6c-0.3,0.4-0.7,0.6-1.4,0.6c-1,0-1.6-0.5-1.6-1.2c0-0.7,0.4-1.2,1.7-1.2h1.2v-0.2
			c0-0.6-0.4-1-1.1-1c-0.5,0-1,0.2-1.3,0.5l-0.3-0.6c0.4-0.4,1.1-0.5,1.8-0.5C78,367.1,78.7,367.6,78.7,368.8z M77.9,370v-0.6h-1.2
			c-0.8,0-1,0.3-1,0.7c0,0.4,0.4,0.7,0.9,0.7C77.3,370.8,77.7,370.5,77.9,370z"/>
	</g>
	<g class="st1">
		<path class="st2" d="M82.2,367.2c0-0.5-0.4-0.9-1.1-0.9c-0.6,0-1.1,0.2-1.4,0.6l-0.6-0.4c0.4-0.6,1.1-0.9,2.1-0.9
			c1.2,0,1.9,0.5,1.9,1.4c0,1.3-1.4,1.4-1.4,2.5h-0.8C80.8,368.3,82.2,368.1,82.2,367.2z M80.7,370.9c0-0.3,0.2-0.5,0.5-0.5
			c0.3,0,0.5,0.2,0.5,0.5c0,0.3-0.2,0.5-0.5,0.5C80.9,371.4,80.7,371.1,80.7,370.9z"/>
	</g>
	<g>
		<g class="st1">
			<path class="st3" d="M152.8,338.7v1.7h-7.1v-9.2h7v1.7h-4.8v2h4.3v1.7h-4.3v2.1H152.8z"/>
			<path class="st3" d="M161.5,336.4v4h-2v-3.7c0-1.1-0.5-1.7-1.4-1.7c-1,0-1.7,0.6-1.7,1.9v3.5h-2v-7.1h2v0.8
				c0.6-0.6,1.4-0.9,2.3-0.9C160.3,333.3,161.5,334.2,161.5,336.4z"/>
			<path class="st3" d="M167.9,340.1c-0.4,0.3-1,0.4-1.7,0.4c-1.7,0-2.6-0.9-2.6-2.5v-2.9h-1.1v-1.6h1.1v-1.7h2v1.7h1.8v1.6h-1.8
				v2.9c0,0.6,0.3,0.9,0.9,0.9c0.3,0,0.6-0.1,0.8-0.3L167.9,340.1z"/>
		</g>
		<g class="st1">
			<path class="st3" d="M173.5,333.3v1.9c-0.2,0-0.3,0-0.5,0c-1.1,0-1.9,0.6-1.9,2v3.3h-2v-7.1h2v0.9
				C171.6,333.6,172.4,333.3,173.5,333.3z"/>
		</g>
		<g class="st1">
			<path class="st3" d="M180.9,336.4v4H179v-0.9c-0.4,0.6-1.1,1-2.2,1c-1.7,0-2.6-0.9-2.6-2.1c0-1.2,0.9-2.1,3-2.1h1.6
				c0-0.9-0.5-1.4-1.6-1.4c-0.7,0-1.5,0.2-2,0.7l-0.7-1.4c0.8-0.6,1.9-0.9,3-0.9C179.7,333.3,180.9,334.3,180.9,336.4z M178.9,338.2
				v-0.7h-1.4c-1,0-1.3,0.4-1.3,0.8c0,0.5,0.4,0.9,1.2,0.9C178,339.2,178.6,338.9,178.9,338.2z"/>
			<path class="st3" d="M187.2,333.3v1.9c-0.2,0-0.3,0-0.5,0c-1.1,0-1.9,0.6-1.9,2v3.3h-2v-7.1h2v0.9
				C185.2,333.6,186.1,333.3,187.2,333.3z"/>
		</g>
		<g>
			<path class="st4" d="M204,333.9l-6.3-6.3c-0.9-0.9-2.3-0.9-3.1,0s-0.9,2.3,0,3.1l4.7,4.7l-4.7,4.7c-0.9,0.9-0.9,2.3,0,3.1
				c0.9,0.9,2.3,0.9,3.1,0l6.3-6.3c0.4-0.4,0.6-1,0.6-1.6C204.6,335,204.4,334.4,204,333.9L204,333.9z"/>
		</g>
		<g class="st1">
			<path class="st3" d="M126.4,365.4c0-2.8,2.1-4.8,5-4.8c1.6,0,2.9,0.6,3.8,1.6l-1.4,1.3c-0.6-0.7-1.4-1.1-2.3-1.1
				c-1.7,0-2.9,1.2-2.9,2.9c0,1.7,1.2,2.9,2.9,2.9c0.9,0,1.7-0.4,2.3-1.1l1.4,1.3c-0.9,1.1-2.2,1.6-3.8,1.6
				C128.5,370.2,126.4,368.2,126.4,365.4z"/>
		</g>
		<g class="st1">
			<path class="st3" d="M142.6,366v4h-1.9v-0.9c-0.4,0.6-1.1,1-2.2,1c-1.7,0-2.6-0.9-2.6-2.1c0-1.2,0.9-2.1,3-2.1h1.6
				c0-0.9-0.5-1.4-1.6-1.4c-0.7,0-1.5,0.2-2,0.7l-0.7-1.4c0.8-0.6,1.9-0.9,3-0.9C141.4,362.9,142.6,363.9,142.6,366z M140.6,367.8
				v-0.7h-1.4c-1,0-1.3,0.4-1.3,0.8c0,0.5,0.4,0.9,1.2,0.9C139.7,368.8,140.3,368.5,140.6,367.8z"/>
		</g>
		<g class="st1">
			<path class="st3" d="M151.7,360.3v9.7h-2v-0.8c-0.5,0.6-1.3,0.9-2.2,0.9c-2,0-3.5-1.4-3.5-3.6c0-2.2,1.5-3.6,3.5-3.6
				c0.9,0,1.6,0.3,2.1,0.9v-3.4H151.7z M149.7,366.5c0-1.2-0.8-2-1.8-2c-1,0-1.8,0.7-1.8,2s0.8,2,1.8,2
				C148.9,368.5,149.7,367.7,149.7,366.5z"/>
			<path class="st3" d="M159.9,366v4H158v-0.9c-0.4,0.6-1.1,1-2.2,1c-1.7,0-2.6-0.9-2.6-2.1c0-1.2,0.9-2.1,3-2.1h1.6
				c0-0.9-0.5-1.4-1.6-1.4c-0.7,0-1.5,0.2-2,0.7l-0.7-1.4c0.8-0.6,1.9-0.9,3-0.9C158.6,362.9,159.9,363.9,159.9,366z M157.8,367.8
				v-0.7h-1.4c-1,0-1.3,0.4-1.3,0.8c0,0.5,0.4,0.9,1.2,0.9C157,368.8,157.6,368.5,157.8,367.8z"/>
			<path class="st3" d="M161.1,369.4l0.7-1.5c0.6,0.4,1.6,0.7,2.5,0.7c0.9,0,1.3-0.2,1.3-0.6c0-1.2-4.3,0-4.3-2.8
				c0-1.3,1.2-2.3,3.3-2.3c1,0,2,0.2,2.7,0.6l-0.7,1.5c-0.7-0.4-1.4-0.5-2-0.5c-0.9,0-1.3,0.3-1.3,0.7c0,1.2,4.3,0,4.3,2.8
				c0,1.3-1.2,2.2-3.3,2.2C162.9,370.1,161.7,369.8,161.1,369.4z"/>
			<path class="st3" d="M173.3,369.7c-0.4,0.3-1,0.4-1.7,0.4c-1.7,0-2.6-0.9-2.6-2.5v-2.9h-1.1v-1.6h1.1v-1.7h2v1.7h1.8v1.6H171v2.9
				c0,0.6,0.3,0.9,0.9,0.9c0.3,0,0.6-0.1,0.8-0.3L173.3,369.7z"/>
		</g>
		<g class="st1">
			<path class="st3" d="M178.8,362.9v1.9c-0.2,0-0.3,0-0.5,0c-1.1,0-1.9,0.6-1.9,2v3.3h-2V363h2v0.9
				C176.9,363.2,177.7,362.9,178.8,362.9z"/>
		</g>
		<g class="st1">
			<path class="st3" d="M179.3,366.5c0-2.1,1.6-3.6,3.9-3.6c2.2,0,3.9,1.5,3.9,3.6c0,2.1-1.6,3.6-3.9,3.6
				C180.9,370.1,179.3,368.6,179.3,366.5z M185,366.5c0-1.2-0.8-2-1.8-2s-1.8,0.7-1.8,2s0.8,2,1.8,2S185,367.7,185,366.5z"/>
		</g>
		<g>
			<path class="st4" d="M204,363.5l-6.3-6.3c-0.9-0.9-2.3-0.9-3.1,0s-0.9,2.3,0,3.1l4.7,4.7l-4.7,4.7c-0.9,0.9-0.9,2.3,0,3.1
				c0.9,0.9,2.3,0.9,3.1,0l6.3-6.3c0.4-0.4,0.6-1,0.6-1.6C204.6,364.5,204.4,364,204,363.5L204,363.5z"/>
		</g>
	</g>
	<g>
		<g class="st1">
			<path class="st5" d="M90.2,172h3.9v16.8h-3.9V172z"/>
		</g>
		<g class="st1">
			<path class="st5" d="M98.1,172h7.6c5.5,0,9.3,3.3,9.3,8.4c0,5.1-3.8,8.4-9.3,8.4h-7.6V172z M105.5,185.6c3.3,0,5.5-2,5.5-5.2
				c0-3.2-2.2-5.2-5.5-5.2H102v10.4H105.5z"/>
		</g>
		<g class="st1">
			<path class="st5" d="M121.2,175.1h-5.4V172h14.6v3.2H125v13.6h-3.9V175.1z"/>
		</g>
		<g>
			<g>
				<path class="st6" d="M90.1,102.2h-9.4c-3.9,0-7,3.1-7,7v46c0,3.9,3.1,7,7,7h9.4V102.2L90.1,102.2z"/>
			</g>
			<g>
				<path class="st7" d="M114.6,102.2H94v13.4h16.8c5.9,0,10.6,4.8,10.6,10.6v12.4c0,5.9-4.8,10.6-10.6,10.6H90.1v13h24.6
					c12.9,0,23.4-10.5,23.4-23.4v-13.3C138,112.7,127.5,102.2,114.6,102.2L114.6,102.2z"/>
			</g>
			<g>
				<circle class="st7" cx="81.9" cy="91.6" r="7.9"/>
			</g>
			<g>
				<circle class="st6" cx="130.1" cy="91.6" r="7.9"/>
			</g>
			<g>
				<path class="st6" d="M138,125.6v0.6c0-5.9,4.8-10.6,10.6-10.6h20.8v-13.4h-24.6c-5.8,0-11,2.1-15.1,5.5
					C134.8,112.1,138,118.5,138,125.6L138,125.6z"/>
			</g>
		</g>
	</g>
</g>
</svg>
