<?xml version="1.0" encoding="UTF-8"?><svg id="Layer_2" xmlns="http://www.w3.org/2000/svg" xmlns:xlink="http://www.w3.org/1999/xlink" viewBox="0 0 105.36 186.57"><defs><style>.cls-1,.cls-2{fill:none;}.cls-3{letter-spacing:-.02em;}.cls-4{letter-spacing:-.02em;}.cls-5{font-size:3.1px;}.cls-5,.cls-6,.cls-7,.cls-8,.cls-9,.cls-10,.cls-11,.cls-12,.cls-13,.cls-14{fill:#fff;}.cls-5,.cls-6,.cls-15,.cls-16,.cls-14,.cls-17{font-family:Montserrat-Bold, Montserrat;}.cls-6{font-size:6.08px;}.cls-18{clip-path:url(#clippath);}.cls-19{letter-spacing:0em;}.cls-20{letter-spacing:-.02em;}.cls-21,.cls-22{fill:#f99e1d;}.cls-23{fill:#3733bf;}.cls-24{fill:#36ace2;}.cls-25{letter-spacing:0em;}.cls-26{letter-spacing:-.02em;}.cls-27{letter-spacing:0em;}.cls-28{letter-spacing:-.05em;}.cls-29{letter-spacing:-.01em;}.cls-30{fill:#aaa;font-size:2px;}.cls-31{letter-spacing:0em;}.cls-32{clip-path:url(#clippath-1);}.cls-33{letter-spacing:0em;}.cls-34{letter-spacing:-.02em;}.cls-2{stroke:#fff;stroke-linecap:round;stroke-linejoin:round;stroke-width:.4px;}.cls-16{font-size:4.05px;}.cls-16,.cls-17{fill:#2b2b2b;}.cls-35{letter-spacing:0em;}.cls-36{letter-spacing:.01em;}.cls-37{letter-spacing:0em;}.cls-38{letter-spacing:0em;}.cls-22{filter:url(#drop-shadow-8);}.cls-39{fill:#57b952;filter:url(#drop-shadow-1);}.cls-8{filter:url(#drop-shadow-5);}.cls-9{filter:url(#drop-shadow-7);}.cls-10{filter:url(#drop-shadow-4);}.cls-11{filter:url(#drop-shadow-6);}.cls-12{filter:url(#drop-shadow-2);}.cls-13{filter:url(#drop-shadow-3);}.cls-40{letter-spacing:0em;}.cls-41{letter-spacing:0em;}.cls-42{letter-spacing:-.02em;}.cls-43{letter-spacing:-.01em;}.cls-44{letter-spacing:0em;}.cls-14{font-size:5.07px;}.cls-45{letter-spacing:0em;}.cls-46{fill:#828282;font-size:6px;}.cls-47{letter-spacing:.04em;}.cls-17{font-size:2.28px;}</style><filter id="drop-shadow-1" filterUnits="userSpaceOnUse"><feOffset dx="3" dy="3"/><feGaussianBlur result="blur" stdDeviation="3"/><feFlood flood-color="#000" flood-opacity=".2"/><feComposite in2="blur" operator="in"/><feComposite in="SourceGraphic"/></filter><clipPath id="clippath"><rect class="cls-1" x="12.27" y="138.07" width="80.28" height="31.95" rx="3.07" ry="3.07"/></clipPath><filter id="drop-shadow-2" filterUnits="userSpaceOnUse"><feOffset dx="3" dy="3"/><feGaussianBlur result="blur-2" stdDeviation="3"/><feFlood flood-color="#000" flood-opacity=".2"/><feComposite in2="blur-2" operator="in"/><feComposite in="SourceGraphic"/></filter><filter id="drop-shadow-3" filterUnits="userSpaceOnUse"><feOffset dx="3" dy="3"/><feGaussianBlur result="blur-3" stdDeviation="3"/><feFlood flood-color="#000" flood-opacity=".2"/><feComposite in2="blur-3" operator="in"/><feComposite in="SourceGraphic"/></filter><filter id="drop-shadow-4" filterUnits="userSpaceOnUse"><feOffset dx="3" dy="3"/><feGaussianBlur result="blur-4" stdDeviation="3"/><feFlood flood-color="#000" flood-opacity=".2"/><feComposite in2="blur-4" operator="in"/><feComposite in="SourceGraphic"/></filter><clipPath id="clippath-1"><rect class="cls-1" y="33.41" width="104.98" height="48.94"/></clipPath><filter id="drop-shadow-5" filterUnits="userSpaceOnUse"><feOffset dx="3" dy="3"/><feGaussianBlur result="blur-5" stdDeviation="3"/><feFlood flood-color="#000" flood-opacity=".2"/><feComposite in2="blur-5" operator="in"/><feComposite in="SourceGraphic"/></filter><filter id="drop-shadow-6" filterUnits="userSpaceOnUse"><feOffset dx="3" dy="3"/><feGaussianBlur result="blur-6" stdDeviation="3"/><feFlood flood-color="#000" flood-opacity=".2"/><feComposite in2="blur-6" operator="in"/><feComposite in="SourceGraphic"/></filter><filter id="drop-shadow-7" filterUnits="userSpaceOnUse"><feOffset dx="3" dy="3"/><feGaussianBlur result="blur-7" stdDeviation="3"/><feFlood flood-color="#000" flood-opacity=".2"/><feComposite in2="blur-7" operator="in"/><feComposite in="SourceGraphic"/></filter><filter id="drop-shadow-8" filterUnits="userSpaceOnUse"><feOffset dx="3" dy="3"/><feGaussianBlur result="blur-8" stdDeviation="3"/><feFlood flood-color="#000" flood-opacity=".2"/><feComposite in2="blur-8" operator="in"/><feComposite in="SourceGraphic"/></filter></defs><g id="OBJECTS"><rect class="cls-1" x=".03" width="104.95" height="186.57"/><text class="cls-6" transform="translate(42.89 28.26)"><tspan class="cls-28" x="0" y="0">V</tspan><tspan class="cls-38" x="4.2" y="0">a</tspan><tspan x="7.99" y="0">gas</tspan></text><path class="cls-7" d="M11.77,24.99h0c.16-.16,.42-.16,.59,0l1.11,1.11c.16,.16,.16,.42,0,.59h0c-.16,.16-.42,.16-.59,0l-1.11-1.11c-.16-.16-.16-.42,0-.59Z"/><path class="cls-7" d="M13.47,23.87h0c.16,.16,.16,.42,0,.59l-1.11,1.11c-.16,.16-.42,.16-.59,0h0c-.16-.16-.16-.42,0-.59l1.11-1.11c.16-.16,.42-.16,.59,0Z"/><path class="cls-7" d="M93.48,24.99h0c-.16-.16-.42-.16-.59,0l-1.11,1.11c-.16,.16-.16,.42,0,.59h0c.16,.16,.42,.16,.59,0l1.11-1.11c.16-.16,.16-.42,0-.59Z"/><path class="cls-7" d="M91.78,23.87h0c-.16,.16-.16,.42,0,.59l1.11,1.11c.16,.16,.42,.16,.59,0h0c.16-.16,.16-.42,0-.59l-1.11-1.11c-.16-.16-.42-.16-.59,0Z"/><rect class="cls-39" x="12.27" y="138.07" width="80.28" height="31.95" rx="3.07" ry="3.07"/><g class="cls-18"><circle class="cls-24" cx="-13.92" cy="117.47" r="72.79"/></g><text class="cls-14" transform="translate(18.55 152.51)"><tspan x="0" y="0">I</tspan><tspan class="cls-40" x="1.66" y="0">n</tspan><tspan x="5.19" y="0">dique uma </tspan><tspan class="cls-26" x="0" y="6.08">v</tspan><tspan class="cls-40" x="2.94" y="6.08">a</tspan><tspan x="6.09" y="6.08">ga a um amigo</tspan></text><g><path class="cls-2" d="M80.43,151.9s.01,.06,.03,.09c.08,.35,.17,.71,.26,1.06,.05,.18,.1,.35,.16,.52l1.79-3.3s-.39-.73-1.06,.06c-.14,.17-.27,.31-.39,.43-.36,.43-.47,.56-.47,.56l-.27,.51-.04,.06Z"/><path class="cls-2" d="M80.27,150.96c.05,.31,.1,.62,.17,.93,.01,.03,.01,.06,.03,.09,.08,.35,.17,.71,.26,1.06l.49-2.28,.66-3.04c-.08-.01-.16-.03-.22-.03-.32,0-.62,.17-.79,.44h0c-.05,.09-.09,.19-.12,.3l-.48,2.52Z"/><path class="cls-2" d="M80.03,148.05c0,.97,.08,1.95,.23,2.91,.05,.31,.1,.62,.17,.93,.01,.03,.01,.06,.03,.09v-.16l.4-3.67h0l.18-1.79c-.44,.06-.82,.36-1,.77v.08c-.01,.29-.01,.56-.01,.84Z"/><path class="cls-2" d="M73.49,153.71c0,.21,.06,.43,.18,.64l1,1.7c.91,1.56,2.06,2.96,3.41,4.17l.77,.69,3.62-1.65-1.19-4.55c-.14-.38-.27-.75-.4-1.13-.05-.17-.1-.34-.16-.52-.09-.35-.18-.71-.26-1.06-.01-.03-.01-.06-.03-.09-.06-.31-.12-.62-.17-.93-.16-.96-.23-1.93-.23-2.91,0-.29,0-.56,.01-.84v-.08l.09-2.1c-.8,.23-1.39,.91-1.51,1.74l-.9,6.29-.45,1.69c-.14,.54-.87,.66-1.19,.21l-1.71-2.44c-.54,.17-.88,.66-.88,1.19Z"/><polygon class="cls-2" points="78.85 160.9 79.46 164.35 84.41 162.24 82.47 159.25 78.85 160.9"/></g><path class="cls-7" d="M52.8,166.37h0c.16-.16,.16-.42,0-.59l-1.11-1.11c-.16-.16-.42-.16-.59,0h0c-.16,.16-.16,.42,0,.59l1.11,1.11c.16,.16,.42,.16,.59,0Z"/><path class="cls-7" d="M53.91,164.68h0c-.16-.16-.42-.16-.59,0l-1.11,1.11c-.16,.16-.16,.42,0,.59h0c.16,.16,.42,.16,.59,0l1.11-1.11c.16-.16,.16-.42,0-.59Z"/><rect class="cls-12" x="12.31" y="104.18" width="22.92" height="22.92" rx="1.53" ry="1.53"/><g><path class="cls-21" d="M25.2,117.83s-.07-.01-.1-.04l-1.15-.93s-.05-.06-.06-.11c0-.04,0-.08,.04-.12l1.15-1.38c.04-.05,.11-.07,.17-.05,.06,.02,.1,.08,.1,.15v2.31c0,.06-.03,.12-.09,.14-.02,.01-.04,.02-.07,.02Zm-.93-1.11l.77,.62v-1.55l-.77,.93Z"/><path class="cls-23" d="M22.65,117.15s-.1-.02-.13-.07l-2.85-4.12c-.04-.06-.04-.14,0-.19,.05-.05,.12-.07,.19-.04l5.41,2.48c.05,.02,.09,.07,.09,.13,0,.06-.02,.11-.07,.14l-2.55,1.64s-.06,.02-.08,.02Z"/><path class="cls-23" d="M26.5,115.14l-5.08-1.35-1.69-.76c-.07-.03-.11-.12-.08-.19,.02-.08,.1-.12,.18-.1l8.22,1.75c.07,.02,.12,.08,.12,.15,0,.07-.05,.14-.12,.15,0,0-1.54,.37-1.56,.36Z"/></g><text class="cls-17" transform="translate(15.85 124.15)"><tspan x="0" y="0">Buscar </tspan><tspan class="cls-34" x="8.9" y="0">v</tspan><tspan class="cls-33" x="10.22" y="0">a</tspan><tspan x="11.64" y="0">gas</tspan></text><rect class="cls-13" x="41.06" y="104.18" width="22.92" height="22.92" rx="1.53" ry="1.53"/><text class="cls-17" transform="translate(46.24 124.15)"><tspan x="0" y="0">Meu </tspan><tspan class="cls-29" x="5.83" y="0">P</tspan><tspan x="7.47" y="0">e</tspan><tspan class="cls-36" x="8.91" y="0">r</tspan><tspan x="9.92" y="0">fil</tspan></text><rect class="cls-10" x="69.81" y="104.18" width="22.92" height="22.92" rx="1.53" ry="1.53"/><text class="cls-17" transform="translate(72.43 124.15)"><tspan class="cls-4" x="0" y="0">C</tspan><tspan x="1.63" y="0">onfigu</tspan><tspan class="cls-25" x="9.61" y="0">r</tspan><tspan class="cls-33" x="10.57" y="0">a</tspan><tspan class="cls-27" x="11.99" y="0">ç</tspan><tspan x="13.32" y="0">ões</tspan></text><g><path class="cls-23" d="M85.07,114.59l-.52-.12c-.14-.03-.25-.14-.29-.27-.02-.06-.05-.12-.07-.17-.05-.13-.05-.28,.02-.39l.29-.48c.11-.16,.09-.38-.05-.52l-.47-.47c-.14-.14-.36-.16-.52-.05l-.45,.28c-.12,.08-.28,.08-.41,.02-.05-.03-.11-.05-.17-.08-.13-.05-.23-.15-.26-.29l-.12-.55c-.04-.19-.21-.32-.4-.32h-.67c-.19,0-.36,.13-.4,.32l-.12,.53c-.03,.14-.13,.25-.27,.29-.05,.02-.12,.05-.17,.07-.13,.05-.28,.05-.39-.02l-.47-.3c-.17-.1-.38-.08-.52,.06l-.48,.47c-.13,.14-.16,.36-.05,.52l.28,.45c.08,.12,.09,.27,.02,.4-.03,.06-.05,.12-.08,.17-.05,.13-.15,.23-.29,.26l-.54,.12c-.19,.05-.32,.22-.32,.41v.67c0,.19,.13,.36,.32,.4l.52,.12c.14,.03,.25,.13,.29,.27,.02,.05,.05,.12,.07,.17,.06,.13,.05,.28-.02,.39l-.29,.47c-.11,.17-.09,.38,.05,.52l.47,.47c.14,.14,.36,.16,.52,.06l.45-.29c.12-.08,.28-.08,.41-.02,.05,.02,.11,.05,.17,.08,.13,.05,.23,.15,.26,.29l.12,.54c.04,.19,.21,.33,.4,.33h.67c.19,0,.36-.13,.41-.33l.12-.52c.03-.14,.13-.25,.27-.3,.06-.02,.12-.04,.17-.06,.13-.06,.28-.05,.39,.02l.47,.29c.17,.11,.39,.08,.52-.05l.48-.48c.13-.13,.16-.35,.05-.51l-.28-.45c-.08-.12-.09-.28-.02-.41,.03-.05,.05-.11,.08-.17,.05-.13,.15-.23,.29-.26l.54-.12c.19-.04,.32-.21,.32-.4v-.67c0-.19-.13-.36-.32-.41Zm-3.8,2.4c-.94,0-1.69-.75-1.69-1.69s.76-1.69,1.69-1.69,1.69,.76,1.69,1.69-.76,1.69-1.69,1.69Z"/><path class="cls-21" d="M81.27,117.19c-1.04,0-1.89-.85-1.89-1.89s.85-1.89,1.89-1.89,1.89,.85,1.89,1.89-.85,1.89-1.89,1.89Zm0-3.39c-.83,0-1.5,.67-1.5,1.5s.67,1.5,1.5,1.5,1.5-.67,1.5-1.5-.67-1.5-1.5-1.5Z"/></g><text class="cls-16" transform="translate(33.47 97.79)"><tspan x="0" y="0">N</tspan><tspan class="cls-44" x="3.27" y="0">a</tspan><tspan class="cls-42" x="5.73" y="0">v</tspan><tspan x="8.1" y="0">eg</tspan><tspan class="cls-31" x="13.49" y="0">a</tspan><tspan x="16.01" y="0">ç</tspan><tspan class="cls-31" x="18.41" y="0">ã</tspan><tspan x="20.93" y="0">o </tspan><tspan class="cls-35" x="24.73" y="0">r</tspan><tspan x="26.45" y="0">ápida</tspan></text><path class="cls-23" d="M54.26,114.43c.62-.53,1.02-1.31,1.02-2.19,0-1.58-1.28-2.87-2.87-2.87s-2.87,1.28-2.87,2.87c0,.88,.4,1.66,1.02,2.19-.81,.45-1.36,1.32-1.36,2.31v2.9h6.41v-2.9c0-.99-.55-1.86-1.36-2.31Z"/><g class="cls-32"><rect class="cls-7" x="-15.99" y="36.99" width="22.92" height="34.61" rx="1.53" ry="1.53"/><text class="cls-17" transform="translate(-12.2 55.96)"><tspan class="cls-4" x="0" y="0">C</tspan><tspan x="1.63" y="0">onsu</tspan><tspan class="cls-47" x="7.47" y="0">l</tspan><tspan class="cls-20" x="8.25" y="0">t</tspan><tspan x="9.2" y="0">or de </tspan><tspan class="cls-43" x="3.39" y="2.73">v</tspan><tspan x="4.72" y="2.73">e</tspan><tspan class="cls-33" x="6.16" y="2.73">n</tspan><tspan x="7.75" y="2.73">das</tspan></text><text class="cls-15" transform="translate(-11.37 66.34)"><tspan class="cls-46"><tspan x="0" y="0">10</tspan><tspan class="cls-45" x="6.43" y="0">9</tspan><tspan x="10.22" y="0">7</tspan></tspan><tspan class="cls-30"><tspan class="cls-3" x="3.92" y="2.4">v</tspan><tspan class="cls-37" x="5.08" y="2.4">a</tspan><tspan x="6.33" y="2.4">gas</tspan></tspan></text><rect class="cls-8" x="12.63" y="36.99" width="22.92" height="34.61" rx="1.53" ry="1.53"/><text class="cls-17" transform="translate(18.2 55.96)"><tspan x="0" y="0">Bombei</tspan><tspan class="cls-19" x="9.32" y="0">r</tspan><tspan x="10.29" y="0">o </tspan><tspan x="-.1" y="2.73">hid</tspan><tspan class="cls-27" x="3.74" y="2.73">r</tspan><tspan x="4.71" y="2.73">áuli</tspan><tspan class="cls-25" x="9.05" y="2.73">c</tspan><tspan x="10.38" y="2.73">o</tspan></text><text class="cls-15" transform="translate(18.62 66.34)"><tspan class="cls-46"><tspan x="0" y="0">305</tspan></tspan><tspan class="cls-30"><tspan class="cls-3" x="2.55" y="2.4">v</tspan><tspan class="cls-37" x="3.71" y="2.4">a</tspan><tspan x="4.95" y="2.4">gas</tspan></tspan></text><g><path class="cls-21" d="M27.54,45.77v4.93c0,.38-.31,.71-.71,.71h-4.93c-.38,0-.71-.33-.71-.71v-4.93c0-.4,.33-.71,.71-.71h4.93c.4,0,.71,.31,.71,.71Z"/><path class="cls-23" d="M25.36,48.95v2.47h-2v-2.47c0-.2,.16-.36,.36-.36h1.28c.2,0,.36,.16,.36,.36Z"/><path class="cls-21" d="M27.77,46.57h-6.83c-.4,0-.6-.48-.32-.76l3.41-3.41c.17-.17,.46-.17,.63,0l3.41,3.41c.28,.28,.08,.76-.32,.76Z"/></g><rect class="cls-11" x="41.25" y="36.99" width="22.92" height="34.61" rx="1.53" ry="1.53"/><text class="cls-17" transform="translate(45.16 55.96)"><tspan x="0" y="0">Mecâni</tspan><tspan class="cls-27" x="8.63" y="0">c</tspan><tspan x="9.96" y="0">o de </tspan><tspan class="cls-43" x="2.68" y="2.73">v</tspan><tspan x="4.01" y="2.73">eículos</tspan></text><text class="cls-15" transform="translate(47.65 66.34)"><tspan class="cls-46"><tspan x="0" y="0">108</tspan></tspan><tspan class="cls-30"><tspan class="cls-3" x="2.14" y="2.4">v</tspan><tspan class="cls-37" x="3.3" y="2.4">a</tspan><tspan x="4.55" y="2.4">gas</tspan></tspan></text><rect class="cls-9" x="69.88" y="36.99" width="22.92" height="34.61" rx="1.53" ry="1.53"/><text class="cls-17" transform="translate(73.12 55.96)"><tspan class="cls-4" x="0" y="0">C</tspan><tspan class="cls-25" x="1.63" y="0">o</tspan><tspan x="3.1" y="0">zin</tspan><tspan class="cls-33" x="6.6" y="0">h</tspan><tspan x="8.19" y="0">ei</tspan><tspan class="cls-19" x="10.32" y="0">r</tspan><tspan x="11.28" y="0">o de </tspan><tspan class="cls-19" x="1.26" y="2.73">r</tspan><tspan x="2.22" y="2.73">estau</tspan><tspan class="cls-27" x="8.83" y="2.73">r</tspan><tspan x="9.8" y="2.73">an</tspan><tspan class="cls-20" x="12.78" y="2.73">t</tspan><tspan x="13.73" y="2.73">e</tspan></text><text class="cls-15" transform="translate(77.57 66.34)"><tspan class="cls-46"><tspan x="0" y="0">98</tspan></tspan><tspan class="cls-30"><tspan class="cls-3" x=".84" y="2.4">v</tspan><tspan class="cls-37" x="2" y="2.4">a</tspan><tspan x="3.25" y="2.4">gas</tspan></tspan></text><rect class="cls-7" x="98.5" y="36.99" width="22.92" height="34.61" rx="1.53" ry="1.53"/><text class="cls-17" transform="translate(102.14 55.96)"><tspan class="cls-4" x="0" y="0">C</tspan><tspan x="1.63" y="0">oo</tspan><tspan class="cls-19" x="4.61" y="0">r</tspan><tspan x="5.58" y="0">den</tspan><tspan class="cls-33" x="10.17" y="0">a</tspan><tspan x="11.59" y="0">dor </tspan><tspan x=".72" y="2.73">ped</tspan><tspan class="cls-33" x="5.31" y="2.73">a</tspan><tspan x="6.73" y="2.73">gógi</tspan><tspan class="cls-27" x="12.1" y="2.73">c</tspan><tspan x="13.43" y="2.73">o</tspan></text><text class="cls-15" transform="translate(104.48 66.34)"><tspan class="cls-46"><tspan x="0" y="0">505</tspan></tspan><tspan class="cls-30"><tspan class="cls-3" x="2.56" y="2.4">v</tspan><tspan class="cls-37" x="3.72" y="2.4">a</tspan><tspan x="4.96" y="2.4">gas</tspan></tspan></text><g><g><rect class="cls-23" x="49.13" y="47.46" width="1.27" height="2.04" rx=".22" ry=".22"/><rect class="cls-23" x="55.28" y="47.46" width="1.27" height="2.04" rx=".22" ry=".22"/></g><path class="cls-21" d="M56.08,46.66h-6.48l.52-2.16c.12-.52,.58-.88,1.11-.88h3.21c.53,0,.99,.36,1.11,.88l.52,2.16Z"/><path class="cls-23" d="M50.04,46.32l.42-1.73c.09-.36,.41-.61,.78-.61h3.21c.37,0,.69,.25,.78,.61l.42,1.73h-5.6Z"/><path class="cls-21" d="M49.84,45.7h6.01c.55,0,1,.45,1,1v1.47c0,.16-.13,.3-.3,.3h-7.41c-.16,0-.3-.13-.3-.3v-1.47c0-.55,.45-1,1-1Z"/><circle class="cls-23" cx="50.19" cy="47.09" r=".4"/><path class="cls-23" d="M55.64,47.09c0,.22-.18,.4-.4,.4s-.4-.18-.4-.4,.18-.4,.4-.4,.4,.18,.4,.4Z"/></g><g><path class="cls-23" d="M85.81,46.15l-.41,.29-5.45,3.93c-.34,.25-.79,.02-.79-.38v-7.33c0-.29,.25-.52,.52-.52,2.55,.16,4.77,1.4,6.24,3.28,.18,.23,.11,.57-.11,.72Z"/><path class="cls-21" d="M85.41,46.45l-5.45,3.93c-.34,.25-.79,.02-.79-.38v-6.78h.02c2.53,.16,4.73,1.38,6.22,3.23Z"/><circle class="cls-23" cx="80.39" cy="45.88" r=".31"/><path class="cls-23" d="M81.38,47.66c0,.25-.2,.45-.45,.45s-.45-.2-.45-.45,.2-.45,.45-.45,.45,.2,.45,.45Z"/><path class="cls-23" d="M82.96,45.83c0,.2-.16,.36-.36,.36s-.36-.16-.36-.36,.16-.36,.36-.36,.36,.16,.36,.36Z"/></g></g><path class="cls-22" d="M64.63,87.29h-27.3c-2.75,0-4.97-2.23-4.97-4.97h0c0-2.75,2.23-4.97,4.97-4.97h27.3c2.75,0,4.97,2.23,4.97,4.97h0c0,2.75-2.23,4.97-4.97,4.97Z"/><text class="cls-5" transform="translate(37.36 83.46)"><tspan x="0" y="0">Busca detalh</tspan><tspan class="cls-41" x="21.24" y="0">a</tspan><tspan x="23.17" y="0">da</tspan></text></g></svg>