<?xml version="1.0" encoding="UTF-8"?><svg id="Layer_2" xmlns="http://www.w3.org/2000/svg" xmlns:xlink="http://www.w3.org/1999/xlink" viewBox="0 0 105.05 186.57"><defs><style>.cls-1{fill:none;}.cls-2{letter-spacing:0em;}.cls-3{font-family:Montserrat-Medium, Montserrat;font-size:3.04px;}.cls-3,.cls-4,.cls-5,.cls-6,.cls-7,.cls-8,.cls-9{fill:#fff;}.cls-4{font-size:6.08px;}.cls-4,.cls-10,.cls-11,.cls-9{font-family:Montserrat-Bold, Montserrat;}.cls-12{letter-spacing:-.01em;}.cls-13,.cls-14{fill:#f99e1d;}.cls-15{fill:#e6ecf4;}.cls-16{fill:#999;}.cls-17{letter-spacing:-.05em;}.cls-18{letter-spacing:0em;}.cls-19{letter-spacing:0em;}.cls-10{fill:#727272;font-size:2.89px;}.cls-20{letter-spacing:0em;}.cls-21{filter:url(#drop-shadow-5);}.cls-11{fill:#2b2b2b;font-size:3.98px;}.cls-22{letter-spacing:0em;}.cls-23{letter-spacing:0em;}.cls-24{letter-spacing:0em;}.cls-25{letter-spacing:0em;}.cls-26{letter-spacing:0em;}.cls-27{letter-spacing:0em;}.cls-28{letter-spacing:0em;}.cls-14{filter:url(#drop-shadow-1);}.cls-6{filter:url(#drop-shadow-4);}.cls-7{filter:url(#drop-shadow-2);}.cls-8{filter:url(#drop-shadow-3);}.cls-29{letter-spacing:.02em;}.cls-9{font-size:4.65px;}.cls-30{letter-spacing:.04em;}.cls-31{letter-spacing:-.02em;}</style><filter id="drop-shadow-1" filterUnits="userSpaceOnUse"><feOffset dx="3" dy="3"/><feGaussianBlur result="blur" stdDeviation="3"/><feFlood flood-color="#000" flood-opacity=".2"/><feComposite in2="blur" operator="in"/><feComposite in="SourceGraphic"/></filter><filter id="drop-shadow-2" filterUnits="userSpaceOnUse"><feOffset dx="3" dy="3"/><feGaussianBlur result="blur-2" stdDeviation="3"/><feFlood flood-color="#000" flood-opacity=".2"/><feComposite in2="blur-2" operator="in"/><feComposite in="SourceGraphic"/></filter><filter id="drop-shadow-3" filterUnits="userSpaceOnUse"><feOffset dx="3" dy="3"/><feGaussianBlur result="blur-3" stdDeviation="3"/><feFlood flood-color="#000" flood-opacity=".2"/><feComposite in2="blur-3" operator="in"/><feComposite in="SourceGraphic"/></filter><filter id="drop-shadow-4" filterUnits="userSpaceOnUse"><feOffset dx="3" dy="3"/><feGaussianBlur result="blur-4" stdDeviation="3"/><feFlood flood-color="#000" flood-opacity=".2"/><feComposite in2="blur-4" operator="in"/><feComposite in="SourceGraphic"/></filter><filter id="drop-shadow-5" filterUnits="userSpaceOnUse"><feOffset dx="3" dy="3"/><feGaussianBlur result="blur-5" stdDeviation="3"/><feFlood flood-color="#000" flood-opacity=".2"/><feComposite in2="blur-5" operator="in"/><feComposite in="SourceGraphic"/></filter></defs><g id="OBJECTS"><rect class="cls-1" width="104.95" height="186.57" rx="3.97" ry="3.97"/><path class="cls-14" d="M72.58,140.49H31.74c-4.11,0-7.44-3.33-7.44-7.44h0c0-4.11,3.33-7.44,7.44-7.44h40.84c4.11,0,7.44,3.33,7.44,7.44h0c0,4.11-3.33,7.44-7.44,7.44Z"/><text class="cls-9" transform="translate(44.57 134.77)"><tspan x="0" y="0">Ent</tspan><tspan class="cls-18" x="8.35" y="0">r</tspan><tspan x="10.32" y="0">ar</tspan></text><text class="cls-3" transform="translate(37.7 104.57)"><tspan class="cls-22" x="0" y="0">E</tspan><tspan x="2.01" y="0">sque</tspan><tspan class="cls-25" x="9.53" y="0">c</tspan><tspan x="11.24" y="0">eu a senh</tspan><tspan class="cls-17" x="26.13" y="0">a</tspan><tspan x="27.8" y="0">?</tspan></text><text class="cls-4" transform="translate(21.5 30.8)"><tspan x="0" y="0">Bem vi</tspan><tspan class="cls-28" x="22.05" y="0">n</tspan><tspan x="26.28" y="0">do de </tspan><tspan class="cls-12" x="45.95" y="0">v</tspan><tspan x="49.5" y="0">o</tspan><tspan class="cls-30" x="53.48" y="0">l</tspan><tspan x="55.54" y="0">ta</tspan></text><rect class="cls-7" x="12.35" y="66.76" width="80.25" height="11.22" rx="4.44" ry="4.44"/><text class="cls-11" transform="translate(18.32 73.72)"><tspan x="0" y="0">No</tspan><tspan class="cls-27" x="5.83" y="0">m</tspan><tspan x="10.03" y="0">e</tspan></text><text class="cls-11" transform="translate(35.35 73.72)"><tspan class="cls-26" x="0" y="0">t</tspan><tspan x="1.75" y="0">e</tspan><tspan class="cls-19" x="4.26" y="0">r</tspan><tspan x="5.94" y="0">esa</tspan><tspan class="cls-29" x="13.03" y="0">.</tspan><tspan x="14.15" y="0">san</tspan><tspan class="cls-31" x="21.48" y="0">t</tspan><tspan x="23.14" y="0">os@gmail</tspan><tspan class="cls-24" x="43.82" y="0">.c</tspan><tspan x="47.16" y="0">om</tspan></text><rect class="cls-8" x="12.35" y="85.09" width="80.25" height="11.22" rx="4.44" ry="4.44"/><text class="cls-11" transform="translate(18.32 91.96)"><tspan x="0" y="0">Senha</tspan></text><g><path class="cls-16" d="M36.74,90.79c0,.49-.4,.89-.89,.89s-.89-.4-.89-.89,.4-.89,.89-.89,.89,.4,.89,.89Z"/><path class="cls-16" d="M40,90.79c0,.49-.4,.89-.89,.89s-.89-.4-.89-.89,.4-.89,.89-.89,.89,.4,.89,.89Z"/><path class="cls-16" d="M43.26,90.79c0,.49-.4,.89-.89,.89s-.89-.4-.89-.89,.4-.89,.89-.89,.89,.4,.89,.89Z"/><path class="cls-16" d="M46.52,90.79c0,.49-.4,.89-.89,.89s-.89-.4-.89-.89,.4-.89,.89-.89,.89,.4,.89,.89Z"/><path class="cls-16" d="M49.79,90.79c0,.49-.4,.89-.89,.89s-.89-.4-.89-.89,.4-.89,.89-.89,.89,.4,.89,.89Z"/><path class="cls-16" d="M53.05,90.79c0,.49-.4,.89-.89,.89s-.89-.4-.89-.89,.4-.89,.89-.89,.89,.4,.89,.89Z"/><path class="cls-16" d="M56.31,90.79c0,.49-.4,.89-.89,.89s-.89-.4-.89-.89,.4-.89,.89-.89,.89,.4,.89,.89Z"/><path class="cls-16" d="M59.57,90.79c0,.49-.4,.89-.89,.89s-.89-.4-.89-.89,.4-.89,.89-.89,.89,.4,.89,.89Z"/><path class="cls-16" d="M62.83,90.79c0,.49-.4,.89-.89,.89s-.89-.4-.89-.89,.4-.89,.89-.89,.89,.4,.89,.89Z"/><path class="cls-16" d="M66.09,90.79c0,.49-.4,.89-.89,.89s-.89-.4-.89-.89,.4-.89,.89-.89,.89,.4,.89,.89Z"/><path class="cls-16" d="M69.35,90.79c0,.49-.4,.89-.89,.89s-.89-.4-.89-.89,.4-.89,.89-.89,.89,.4,.89,.89Z"/></g><g><path class="cls-5" d="M11.74,29.64h0c.16-.16,.42-.16,.59,0l1.11,1.11c.16,.16,.16,.42,0,.59h0c-.16,.16-.42,.16-.59,0l-1.11-1.11c-.16-.16-.16-.42,0-.59Z"/><path class="cls-5" d="M13.44,28.52h0c.16,.16,.16,.42,0,.59l-1.11,1.11c-.16,.16-.42,.16-.59,0h0c-.16-.16-.16-.42,0-.59l1.11-1.11c.16-.16,.42-.16,.59,0Z"/></g><rect class="cls-6" x="43.06" y="38.59" width="18.63" height="18.63" rx="9.32" ry="9.32"/><path class="cls-15" d="M54.23,47.38c.62-.53,1.02-1.31,1.02-2.19,0-1.58-1.28-2.87-2.87-2.87s-2.87,1.28-2.87,2.87c0,.88,.4,1.66,1.02,2.19-.81,.45-1.36,1.32-1.36,2.31v2.9h6.41v-2.9c0-.99-.55-1.86-1.36-2.31Z"/><g><path class="cls-13" d="M61.26,54.16c0,1.03-.83,1.86-1.86,1.86s-1.86-.83-1.86-1.86,.83-1.86,1.86-1.86,1.86,.83,1.86,1.86Z"/><path class="cls-5" d="M60.66,54.16c0,.7-.56,1.26-1.26,1.26s-1.26-.56-1.26-1.26,.56-1.26,1.26-1.26,1.26,.56,1.26,1.26Z"/></g><g class="cls-21"><path class="cls-5" d="M78.17,154.47h-25.41c-2.56,0-4.63-2.07-4.63-4.63h0c0-2.56,2.07-4.63,4.63-4.63h25.41c2.56,0,4.63,2.07,4.63,4.63h0c0,2.56-2.07,4.63-4.63,4.63Z"/><path class="cls-5" d="M52.34,154.47H26.94c-2.56,0-4.63-2.07-4.63-4.63h0c0-2.56,2.07-4.63,4.63-4.63h25.41c2.56,0,4.63,2.07,4.63,4.63h0c0,2.56-2.07,4.63-4.63,4.63Z"/></g><text class="cls-10" transform="translate(37.06 150.84)"><tspan x="0" y="0">Que</tspan><tspan class="cls-20" x="6.25" y="0">r</tspan><tspan x="7.47" y="0">o </tspan><tspan class="cls-2" x="10.18" y="0">m</tspan><tspan x="13.22" y="0">e c</tspan><tspan class="cls-2" x="17.57" y="0">a</tspan><tspan x="19.37" y="0">dast</tspan><tspan class="cls-23" x="25.95" y="0">r</tspan><tspan x="27.17" y="0">ar</tspan></text></g></svg>