<?xml version="1.0" encoding="utf-8"?>
<!-- Generator: Adobe Illustrator 26.3.1, SVG Export Plug-In . SVG Version: 6.00 Build 0)  -->
<svg version="1.1" id="Layer_2_00000018199653621036556230000013025651829191039924_"
	 xmlns="http://www.w3.org/2000/svg" xmlns:xlink="http://www.w3.org/1999/xlink" x="0px" y="0px" viewBox="0 0 105.1 186.6"
	 style="enable-background:new 0 0 105.1 186.6;" xml:space="preserve">
<style type="text/css">
	.st0{fill:none;}
	.st1{fill:#F99E1D;}
	.st2{enable-background:new    ;}
	.st3{fill:#FFFFFF;}
	.st4{fill:#2B2B2B;}
	.st5{fill:#999999;}
	.st6{fill:#E6ECF4;}
	.st7{fill:#727272;}
</style>
<g id="OBJECTS">
	<g>
		<path class="st0" d="M4,0h97c2.2,0,4,1.8,4,4v178.6c0,2.2-1.8,4-4,4H4c-2.2,0-4-1.8-4-4V4C0,1.8,1.8,0,4,0z"/>
	</g>
	<g>
		<path class="st1" d="M72.6,140.5H31.7c-4.1,0-7.4-3.3-7.4-7.4l0,0c0-4.1,3.3-7.4,7.4-7.4h40.8c4.1,0,7.4,3.3,7.4,7.4l0,0
			C80,137.2,76.7,140.5,72.6,140.5z"/>
	</g>
	<g class="st2">
		<path class="st3" d="M47.5,134.2v0.6H45v-3.3h2.5v0.6h-1.7v0.7h1.5v0.6h-1.5v0.8H47.5z"/>
		<path class="st3" d="M50.6,133.3v1.4h-0.7v-1.3c0-0.4-0.2-0.6-0.5-0.6c-0.3,0-0.6,0.2-0.6,0.7v1.2H48v-2.5h0.7v0.3
			c0.2-0.2,0.5-0.3,0.8-0.3C50.1,132.2,50.6,132.6,50.6,133.3z"/>
		<path class="st3" d="M52.9,134.6c-0.1,0.1-0.4,0.2-0.6,0.2c-0.6,0-0.9-0.3-0.9-0.9v-1h-0.4v-0.6h0.4v-0.6h0.7v0.6h0.6v0.6h-0.6v1
			c0,0.2,0.1,0.3,0.3,0.3c0.1,0,0.2,0,0.3-0.1L52.9,134.6z"/>
	</g>
	<g class="st2">
		<path class="st3" d="M54.8,132.2v0.7c-0.1,0-0.1,0-0.2,0c-0.4,0-0.7,0.2-0.7,0.7v1.2h-0.7v-2.5h0.7v0.3
			C54.1,132.4,54.4,132.2,54.8,132.2z"/>
	</g>
	<g class="st2">
		<path class="st3" d="M57.4,133.3v1.4h-0.7v-0.3c-0.1,0.2-0.4,0.3-0.8,0.3c-0.6,0-0.9-0.3-0.9-0.8c0-0.4,0.3-0.8,1.1-0.8h0.6
			c0-0.3-0.2-0.5-0.6-0.5c-0.3,0-0.5,0.1-0.7,0.2l-0.3-0.5c0.3-0.2,0.7-0.3,1.1-0.3C57,132.2,57.4,132.6,57.4,133.3z M56.7,134v-0.3
			h-0.5c-0.3,0-0.4,0.1-0.4,0.3c0,0.2,0.2,0.3,0.4,0.3C56.4,134.3,56.6,134.2,56.7,134z"/>
		<path class="st3" d="M59.6,132.2v0.7c-0.1,0-0.1,0-0.2,0c-0.4,0-0.7,0.2-0.7,0.7v1.2h-0.7v-2.5h0.7v0.3
			C59,132.4,59.3,132.2,59.6,132.2z"/>
	</g>
	<g class="st2">
		<path class="st3" d="M39.6,104.3v0.3H38v-2.1h1.5v0.3h-1.2v0.7h1.1v0.3h-1.1v0.7H39.6z"/>
	</g>
	<g class="st2">
		<path class="st3" d="M39.8,104.4l0.1-0.2c0.1,0.1,0.4,0.2,0.6,0.2c0.3,0,0.4-0.1,0.4-0.2c0-0.4-1,0-1-0.7c0-0.3,0.3-0.5,0.7-0.5
			c0.2,0,0.4,0.1,0.6,0.1l-0.1,0.2c-0.1-0.1-0.3-0.1-0.5-0.1c-0.3,0-0.4,0.1-0.4,0.2c0,0.4,1,0.1,1,0.7c0,0.3-0.3,0.5-0.7,0.5
			C40.2,104.6,39.9,104.5,39.8,104.4z"/>
		<path class="st3" d="M43,103v2.2h-0.3v-0.8c-0.1,0.2-0.3,0.3-0.6,0.3c-0.5,0-0.8-0.3-0.8-0.8c0-0.5,0.3-0.8,0.8-0.8
			c0.2,0,0.4,0.1,0.6,0.3V103H43z M42.7,103.8c0-0.3-0.2-0.6-0.5-0.6c-0.3,0-0.5,0.2-0.5,0.6c0,0.3,0.2,0.6,0.5,0.6
			C42.5,104.3,42.7,104.1,42.7,103.8z"/>
		<path class="st3" d="M45.1,103v1.6h-0.3v-0.2c-0.1,0.2-0.3,0.3-0.5,0.3c-0.4,0-0.7-0.2-0.7-0.7V103h0.3v0.9c0,0.3,0.2,0.5,0.4,0.5
			c0.3,0,0.5-0.2,0.5-0.5V103H45.1z"/>
		<path class="st3" d="M47.1,103.9h-1.3c0,0.3,0.3,0.5,0.6,0.5c0.2,0,0.3-0.1,0.5-0.2l0.2,0.2c-0.1,0.2-0.4,0.3-0.6,0.3
			c-0.5,0-0.9-0.3-0.9-0.8c0-0.5,0.3-0.8,0.8-0.8C46.8,102.9,47.1,103.3,47.1,103.9C47.1,103.8,47.1,103.8,47.1,103.9z M45.8,103.7
			h1c0-0.3-0.2-0.5-0.5-0.5C46,103.2,45.8,103.4,45.8,103.7z"/>
	</g>
	<g class="st2">
		<path class="st3" d="M47.4,103.8c0-0.5,0.4-0.8,0.9-0.8c0.3,0,0.5,0.1,0.7,0.3l-0.2,0.1c-0.1-0.2-0.3-0.2-0.4-0.2
			c-0.3,0-0.6,0.2-0.6,0.6c0,0.3,0.2,0.6,0.6,0.6c0.2,0,0.3-0.1,0.4-0.2l0.2,0.1c-0.1,0.2-0.4,0.3-0.7,0.3
			C47.7,104.6,47.4,104.2,47.4,103.8z"/>
	</g>
	<g class="st2">
		<path class="st3" d="M50.7,103.9h-1.3c0,0.3,0.3,0.5,0.6,0.5c0.2,0,0.3-0.1,0.5-0.2l0.2,0.2c-0.1,0.2-0.4,0.3-0.6,0.3
			c-0.5,0-0.9-0.3-0.9-0.8c0-0.5,0.3-0.8,0.8-0.8C50.3,102.9,50.7,103.3,50.7,103.9C50.7,103.8,50.7,103.8,50.7,103.9z M49.4,103.7
			h1c0-0.3-0.2-0.5-0.5-0.5C49.6,103.2,49.4,103.4,49.4,103.7z"/>
		<path class="st3" d="M52.6,103v1.6h-0.3v-0.2c-0.1,0.2-0.3,0.3-0.5,0.3c-0.4,0-0.7-0.2-0.7-0.7V103h0.3v0.9c0,0.3,0.2,0.5,0.4,0.5
			c0.3,0,0.5-0.2,0.5-0.5V103H52.6z"/>
		<path class="st3" d="M55.2,103.6v1H55v-0.2c-0.1,0.1-0.3,0.2-0.5,0.2c-0.4,0-0.6-0.2-0.6-0.5c0-0.3,0.2-0.5,0.6-0.5h0.5v-0.1
			c0-0.2-0.1-0.4-0.4-0.4c-0.2,0-0.4,0.1-0.5,0.2l-0.1-0.2c0.2-0.1,0.4-0.2,0.7-0.2C55,102.9,55.2,103.2,55.2,103.6z M54.9,104.1
			v-0.2h-0.4c-0.3,0-0.4,0.1-0.4,0.2c0,0.2,0.1,0.3,0.4,0.3C54.7,104.4,54.9,104.3,54.9,104.1z"/>
		<path class="st3" d="M56.4,104.4l0.1-0.2c0.1,0.1,0.4,0.2,0.6,0.2c0.3,0,0.4-0.1,0.4-0.2c0-0.4-1,0-1-0.7c0-0.3,0.3-0.5,0.7-0.5
			c0.2,0,0.4,0.1,0.6,0.1l-0.1,0.2c-0.1-0.1-0.3-0.1-0.5-0.1c-0.3,0-0.4,0.1-0.4,0.2c0,0.4,1,0.1,1,0.7c0,0.3-0.3,0.5-0.7,0.5
			C56.8,104.6,56.5,104.5,56.4,104.4z"/>
		<path class="st3" d="M59.6,103.9h-1.3c0,0.3,0.3,0.5,0.6,0.5c0.2,0,0.3-0.1,0.5-0.2l0.2,0.2c-0.1,0.2-0.4,0.3-0.6,0.3
			c-0.5,0-0.9-0.3-0.9-0.8c0-0.5,0.3-0.8,0.8-0.8S59.6,103.3,59.6,103.9C59.6,103.8,59.6,103.8,59.6,103.9z M58.3,103.7h1
			c0-0.3-0.2-0.5-0.5-0.5C58.5,103.2,58.3,103.4,58.3,103.7z"/>
		<path class="st3" d="M61.5,103.6v0.9h-0.3v-0.9c0-0.3-0.2-0.5-0.4-0.5c-0.3,0-0.5,0.2-0.5,0.5v0.8H60V103h0.3v0.2
			c0.1-0.2,0.3-0.3,0.6-0.3C61.2,102.9,61.5,103.2,61.5,103.6z"/>
		<path class="st3" d="M63.6,103.6v0.9h-0.3v-0.9c0-0.3-0.2-0.5-0.4-0.5c-0.3,0-0.5,0.2-0.5,0.5v0.8H62v-2.3h0.3v0.9
			c0.1-0.2,0.3-0.2,0.6-0.2C63.3,102.9,63.6,103.2,63.6,103.6z"/>
	</g>
	<g class="st2">
		<path class="st3" d="M65.4,103.6v1h-0.3v-0.2c-0.1,0.1-0.3,0.2-0.5,0.2c-0.4,0-0.6-0.2-0.6-0.5c0-0.3,0.2-0.5,0.6-0.5h0.5v-0.1
			c0-0.2-0.1-0.4-0.4-0.4c-0.2,0-0.4,0.1-0.5,0.2l-0.1-0.2c0.2-0.1,0.4-0.2,0.7-0.2C65.1,102.9,65.4,103.2,65.4,103.6z M65.1,104.1
			v-0.2h-0.4c-0.3,0-0.4,0.1-0.4,0.2c0,0.2,0.1,0.3,0.4,0.3C64.8,104.4,65,104.3,65.1,104.1z"/>
	</g>
	<g class="st2">
		<path class="st3" d="M66.7,103c0-0.2-0.2-0.3-0.4-0.3c-0.2,0-0.4,0.1-0.5,0.2l-0.2-0.2c0.2-0.2,0.4-0.3,0.8-0.3
			c0.4,0,0.7,0.2,0.7,0.5c0,0.5-0.5,0.5-0.5,0.9h-0.3C66.2,103.4,66.7,103.4,66.7,103z M66.2,104.4c0-0.1,0.1-0.2,0.2-0.2
			c0.1,0,0.2,0.1,0.2,0.2c0,0.1-0.1,0.2-0.2,0.2C66.2,104.6,66.2,104.5,66.2,104.4z"/>
	</g>
	<g class="st2">
		<path class="st3" d="M25.9,29.6c0,0.7-0.6,1.2-1.7,1.2H22v-4.3h2.1c1.1,0,1.6,0.4,1.6,1.1c0,0.4-0.2,0.8-0.6,0.9
			C25.6,28.7,25.9,29.1,25.9,29.6z M23,27.3v1h1c0.5,0,0.7-0.2,0.7-0.5c0-0.3-0.3-0.5-0.7-0.5H23z M24.9,29.5c0-0.4-0.3-0.5-0.8-0.5
			H23v1.1h1.1C24.6,30.1,24.9,29.9,24.9,29.5z"/>
		<path class="st3" d="M29.8,29.4h-2.5c0.1,0.4,0.4,0.7,0.9,0.7c0.3,0,0.6-0.1,0.8-0.3l0.5,0.5c-0.3,0.3-0.8,0.5-1.3,0.5
			c-1.1,0-1.9-0.7-1.9-1.7c0-1,0.7-1.7,1.7-1.7c1,0,1.7,0.6,1.7,1.7C29.8,29.3,29.8,29.4,29.8,29.4z M27.3,28.9h1.6
			c-0.1-0.4-0.4-0.7-0.8-0.7C27.7,28.2,27.4,28.5,27.3,28.9z"/>
		<path class="st3" d="M35.9,28.9v1.9H35v-1.7c0-0.5-0.2-0.8-0.6-0.8c-0.4,0-0.7,0.3-0.7,0.9v1.6h-0.9v-1.7c0-0.5-0.2-0.8-0.6-0.8
			c-0.4,0-0.7,0.3-0.7,0.9v1.6h-0.9v-3.3h0.9v0.4c0.2-0.3,0.6-0.4,1-0.4c0.5,0,0.8,0.2,1.1,0.5c0.3-0.3,0.7-0.5,1.2-0.5
			C35.4,27.5,35.9,27.9,35.9,28.9z"/>
		<path class="st3" d="M41.8,27.5l-1.4,3.3h-1L38,27.5h1l0.9,2.2l0.9-2.2H41.8z"/>
		<path class="st3" d="M42,26.5c0-0.3,0.2-0.5,0.6-0.5c0.4,0,0.6,0.2,0.6,0.5c0,0.3-0.2,0.5-0.6,0.5C42.3,27.1,42,26.8,42,26.5z
			 M42.2,27.5h0.9v3.3h-0.9V27.5z"/>
	</g>
	<g class="st2">
		<path class="st3" d="M47.3,28.9v1.9h-0.9v-1.7c0-0.5-0.2-0.8-0.7-0.8c-0.5,0-0.8,0.3-0.8,0.9v1.6H44v-3.3h0.9v0.4
			c0.3-0.3,0.6-0.4,1.1-0.4C46.7,27.5,47.3,27.9,47.3,28.9z"/>
	</g>
	<g class="st2">
		<path class="st3" d="M51.5,26.3v4.5h-0.9v-0.4c-0.2,0.3-0.6,0.4-1,0.4c-0.9,0-1.6-0.7-1.6-1.7s0.7-1.7,1.6-1.7
			c0.4,0,0.7,0.1,1,0.4v-1.6H51.5z M50.6,29.2c0-0.6-0.4-0.9-0.8-0.9c-0.5,0-0.8,0.3-0.8,0.9c0,0.6,0.4,0.9,0.8,0.9
			C50.3,30.1,50.6,29.7,50.6,29.2z"/>
		<path class="st3" d="M52.2,29.2c0-1,0.8-1.7,1.8-1.7c1,0,1.8,0.7,1.8,1.7c0,1-0.8,1.7-1.8,1.7C52.9,30.8,52.2,30.2,52.2,29.2z
			 M54.8,29.2c0-0.6-0.4-0.9-0.8-0.9c-0.5,0-0.8,0.3-0.8,0.9c0,0.6,0.4,0.9,0.8,0.9C54.5,30.1,54.8,29.7,54.8,29.2z"/>
		<path class="st3" d="M61.5,26.3v4.5h-0.9v-0.4c-0.2,0.3-0.6,0.4-1,0.4c-0.9,0-1.6-0.7-1.6-1.7s0.7-1.7,1.6-1.7
			c0.4,0,0.7,0.1,1,0.4v-1.6H61.5z M60.5,29.2c0-0.6-0.4-0.9-0.8-0.9c-0.5,0-0.8,0.3-0.8,0.9c0,0.6,0.4,0.9,0.8,0.9
			C60.2,30.1,60.5,29.7,60.5,29.2z"/>
		<path class="st3" d="M65.5,29.4H63c0.1,0.4,0.4,0.7,0.9,0.7c0.3,0,0.6-0.1,0.8-0.3l0.5,0.5c-0.3,0.3-0.8,0.5-1.3,0.5
			c-1.1,0-1.9-0.7-1.9-1.7c0-1,0.7-1.7,1.7-1.7c1,0,1.7,0.6,1.7,1.7C65.5,29.3,65.5,29.4,65.5,29.4z M63,28.9h1.6
			c-0.1-0.4-0.4-0.7-0.8-0.7C63.4,28.2,63.1,28.5,63,28.9z"/>
	</g>
	<g class="st2">
		<path class="st3" d="M71.1,27.5l-1.4,3.3h-1l-1.4-3.3h1l0.9,2.2l0.9-2.2H71.1z"/>
	</g>
	<g class="st2">
		<path class="st3" d="M71.2,29.2c0-1,0.8-1.7,1.8-1.7c1,0,1.8,0.7,1.8,1.7c0,1-0.8,1.7-1.8,1.7C72,30.8,71.2,30.2,71.2,29.2z
			 M73.8,29.2c0-0.6-0.4-0.9-0.8-0.9c-0.5,0-0.8,0.3-0.8,0.9c0,0.6,0.4,0.9,0.8,0.9C73.5,30.1,73.8,29.7,73.8,29.2z"/>
	</g>
	<g class="st2">
		<path class="st3" d="M75.4,26.3h0.9v4.5h-0.9V26.3z"/>
	</g>
	<g class="st2">
		<path class="st3" d="M79.6,30.6c-0.2,0.1-0.5,0.2-0.8,0.2c-0.8,0-1.2-0.4-1.2-1.2v-1.3h-0.5v-0.7h0.5v-0.8h0.9v0.8h0.8v0.7h-0.8
			v1.3c0,0.3,0.2,0.4,0.4,0.4c0.1,0,0.3,0,0.4-0.1L79.6,30.6z"/>
		<path class="st3" d="M83,28.9v1.9h-0.9v-0.4c-0.2,0.3-0.5,0.5-1,0.5c-0.8,0-1.2-0.4-1.2-1c0-0.6,0.4-1,1.4-1h0.8
			c0-0.4-0.2-0.6-0.8-0.6c-0.3,0-0.7,0.1-0.9,0.3L80,27.9c0.4-0.3,0.9-0.4,1.4-0.4C82.4,27.5,83,27.9,83,28.9z M82.1,29.8v-0.3h-0.7
			c-0.4,0-0.6,0.2-0.6,0.4c0,0.2,0.2,0.4,0.5,0.4C81.7,30.2,82,30.1,82.1,29.8z"/>
	</g>
	<g>
		<path class="st3" d="M16.8,66.8h71.4c2.5,0,4.4,2,4.4,4.4v2.3c0,2.5-2,4.4-4.4,4.4H16.8c-2.5,0-4.4-2-4.4-4.4v-2.3
			C12.4,68.7,14.3,66.8,16.8,66.8z"/>
	</g>
	<g class="st2">
		<path class="st4" d="M21.2,70.9v2.8h-0.5L19.3,72v1.7h-0.6v-2.8h0.5l1.4,1.7v-1.7H21.2z"/>
		<path class="st4" d="M21.7,72.6c0-0.6,0.5-1.1,1.2-1.1c0.7,0,1.2,0.5,1.2,1.1s-0.5,1.1-1.2,1.1C22.2,73.8,21.7,73.3,21.7,72.6z
			 M23.4,72.6c0-0.4-0.2-0.6-0.5-0.6s-0.5,0.2-0.5,0.6s0.2,0.6,0.5,0.6S23.4,73,23.4,72.6z"/>
	</g>
	<g class="st2">
		<path class="st4" d="M28.1,72.5v1.2h-0.6v-1.1c0-0.3-0.2-0.5-0.4-0.5c-0.3,0-0.5,0.2-0.5,0.6v1.1h-0.6v-1.1c0-0.3-0.1-0.5-0.4-0.5
			c-0.3,0-0.5,0.2-0.5,0.6v1.1h-0.6v-2.1H25v0.2c0.2-0.2,0.4-0.3,0.7-0.3c0.3,0,0.6,0.1,0.7,0.4c0.2-0.2,0.4-0.4,0.8-0.4
			C27.7,71.5,28.1,71.8,28.1,72.5z"/>
	</g>
	<g class="st2">
		<path class="st4" d="M30.7,72.8h-1.6c0.1,0.3,0.3,0.4,0.6,0.4c0.2,0,0.4-0.1,0.5-0.2l0.3,0.4c-0.2,0.2-0.5,0.3-0.9,0.3
			c-0.7,0-1.2-0.5-1.2-1.1c0-0.6,0.5-1.1,1.1-1.1c0.6,0,1.1,0.4,1.1,1.1C30.7,72.7,30.7,72.8,30.7,72.8z M29.1,72.5h1.1
			c0-0.3-0.2-0.4-0.5-0.4C29.3,72,29.1,72.2,29.1,72.5z"/>
	</g>
	<g class="st2">
		<path class="st4" d="M37,73.6c-0.1,0.1-0.3,0.1-0.5,0.1c-0.5,0-0.8-0.3-0.8-0.8v-0.9h-0.3v-0.5h0.3v-0.5h0.6v0.5h0.5v0.5h-0.5V73
			c0,0.2,0.1,0.3,0.3,0.3c0.1,0,0.2,0,0.3-0.1L37,73.6z"/>
	</g>
	<g class="st2">
		<path class="st4" d="M39.5,72.8h-1.6c0.1,0.3,0.3,0.4,0.6,0.4c0.2,0,0.4-0.1,0.5-0.2l0.3,0.4c-0.2,0.2-0.5,0.3-0.9,0.3
			c-0.7,0-1.2-0.5-1.2-1.1c0-0.6,0.5-1.1,1.1-1.1c0.6,0,1.1,0.4,1.1,1.1C39.5,72.7,39.5,72.8,39.5,72.8z M37.8,72.5h1.1
			c0-0.3-0.2-0.4-0.5-0.4C38.1,72,37.9,72.2,37.8,72.5z"/>
	</g>
	<g class="st2">
		<path class="st4" d="M41.2,71.5v0.6c-0.1,0-0.1,0-0.1,0c-0.3,0-0.6,0.2-0.6,0.6v1h-0.6v-2.1h0.6v0.3
			C40.6,71.7,40.9,71.5,41.2,71.5z"/>
	</g>
	<g class="st2">
		<path class="st4" d="M43.7,72.8H42c0.1,0.3,0.3,0.4,0.6,0.4c0.2,0,0.4-0.1,0.5-0.2l0.3,0.4c-0.2,0.2-0.5,0.3-0.9,0.3
			c-0.7,0-1.2-0.5-1.2-1.1c0-0.6,0.5-1.1,1.1-1.1c0.6,0,1.1,0.4,1.1,1.1C43.7,72.7,43.7,72.8,43.7,72.8z M42,72.5h1.1
			c0-0.3-0.2-0.4-0.5-0.4C42.3,72,42.1,72.2,42,72.5z"/>
		<path class="st4" d="M43.9,73.5l0.2-0.4c0.2,0.1,0.5,0.2,0.7,0.2c0.3,0,0.4-0.1,0.4-0.2c0-0.4-1.3,0-1.3-0.8c0-0.4,0.4-0.7,1-0.7
			c0.3,0,0.6,0.1,0.8,0.2l-0.2,0.4c-0.2-0.1-0.4-0.2-0.6-0.2c-0.3,0-0.4,0.1-0.4,0.2c0,0.4,1.3,0,1.3,0.9c0,0.4-0.4,0.7-1,0.7
			C44.4,73.8,44.1,73.7,43.9,73.5z"/>
		<path class="st4" d="M48.1,72.5v1.2h-0.6v-0.3c-0.1,0.2-0.3,0.3-0.7,0.3c-0.5,0-0.8-0.3-0.8-0.6c0-0.4,0.3-0.6,0.9-0.6h0.5
			c0-0.3-0.2-0.4-0.5-0.4c-0.2,0-0.5,0.1-0.6,0.2l-0.2-0.4c0.2-0.2,0.6-0.3,0.9-0.3C47.7,71.5,48.1,71.8,48.1,72.5z M47.5,73v-0.2
			H47c-0.3,0-0.4,0.1-0.4,0.3c0,0.2,0.1,0.3,0.4,0.3C47.2,73.3,47.4,73.2,47.5,73z"/>
	</g>
	<g class="st2">
		<path class="st4" d="M48.5,73.4c0-0.2,0.2-0.4,0.4-0.4c0.2,0,0.4,0.2,0.4,0.4c0,0.2-0.2,0.4-0.4,0.4
			C48.7,73.8,48.5,73.6,48.5,73.4z"/>
	</g>
	<g class="st2">
		<path class="st4" d="M49.6,73.5l0.2-0.4c0.2,0.1,0.5,0.2,0.7,0.2c0.3,0,0.4-0.1,0.4-0.2c0-0.4-1.3,0-1.3-0.8c0-0.4,0.4-0.7,1-0.7
			c0.3,0,0.6,0.1,0.8,0.2l-0.2,0.4C51,72.1,50.8,72,50.6,72c-0.3,0-0.4,0.1-0.4,0.2c0,0.4,1.3,0,1.3,0.9c0,0.4-0.4,0.7-1,0.7
			C50.1,73.8,49.8,73.7,49.6,73.5z"/>
		<path class="st4" d="M53.8,72.5v1.2h-0.6v-0.3c-0.1,0.2-0.3,0.3-0.7,0.3c-0.5,0-0.8-0.3-0.8-0.6c0-0.4,0.3-0.6,0.9-0.6h0.5
			c0-0.3-0.2-0.4-0.5-0.4c-0.2,0-0.5,0.1-0.6,0.2l-0.2-0.4c0.2-0.2,0.6-0.3,0.9-0.3C53.4,71.5,53.8,71.8,53.8,72.5z M53.2,73v-0.2
			h-0.4c-0.3,0-0.4,0.1-0.4,0.3c0,0.2,0.1,0.3,0.4,0.3C52.9,73.3,53.1,73.2,53.2,73z"/>
		<path class="st4" d="M56.5,72.5v1.2h-0.6v-1.1c0-0.3-0.2-0.5-0.4-0.5c-0.3,0-0.5,0.2-0.5,0.6v1.1h-0.6v-2.1h0.6v0.3
			c0.2-0.2,0.4-0.3,0.7-0.3C56.2,71.5,56.5,71.8,56.5,72.5z"/>
	</g>
	<g class="st2">
		<path class="st4" d="M58.5,73.6c-0.1,0.1-0.3,0.1-0.5,0.1c-0.5,0-0.8-0.3-0.8-0.8v-0.9h-0.3v-0.5h0.3v-0.5h0.6v0.5h0.5v0.5h-0.5
			V73c0,0.2,0.1,0.3,0.3,0.3c0.1,0,0.2,0,0.3-0.1L58.5,73.6z"/>
	</g>
	<g class="st2">
		<path class="st4" d="M58.6,72.6c0-0.6,0.5-1.1,1.2-1.1c0.7,0,1.2,0.5,1.2,1.1s-0.5,1.1-1.2,1.1C59.1,73.8,58.6,73.3,58.6,72.6z
			 M60.3,72.6c0-0.4-0.2-0.6-0.5-0.6s-0.5,0.2-0.5,0.6s0.2,0.6,0.5,0.6S60.3,73,60.3,72.6z"/>
		<path class="st4" d="M61.2,73.5l0.2-0.4c0.2,0.1,0.5,0.2,0.7,0.2c0.3,0,0.4-0.1,0.4-0.2c0-0.4-1.3,0-1.3-0.8c0-0.4,0.4-0.7,1-0.7
			c0.3,0,0.6,0.1,0.8,0.2l-0.2,0.4c-0.2-0.1-0.4-0.2-0.6-0.2c-0.3,0-0.4,0.1-0.4,0.2c0,0.4,1.3,0,1.3,0.9c0,0.4-0.4,0.7-1,0.7
			C61.7,73.8,61.4,73.7,61.2,73.5z"/>
		<path class="st4" d="M67.2,72.6c0,0.7-0.3,1.1-0.8,1.1c-0.3,0-0.5-0.1-0.5-0.3c-0.1,0.2-0.4,0.3-0.7,0.3c-0.5,0-0.9-0.4-0.9-1
			c0-0.6,0.4-1,0.9-1c0.3,0,0.5,0.1,0.6,0.3v-0.2h0.5v1.3c0,0.2,0.1,0.3,0.2,0.3c0.2,0,0.3-0.2,0.3-0.7c0-0.8-0.6-1.4-1.5-1.4
			c-0.9,0-1.5,0.6-1.5,1.4c0,0.8,0.6,1.5,1.5,1.5c0.3,0,0.5-0.1,0.8-0.2l0.1,0.4c-0.2,0.1-0.6,0.2-0.9,0.2c-1.2,0-1.9-0.8-1.9-1.8
			c0-1,0.8-1.8,1.9-1.8C66.4,70.9,67.2,71.6,67.2,72.6z M65.8,72.7c0-0.3-0.2-0.5-0.5-0.5c-0.3,0-0.5,0.2-0.5,0.5
			c0,0.3,0.2,0.5,0.5,0.5C65.5,73.3,65.8,73.1,65.8,72.7z"/>
		<path class="st4" d="M69.8,71.6v1.8c0,0.8-0.4,1.2-1.2,1.2c-0.4,0-0.8-0.1-1.1-0.3l0.2-0.4c0.2,0.1,0.5,0.2,0.8,0.2
			c0.4,0,0.6-0.2,0.6-0.6v-0.1c-0.2,0.2-0.4,0.3-0.7,0.3c-0.6,0-1.1-0.4-1.1-1c0-0.6,0.5-1,1.1-1c0.3,0,0.5,0.1,0.7,0.3v-0.3H69.8z
			 M69.2,72.6c0-0.3-0.2-0.5-0.6-0.5c-0.3,0-0.6,0.2-0.6,0.5c0,0.3,0.2,0.5,0.6,0.5C69,73.1,69.2,72.9,69.2,72.6z"/>
		<path class="st4" d="M74,72.5v1.2h-0.6v-1.1c0-0.3-0.2-0.5-0.4-0.5c-0.3,0-0.5,0.2-0.5,0.6v1.1h-0.6v-1.1c0-0.3-0.1-0.5-0.4-0.5
			c-0.3,0-0.5,0.2-0.5,0.6v1.1h-0.6v-2.1H71v0.2c0.2-0.2,0.4-0.3,0.7-0.3c0.3,0,0.6,0.1,0.7,0.4c0.2-0.2,0.4-0.4,0.8-0.4
			C73.7,71.5,74,71.8,74,72.5z"/>
		<path class="st4" d="M76.5,72.5v1.2h-0.6v-0.3c-0.1,0.2-0.3,0.3-0.7,0.3c-0.5,0-0.8-0.3-0.8-0.6c0-0.4,0.3-0.6,0.9-0.6h0.5
			c0-0.3-0.2-0.4-0.5-0.4c-0.2,0-0.5,0.1-0.6,0.2l-0.2-0.4c0.2-0.2,0.6-0.3,0.9-0.3C76.1,71.5,76.5,71.8,76.5,72.5z M75.9,73v-0.2
			h-0.4c-0.3,0-0.4,0.1-0.4,0.3c0,0.2,0.1,0.3,0.4,0.3C75.6,73.3,75.8,73.2,75.9,73z"/>
		<path class="st4" d="M77,70.9c0-0.2,0.2-0.3,0.4-0.3c0.2,0,0.4,0.1,0.4,0.3c0,0.2-0.2,0.4-0.4,0.4C77.1,71.3,77,71.1,77,70.9z
			 M77,71.6h0.6v2.1H77V71.6z"/>
		<path class="st4" d="M78.2,70.8h0.6v3h-0.6V70.8z"/>
	</g>
	<g class="st2">
		<path class="st4" d="M79.3,73.4c0-0.2,0.2-0.4,0.4-0.4c0.2,0,0.4,0.2,0.4,0.4c0,0.2-0.2,0.4-0.4,0.4
			C79.5,73.8,79.3,73.6,79.3,73.4z"/>
		<path class="st4" d="M80.3,72.6c0-0.6,0.5-1.1,1.2-1.1c0.5,0,0.8,0.2,1,0.5L82,72.3c-0.1-0.2-0.3-0.3-0.5-0.3
			c-0.3,0-0.6,0.2-0.6,0.6s0.2,0.6,0.6,0.6c0.2,0,0.4-0.1,0.5-0.3l0.5,0.3c-0.2,0.3-0.5,0.5-1,0.5C80.8,73.8,80.3,73.3,80.3,72.6z"
			/>
	</g>
	<g class="st2">
		<path class="st4" d="M82.6,72.6c0-0.6,0.5-1.1,1.2-1.1S85,72,85,72.6s-0.5,1.1-1.2,1.1S82.6,73.3,82.6,72.6z M84.4,72.6
			c0-0.4-0.2-0.6-0.5-0.6s-0.5,0.2-0.5,0.6s0.2,0.6,0.5,0.6S84.4,73,84.4,72.6z"/>
		<path class="st4" d="M89,72.5v1.2h-0.6v-1.1c0-0.3-0.2-0.5-0.4-0.5c-0.3,0-0.5,0.2-0.5,0.6v1.1h-0.6v-1.1c0-0.3-0.1-0.5-0.4-0.5
			c-0.3,0-0.5,0.2-0.5,0.6v1.1h-0.6v-2.1H86v0.2c0.2-0.2,0.4-0.3,0.7-0.3c0.3,0,0.6,0.1,0.7,0.4c0.2-0.2,0.5-0.4,0.8-0.4
			C88.7,71.5,89,71.8,89,72.5z"/>
	</g>
	<g>
		<path class="st3" d="M16.8,85.1h71.4c2.5,0,4.4,2,4.4,4.4v2.3c0,2.5-2,4.4-4.4,4.4H16.8c-2.5,0-4.4-2-4.4-4.4v-2.3
			C12.4,87.1,14.3,85.1,16.8,85.1z"/>
	</g>
	<g class="st2">
		<path class="st4" d="M18.4,91.7l0.2-0.5c0.2,0.2,0.6,0.3,0.9,0.3c0.4,0,0.5-0.1,0.5-0.3c0-0.5-1.6-0.2-1.6-1.2
			c0-0.5,0.4-0.9,1.2-0.9c0.4,0,0.7,0.1,1,0.2l-0.2,0.5c-0.3-0.1-0.5-0.2-0.8-0.2c-0.4,0-0.5,0.1-0.5,0.3c0,0.5,1.6,0.2,1.6,1.2
			c0,0.5-0.4,0.9-1.2,0.9C19.1,92,18.7,91.9,18.4,91.7z"/>
		<path class="st4" d="M23.2,91.1h-1.6c0.1,0.3,0.3,0.4,0.6,0.4c0.2,0,0.4-0.1,0.5-0.2l0.3,0.4c-0.2,0.2-0.5,0.3-0.9,0.3
			c-0.7,0-1.2-0.5-1.2-1.1c0-0.6,0.5-1.1,1.1-1.1c0.6,0,1.1,0.4,1.1,1.1C23.2,90.9,23.2,91,23.2,91.1z M21.6,90.7h1.1
			c0-0.3-0.2-0.4-0.5-0.4C21.9,90.3,21.6,90.4,21.6,90.7z"/>
		<path class="st4" d="M25.8,90.7V92h-0.6v-1.1c0-0.3-0.2-0.5-0.4-0.5c-0.3,0-0.5,0.2-0.5,0.6V92h-0.6v-2.1h0.6v0.3
			c0.2-0.2,0.4-0.3,0.7-0.3C25.5,89.8,25.8,90.1,25.8,90.7z"/>
		<path class="st4" d="M28.6,90.7V92H28v-1.1c0-0.3-0.2-0.5-0.4-0.5c-0.3,0-0.5,0.2-0.5,0.6V92h-0.6v-3H27v1
			c0.2-0.2,0.4-0.3,0.7-0.3C28.2,89.8,28.6,90.1,28.6,90.7z"/>
		<path class="st4" d="M31.1,90.7V92h-0.6v-0.3c-0.1,0.2-0.3,0.3-0.7,0.3c-0.5,0-0.8-0.3-0.8-0.6c0-0.4,0.3-0.6,0.9-0.6h0.5
			c0-0.3-0.2-0.4-0.5-0.4c-0.2,0-0.5,0.1-0.6,0.2L29.1,90c0.2-0.2,0.6-0.3,0.9-0.3C30.7,89.8,31.1,90.1,31.1,90.7z M30.4,91.3v-0.2
			H30c-0.3,0-0.4,0.1-0.4,0.3c0,0.2,0.1,0.3,0.4,0.3C30.2,91.6,30.4,91.5,30.4,91.3z"/>
	</g>
	<g>
		<g>
			<path class="st5" d="M36.7,90.8c0,0.5-0.4,0.9-0.9,0.9S35,91.3,35,90.8s0.4-0.9,0.9-0.9S36.7,90.3,36.7,90.8z"/>
		</g>
		<g>
			<path class="st5" d="M40,90.8c0,0.5-0.4,0.9-0.9,0.9s-0.9-0.4-0.9-0.9s0.4-0.9,0.9-0.9S40,90.3,40,90.8z"/>
		</g>
		<g>
			<path class="st5" d="M43.3,90.8c0,0.5-0.4,0.9-0.9,0.9s-0.9-0.4-0.9-0.9s0.4-0.9,0.9-0.9S43.3,90.3,43.3,90.8z"/>
		</g>
		<g>
			<path class="st5" d="M46.5,90.8c0,0.5-0.4,0.9-0.9,0.9s-0.9-0.4-0.9-0.9s0.4-0.9,0.9-0.9S46.5,90.3,46.5,90.8z"/>
		</g>
		<g>
			<path class="st5" d="M49.8,90.8c0,0.5-0.4,0.9-0.9,0.9S48,91.3,48,90.8s0.4-0.9,0.9-0.9S49.8,90.3,49.8,90.8z"/>
		</g>
		<g>
			<path class="st5" d="M53,90.8c0,0.5-0.4,0.9-0.9,0.9s-0.9-0.4-0.9-0.9s0.4-0.9,0.9-0.9S53,90.3,53,90.8z"/>
		</g>
		<g>
			<path class="st5" d="M56.3,90.8c0,0.5-0.4,0.9-0.9,0.9s-0.9-0.4-0.9-0.9s0.4-0.9,0.9-0.9S56.3,90.3,56.3,90.8z"/>
		</g>
		<g>
			<path class="st5" d="M59.6,90.8c0,0.5-0.4,0.9-0.9,0.9s-0.9-0.4-0.9-0.9s0.4-0.9,0.9-0.9S59.6,90.3,59.6,90.8z"/>
		</g>
		<g>
			<path class="st5" d="M62.8,90.8c0,0.5-0.4,0.9-0.9,0.9s-0.9-0.4-0.9-0.9s0.4-0.9,0.9-0.9S62.8,90.3,62.8,90.8z"/>
		</g>
		<g>
			<path class="st5" d="M66.1,90.8c0,0.5-0.4,0.9-0.9,0.9s-0.9-0.4-0.9-0.9s0.4-0.9,0.9-0.9S66.1,90.3,66.1,90.8z"/>
		</g>
		<g>
			<path class="st5" d="M69.3,90.8c0,0.5-0.4,0.9-0.9,0.9s-0.9-0.4-0.9-0.9s0.4-0.9,0.9-0.9S69.3,90.3,69.3,90.8z"/>
		</g>
	</g>
	<g>
		<g>
			<path class="st3" d="M11.7,29.6L11.7,29.6c0.2-0.2,0.4-0.2,0.6,0l1.1,1.1c0.2,0.2,0.2,0.4,0,0.6l0,0c-0.2,0.2-0.4,0.2-0.6,0
				l-1.1-1.1C11.6,30.1,11.6,29.8,11.7,29.6z"/>
		</g>
		<g>
			<path class="st3" d="M13.4,28.5L13.4,28.5c0.2,0.2,0.2,0.4,0,0.6l-1.1,1.1c-0.2,0.2-0.4,0.2-0.6,0l0,0c-0.2-0.2-0.2-0.4,0-0.6
				l1.1-1.1C13,28.4,13.3,28.4,13.4,28.5z"/>
		</g>
	</g>
	<g>
		<path class="st3" d="M52.4,38.6L52.4,38.6c5.1,0,9.3,4.2,9.3,9.3v0c0,5.1-4.2,9.3-9.3,9.3h0c-5.1,0-9.3-4.2-9.3-9.3v0
			C43.1,42.8,47.2,38.6,52.4,38.6z"/>
	</g>
	<g>
		<path class="st6" d="M54.2,47.4c0.6-0.5,1-1.3,1-2.2c0-1.6-1.3-2.9-2.9-2.9s-2.9,1.3-2.9,2.9c0,0.9,0.4,1.7,1,2.2
			c-0.8,0.5-1.4,1.3-1.4,2.3v2.9h6.4v-2.9C55.6,48.7,55,47.8,54.2,47.4L54.2,47.4z"/>
	</g>
	<g>
		<g>
			<path class="st1" d="M61.3,54.2c0,1-0.8,1.9-1.9,1.9s-1.9-0.8-1.9-1.9s0.8-1.9,1.9-1.9S61.3,53.1,61.3,54.2z"/>
		</g>
		<g>
			<path class="st3" d="M60.7,54.2c0,0.7-0.6,1.3-1.3,1.3s-1.3-0.6-1.3-1.3s0.6-1.3,1.3-1.3S60.7,53.5,60.7,54.2z"/>
		</g>
	</g>
	<g>
		<g>
			<path class="st3" d="M78.2,154.5H52.8c-2.6,0-4.6-2.1-4.6-4.6l0,0c0-2.6,2.1-4.6,4.6-4.6h25.4c2.6,0,4.6,2.1,4.6,4.6l0,0
				C82.8,152.4,80.7,154.5,78.2,154.5z"/>
		</g>
		<g>
			<path class="st3" d="M52.3,154.5H26.9c-2.6,0-4.6-2.1-4.6-4.6l0,0c0-2.6,2.1-4.6,4.6-4.6h25.4c2.6,0,4.6,2.1,4.6,4.6l0,0
				C57,152.4,54.9,154.5,52.3,154.5L52.3,154.5z"/>
		</g>
	</g>
	<g class="st2">
		<path class="st7" d="M39.5,151.1c-0.1,0.2-0.3,0.2-0.5,0.2c-0.3,0-0.5-0.1-0.8-0.4c-0.6-0.1-0.9-0.5-0.9-1c0-0.6,0.5-1,1.1-1
			c0.6,0,1.1,0.4,1.1,1c0,0.5-0.3,0.8-0.7,1c0.1,0.1,0.2,0.1,0.3,0.1c0.1,0,0.2,0,0.3-0.1L39.5,151.1z M38.3,150.5
			c0.4,0,0.6-0.3,0.6-0.6c0-0.4-0.3-0.6-0.6-0.6c-0.4,0-0.6,0.3-0.6,0.6C37.6,150.2,37.9,150.5,38.3,150.5z"/>
		<path class="st7" d="M41.3,149.3v1.6h-0.4v-0.2c-0.1,0.1-0.3,0.2-0.5,0.2c-0.4,0-0.7-0.2-0.7-0.7v-0.9h0.4v0.8
			c0,0.3,0.1,0.4,0.3,0.4c0.2,0,0.4-0.1,0.4-0.4v-0.8H41.3z"/>
		<path class="st7" d="M43.2,150.2H42c0,0.2,0.2,0.3,0.4,0.3c0.2,0,0.3,0,0.4-0.1l0.2,0.3c-0.1,0.2-0.4,0.3-0.6,0.3
			c-0.5,0-0.9-0.3-0.9-0.8c0-0.5,0.4-0.8,0.8-0.8c0.5,0,0.8,0.3,0.8,0.8C43.2,150.1,43.2,150.2,43.2,150.2z M42,149.9h0.8
			c0-0.2-0.2-0.3-0.4-0.3C42.2,149.6,42.1,149.7,42,149.9z"/>
	</g>
	<g class="st2">
		<path class="st7" d="M44.5,149.3v0.4c0,0-0.1,0-0.1,0c-0.2,0-0.4,0.1-0.4,0.4v0.7h-0.5v-1.6h0.4v0.2
			C44.1,149.3,44.2,149.3,44.5,149.3z"/>
	</g>
	<g class="st2">
		<path class="st7" d="M44.6,150.1c0-0.5,0.4-0.8,0.9-0.8s0.9,0.3,0.9,0.8c0,0.5-0.4,0.8-0.9,0.8S44.6,150.5,44.6,150.1z
			 M45.9,150.1c0-0.3-0.2-0.4-0.4-0.4c-0.2,0-0.4,0.2-0.4,0.4c0,0.3,0.2,0.4,0.4,0.4C45.7,150.5,45.9,150.3,45.9,150.1z"/>
	</g>
	<g class="st2">
		<path class="st7" d="M50.1,150v0.9h-0.5V150c0-0.3-0.1-0.4-0.3-0.4c-0.2,0-0.3,0.1-0.3,0.4v0.8h-0.4V150c0-0.3-0.1-0.4-0.3-0.4
			c-0.2,0-0.3,0.1-0.3,0.4v0.8h-0.5v-1.6h0.4v0.2c0.1-0.1,0.3-0.2,0.5-0.2c0.2,0,0.4,0.1,0.5,0.3c0.1-0.2,0.3-0.3,0.6-0.3
			C49.8,149.3,50.1,149.5,50.1,150z"/>
	</g>
	<g class="st2">
		<path class="st7" d="M52,150.2h-1.2c0,0.2,0.2,0.3,0.4,0.3c0.2,0,0.3,0,0.4-0.1l0.2,0.3c-0.1,0.2-0.4,0.3-0.6,0.3
			c-0.5,0-0.9-0.3-0.9-0.8c0-0.5,0.4-0.8,0.8-0.8c0.5,0,0.8,0.3,0.8,0.8C52,150.1,52,150.2,52,150.2z M50.8,149.9h0.8
			c0-0.2-0.2-0.3-0.4-0.3C51,149.6,50.9,149.7,50.8,149.9z"/>
		<path class="st7" d="M53,150.1c0-0.5,0.4-0.8,0.9-0.8c0.3,0,0.6,0.1,0.7,0.4l-0.3,0.2c-0.1-0.1-0.2-0.2-0.3-0.2
			c-0.2,0-0.4,0.2-0.4,0.4c0,0.3,0.2,0.4,0.4,0.4c0.1,0,0.3-0.1,0.3-0.2l0.3,0.2c-0.1,0.2-0.4,0.4-0.7,0.4
			C53.4,150.9,53,150.5,53,150.1z"/>
	</g>
	<g class="st2">
		<path class="st7" d="M56.2,150v0.9h-0.4v-0.2c-0.1,0.1-0.2,0.2-0.5,0.2c-0.4,0-0.6-0.2-0.6-0.5c0-0.3,0.2-0.5,0.7-0.5h0.4
			c0-0.2-0.1-0.3-0.4-0.3c-0.2,0-0.3,0.1-0.4,0.1l-0.2-0.3c0.2-0.1,0.4-0.2,0.7-0.2C55.9,149.3,56.2,149.5,56.2,150z M55.8,150.3
			v-0.2h-0.3c-0.2,0-0.3,0.1-0.3,0.2c0,0.1,0.1,0.2,0.3,0.2C55.6,150.6,55.7,150.5,55.8,150.3z"/>
	</g>
	<g class="st2">
		<path class="st7" d="M58.2,148.7v2.1h-0.4v-0.2c-0.1,0.1-0.3,0.2-0.5,0.2c-0.4,0-0.8-0.3-0.8-0.8s0.3-0.8,0.8-0.8
			c0.2,0,0.4,0.1,0.5,0.2v-0.8H58.2z M57.8,150.1c0-0.3-0.2-0.4-0.4-0.4c-0.2,0-0.4,0.2-0.4,0.4c0,0.3,0.2,0.4,0.4,0.4
			C57.6,150.5,57.8,150.3,57.8,150.1z"/>
		<path class="st7" d="M60,150v0.9h-0.4v-0.2c-0.1,0.1-0.2,0.2-0.5,0.2c-0.4,0-0.6-0.2-0.6-0.5c0-0.3,0.2-0.5,0.7-0.5h0.4
			c0-0.2-0.1-0.3-0.4-0.3c-0.2,0-0.3,0.1-0.4,0.1l-0.2-0.3c0.2-0.1,0.4-0.2,0.7-0.2C59.7,149.3,60,149.5,60,150z M59.6,150.3v-0.2
			h-0.3c-0.2,0-0.3,0.1-0.3,0.2c0,0.1,0.1,0.2,0.3,0.2C59.4,150.6,59.5,150.5,59.6,150.3z"/>
		<path class="st7" d="M60.3,150.7l0.1-0.3c0.1,0.1,0.3,0.1,0.5,0.1c0.2,0,0.3-0.1,0.3-0.1c0-0.3-0.9,0-0.9-0.6
			c0-0.3,0.3-0.5,0.7-0.5c0.2,0,0.4,0,0.6,0.1l-0.2,0.3c-0.2-0.1-0.3-0.1-0.4-0.1c-0.2,0-0.3,0.1-0.3,0.1c0,0.3,0.9,0,0.9,0.6
			c0,0.3-0.3,0.5-0.7,0.5C60.7,150.9,60.4,150.8,60.3,150.7z"/>
		<path class="st7" d="M63,150.8c-0.1,0.1-0.2,0.1-0.4,0.1c-0.4,0-0.6-0.2-0.6-0.6v-0.6h-0.2v-0.3H62v-0.4h0.5v0.4h0.4v0.3h-0.4v0.6
			c0,0.1,0.1,0.2,0.2,0.2c0.1,0,0.1,0,0.2-0.1L63,150.8z"/>
	</g>
	<g class="st2">
		<path class="st7" d="M64.2,149.3v0.4c0,0-0.1,0-0.1,0c-0.2,0-0.4,0.1-0.4,0.4v0.7h-0.5v-1.6h0.4v0.2
			C63.8,149.3,63.9,149.3,64.2,149.3z"/>
	</g>
	<g class="st2">
		<path class="st7" d="M65.8,150v0.9h-0.4v-0.2c-0.1,0.1-0.2,0.2-0.5,0.2c-0.4,0-0.6-0.2-0.6-0.5c0-0.3,0.2-0.5,0.7-0.5h0.4
			c0-0.2-0.1-0.3-0.4-0.3c-0.2,0-0.3,0.1-0.4,0.1l-0.2-0.3c0.2-0.1,0.4-0.2,0.7-0.2C65.5,149.3,65.8,149.5,65.8,150z M65.4,150.3
			v-0.2h-0.3c-0.2,0-0.3,0.1-0.3,0.2c0,0.1,0.1,0.2,0.3,0.2C65.2,150.6,65.3,150.5,65.4,150.3z"/>
		<path class="st7" d="M67.2,149.3v0.4c0,0-0.1,0-0.1,0c-0.2,0-0.4,0.1-0.4,0.4v0.7h-0.5v-1.6h0.4v0.2
			C66.8,149.3,66.9,149.3,67.2,149.3z"/>
	</g>
</g>
</svg>
