<?xml version="1.0" encoding="UTF-8"?><svg id="Layer_2" xmlns="http://www.w3.org/2000/svg" viewBox="0 0 104.95 186.57"><defs><style>.cls-1{fill:#828282;}.cls-1,.cls-2{font-size:3px;}.cls-1,.cls-3,.cls-4,.cls-5,.cls-6,.cls-7,.cls-8{font-family:Montserrat-Bold, Montserrat;}.cls-9{letter-spacing:-.02em;}.cls-10{fill:none;}.cls-2,.cls-11,.cls-12,.cls-13,.cls-14,.cls-15,.cls-16,.cls-17{font-family:Montserrat-Medium, Montserrat;}.cls-2,.cls-15{fill:#727272;}.cls-18{letter-spacing:0em;}.cls-19{letter-spacing:-.01em;}.cls-11,.cls-20{fill:#d3d3d3;}.cls-11,.cls-17{font-size:3.04px;}.cls-21{letter-spacing:0em;}.cls-22{letter-spacing:-.01em;}.cls-23{letter-spacing:-.01em;}.cls-24{letter-spacing:-.01em;}.cls-25{letter-spacing:-.01em;}.cls-26{letter-spacing:2.11em;}.cls-27{letter-spacing:2.11em;}.cls-28{letter-spacing:0em;}.cls-29{letter-spacing:.34em;}.cls-30{letter-spacing:-.01em;}.cls-31{letter-spacing:-.02em;}.cls-32{letter-spacing:.69em;}.cls-33{letter-spacing:0em;}.cls-34{fill:#f2f8f9;}.cls-35,.cls-3{fill:#f99e1d;}.cls-36,.cls-8{fill:#fff;}.cls-37{fill:#e1ecef;}.cls-38,.cls-17{fill:#3733bf;}.cls-39,.cls-13,.cls-7{fill:#57b952;}.cls-40{letter-spacing:.68em;}.cls-41{letter-spacing:.34em;}.cls-42{letter-spacing:-.02em;}.cls-43{letter-spacing:-.02em;}.cls-44{letter-spacing:-.02em;}.cls-45{letter-spacing:0em;}.cls-46{letter-spacing:-.01em;}.cls-47{letter-spacing:0em;}.cls-48{letter-spacing:-.06em;}.cls-49{letter-spacing:0em;}.cls-50{letter-spacing:-.01em;}.cls-51{letter-spacing:0em;}.cls-52{letter-spacing:0em;}.cls-53{letter-spacing:-.02em;}.cls-54{letter-spacing:-.01em;}.cls-3,.cls-4{font-size:3.4px;}.cls-4,.cls-12,.cls-14{fill:#2b2b2b;}.cls-55{letter-spacing:.04em;}.cls-56{letter-spacing:.07em;}.cls-12{font-size:4.05px;}.cls-57{letter-spacing:0em;}.cls-58{letter-spacing:0em;}.cls-13{font-size:4px;}.cls-59{letter-spacing:0em;}.cls-5{fill:#757575;font-size:4.5px;}.cls-60{letter-spacing:0em;}.cls-61{letter-spacing:0em;}.cls-14,.cls-6{font-size:3.41px;}.cls-62{letter-spacing:0em;}.cls-63{letter-spacing:0em;}.cls-64{letter-spacing:.06em;}.cls-65{letter-spacing:0em;}.cls-66{letter-spacing:.02em;}.cls-67{letter-spacing:.64em;}.cls-68{letter-spacing:0em;}.cls-6{fill:#149314;}.cls-69{letter-spacing:.64em;}.cls-70{letter-spacing:0em;}.cls-71{letter-spacing:0em;}.cls-72{letter-spacing:0em;}.cls-73{letter-spacing:.02em;}.cls-15{font-size:2.5px;}.cls-74{letter-spacing:0em;}.cls-75{letter-spacing:0em;}.cls-76{letter-spacing:0em;}.cls-77{letter-spacing:0em;}.cls-78{letter-spacing:0em;}.cls-79{letter-spacing:0em;}.cls-80{letter-spacing:0em;}.cls-16{fill:#aaa;font-size:2.56px;}.cls-81{letter-spacing:0em;}.cls-82{letter-spacing:0em;}.cls-83{letter-spacing:-.07em;}.cls-84{letter-spacing:-.06em;}.cls-85{letter-spacing:-.02em;}.cls-7{font-size:1.93px;}.cls-17{opacity:.5;}.cls-86{letter-spacing:0em;}.cls-87{letter-spacing:0em;}.cls-88{letter-spacing:-.01em;}.cls-89{letter-spacing:0em;}.cls-90{letter-spacing:-.01em;}.cls-91{letter-spacing:.04em;}.cls-92{letter-spacing:.02em;}.cls-93{letter-spacing:.02em;}.cls-8{font-size:2.54px;}.cls-94{letter-spacing:.07em;}</style></defs><g id="OBJECTS"><rect class="cls-10" width="104.95" height="186.57"/><rect class="cls-36" x="12.56" y="23.19" width="80.25" height="154.12" rx="5.77" ry="5.77"/><text class="cls-17" transform="translate(19.25 64.17)"><tspan x="0" y="0">Se</tspan><tspan class="cls-62" x="3.75" y="0">r</tspan><tspan x="4.97" y="0">á</tspan><tspan class="cls-32" x="6.79" y="0"> </tspan><tspan class="cls-24" x="9.69" y="0">r</tspan><tspan x="10.9" y="0">espons</tspan><tspan class="cls-76" x="21.87" y="0">á</tspan><tspan class="cls-31" x="23.66" y="0">v</tspan><tspan x="25.31" y="0">el</tspan><tspan class="cls-40" x="28.02" y="0"> </tspan><tspan x="30.92" y="0">por</tspan><tspan class="cls-32" x="36.17" y="0"> </tspan><tspan class="cls-62" x="39.07" y="0">f</tspan><tspan x="40.12" y="0">o</tspan><tspan class="cls-61" x="42.05" y="0">r</tspan><tspan class="cls-75" x="43.27" y="0">n</tspan><tspan x="45.35" y="0">e</tspan><tspan class="cls-62" x="47.21" y="0">c</tspan><tspan x="48.92" y="0">er</tspan><tspan class="cls-40" x="52.03" y="0"> </tspan><tspan class="cls-42" x="54.93" y="0">t</tspan><tspan x="56.13" y="0">odo</tspan><tspan class="cls-32" x="62.06" y="0"> </tspan><tspan x="64.96" y="0">o </tspan><tspan x="0" y="3.65">supo</tspan><tspan class="cls-66" x="7.58" y="3.65">r</tspan><tspan class="cls-42" x="8.87" y="3.65">t</tspan><tspan x="10.08" y="3.65">e</tspan><tspan class="cls-27" x="11.94" y="3.65"> </tspan><tspan class="cls-42" x="19.17" y="3.65">t</tspan><tspan x="20.37" y="3.65">écni</tspan><tspan class="cls-62" x="26.88" y="3.65">c</tspan><tspan x="28.6" y="3.65">o</tspan><tspan class="cls-26" x="30.53" y="3.65"> </tspan><tspan class="cls-72" x="37.76" y="3.65">n</tspan><tspan x="39.83" y="3.65">e</tspan><tspan class="cls-62" x="41.69" y="3.65">c</tspan><tspan x="43.41" y="3.65">essá</tspan><tspan class="cls-47" x="50.13" y="3.65">r</tspan><tspan x="51.35" y="3.65">io</tspan><tspan class="cls-27" x="54.13" y="3.65"> </tspan><tspan x="61.36" y="3.65">dos </tspan><tspan x="0" y="7.29">de</tspan><tspan class="cls-28" x="3.93" y="7.29">p</tspan><tspan x="5.99" y="7.29">a</tspan><tspan class="cls-66" x="7.81" y="7.29">r</tspan><tspan x="9.1" y="7.29">ta</tspan><tspan class="cls-72" x="12.17" y="7.29">m</tspan><tspan x="15.4" y="7.29">en</tspan><tspan class="cls-42" x="19.33" y="7.29">t</tspan><tspan x="20.53" y="7.29">os</tspan><tspan class="cls-67" x="23.98" y="7.29"> </tspan><tspan x="26.74" y="7.29">de</tspan><tspan class="cls-69" x="30.67" y="7.29"> </tspan><tspan class="cls-88" x="33.43" y="7.29">v</tspan><tspan x="35.08" y="7.29">e</tspan><tspan class="cls-72" x="36.94" y="7.29">n</tspan><tspan x="39.02" y="7.29">das,</tspan><tspan class="cls-67" x="45.12" y="7.29"> </tspan><tspan x="47.88" y="7.29">licit</tspan><tspan class="cls-72" x="53.42" y="7.29">a</tspan><tspan class="cls-59" x="55.25" y="7.29">ç</tspan><tspan x="56.96" y="7.29">ões</tspan><tspan class="cls-67" x="62.27" y="7.29"> </tspan><tspan x="65.03" y="7.29">e </tspan><tspan class="cls-72" x="0" y="10.94">n</tspan><tspan x="2.08" y="10.94">egoci</tspan><tspan class="cls-75" x="10.55" y="10.94">a</tspan><tspan x="12.38" y="10.94">ç</tspan><tspan class="cls-72" x="14.11" y="10.94">ã</tspan><tspan x="15.94" y="10.94">o</tspan><tspan class="cls-56" x="17.87" y="10.94"> </tspan><tspan x="18.89" y="10.94">de</tspan><tspan class="cls-94" x="22.82" y="10.94"> </tspan><tspan class="cls-62" x="23.84" y="10.94">c</tspan><tspan x="25.55" y="10.94">ont</tspan><tspan class="cls-62" x="30.81" y="10.94">r</tspan><tspan x="32.03" y="10.94">a</tspan><tspan class="cls-42" x="33.85" y="10.94">t</tspan><tspan x="35.05" y="10.94">os</tspan><tspan class="cls-56" x="38.5" y="10.94"> </tspan><tspan x="39.53" y="10.94">du</tspan><tspan class="cls-62" x="43.66" y="10.94">r</tspan><tspan x="44.88" y="10.94">an</tspan><tspan class="cls-42" x="48.77" y="10.94">t</tspan><tspan x="49.97" y="10.94">e</tspan><tspan class="cls-56" x="51.83" y="10.94"> </tspan><tspan x="52.85" y="10.94">a</tspan><tspan class="cls-94" x="54.67" y="10.94"> </tspan><tspan class="cls-76" x="55.69" y="10.94">f</tspan><tspan x="56.73" y="10.94">ase</tspan><tspan class="cls-56" x="61.93" y="10.94"> </tspan><tspan x="62.96" y="10.94">de </tspan><tspan class="cls-31" x="0" y="14.59">v</tspan><tspan x="1.65" y="14.59">e</tspan><tspan class="cls-75" x="3.51" y="14.59">n</tspan><tspan x="5.59" y="14.59">das</tspan><tspan class="cls-29" x="11" y="14.59"> </tspan><tspan x="12.86" y="14.59">e</tspan><tspan class="cls-41" x="14.72" y="14.59"> </tspan><tspan class="cls-62" x="16.58" y="14.59">f</tspan><tspan x="17.63" y="14.59">e</tspan><tspan class="cls-61" x="19.49" y="14.59">c</tspan><tspan x="21.2" y="14.59">ha</tspan><tspan class="cls-72" x="25.09" y="14.59">m</tspan><tspan x="28.31" y="14.59">en</tspan><tspan class="cls-42" x="32.24" y="14.59">t</tspan><tspan x="33.45" y="14.59">o</tspan><tspan class="cls-29" x="35.38" y="14.59"> </tspan><tspan x="37.23" y="14.59">do</tspan><tspan class="cls-41" x="41.24" y="14.59"> </tspan><tspan class="cls-62" x="43.09" y="14.59">c</tspan><tspan x="44.8" y="14.59">ont</tspan><tspan class="cls-59" x="50.06" y="14.59">r</tspan><tspan x="51.28" y="14.59">a</tspan><tspan class="cls-42" x="53.1" y="14.59">t</tspan><tspan class="cls-50" x="54.3" y="14.59">o</tspan><tspan x="56.2" y="14.59">.</tspan><tspan class="cls-29" x="56.89" y="14.59"> </tspan><tspan x="58.74" y="14.59">Além </tspan><tspan x="0" y="18.24">diss</tspan><tspan class="cls-24" x="5.96" y="18.24">o</tspan><tspan x="7.86" y="18.24">,</tspan><tspan class="cls-55" x="8.55" y="18.24"> </tspan><tspan x="9.48" y="18.24">ele</tspan><tspan class="cls-83" x="14.05" y="18.24">/</tspan><tspan x="14.92" y="18.24">ela</tspan><tspan class="cls-55" x="19.44" y="18.24"> </tspan><tspan x="20.38" y="18.24">se</tspan><tspan class="cls-62" x="23.76" y="18.24">r</tspan><tspan x="24.98" y="18.24">á</tspan><tspan class="cls-91" x="26.8" y="18.24"> </tspan><tspan class="cls-24" x="27.73" y="18.24">r</tspan><tspan x="28.94" y="18.24">espons</tspan><tspan class="cls-76" x="39.92" y="18.24">á</tspan><tspan class="cls-31" x="41.71" y="18.24">v</tspan><tspan x="43.36" y="18.24">el</tspan><tspan class="cls-55" x="46.07" y="18.24"> </tspan><tspan x="47" y="18.24">por</tspan><tspan class="cls-55" x="52.25" y="18.24"> </tspan><tspan x="53.19" y="18.24">es</tspan><tspan class="cls-42" x="56.57" y="18.24">t</tspan><tspan x="57.77" y="18.24">e</tspan><tspan class="cls-75" x="59.63" y="18.24">n</tspan><tspan x="61.71" y="18.24">der </tspan></text><g><path class="cls-39" d="M65.4,95.64h-22.38c-2.25,0-4.07-1.82-4.07-4.07h0c0-2.25,1.82-4.07,4.07-4.07h22.38c2.25,0,4.07,1.82,4.07,4.07h0c0,2.25-1.82,4.07-4.07,4.07Z"/><text class="cls-8" transform="translate(43.05 92.5)"><tspan class="cls-74" x="0" y="0">Ac</tspan><tspan x="3.42" y="0">eitar </tspan><tspan class="cls-81" x="10.29" y="0">Pr</tspan><tspan x="13.2" y="0">oposta</tspan></text></g><g><g><path class="cls-36" d="M99.62,57.15h0c-.16-.16-.42-.16-.59,0l-1.11,1.11c-.16,.16-.16,.42,0,.59h0c.16,.16,.42,.16,.59,0l1.11-1.11c.16-.16,.16-.42,0-.59Z"/><path class="cls-36" d="M97.92,56.04h0c-.16,.16-.16,.42,0,.59l1.11,1.11c.16,.16,.42,.16,.59,0h0c.16-.16,.16-.42,0-.59l-1.11-1.11c-.16-.16-.42-.16-.59,0Z"/></g><g><path class="cls-36" d="M5.51,57.15h0c.16-.16,.42-.16,.59,0l1.11,1.11c.16,.16,.16,.42,0,.59h0c-.16,.16-.42,.16-.59,0l-1.11-1.11c-.16-.16-.16-.42,0-.59Z"/><path class="cls-36" d="M7.21,56.04h0c.16,.16,.16,.42,0,.59l-1.11,1.11c-.16,.16-.42,.16-.59,0h0c-.16-.16-.16-.42,0-.59l1.11-1.11c.16-.16,.42-.16,.59,0Z"/></g></g><text class="cls-11" transform="translate(67.62 37.41)"><tspan x="0" y="0">21 </tspan><tspan class="cls-31" x="3.69" y="0">J</tspan><tspan x="5.2" y="0">AN 1</tspan><tspan class="cls-93" x="11.83" y="0">2</tspan><tspan x="13.64" y="0">:00</tspan></text><text class="cls-12" transform="translate(18.95 32.42)"><tspan x="0" y="0">E</tspan><tspan class="cls-71" x="2.71" y="0">n</tspan><tspan x="5.49" y="0">genha</tspan><tspan class="cls-65" x="18.71" y="0">r</tspan><tspan x="20.34" y="0">ia </tspan><tspan class="cls-65" x="24.98" y="0">E</tspan><tspan x="27.67" y="0">ólica</tspan></text><text class="cls-2" transform="translate(18.95 53.36)"><tspan x="0" y="0">Ho</tspan><tspan class="cls-77" x="4.34" y="0">r</tspan><tspan x="5.55" y="0">á</tspan><tspan class="cls-45" x="7.34" y="0">r</tspan><tspan x="8.55" y="0">io de atu</tspan><tspan class="cls-49" x="21.85" y="0">a</tspan><tspan x="23.66" y="0">ç</tspan><tspan class="cls-49" x="25.37" y="0">ã</tspan><tspan x="27.17" y="0">o: 2ª à </tspan><tspan class="cls-80" x="36.91" y="0">5</tspan><tspan x="38.6" y="0">ª das 09h00 às </tspan><tspan x="0" y="3.6">19h00 e </tspan><tspan class="cls-46" x="12.46" y="3.6">6</tspan><tspan x="14.27" y="3.6">ª das 09h00 às 18h00</tspan></text><g><path class="cls-39" d="M86.52,30.08c-.65,.95-1.74,1.58-2.99,1.58s-2.34-.63-2.99-1.58c.65-.95,1.75-1.57,2.99-1.57s2.34,.62,2.99,1.57Z"/><path class="cls-36" d="M84.54,30.08c0,.56-.46,1.02-1.02,1.02s-1.02-.46-1.02-1.02,.46-1.02,1.02-1.02,1.02,.46,1.02,1.02Z"/></g><text class="cls-13" transform="translate(55.74 45.89)"><tspan x="0" y="0">Inicio i</tspan><tspan class="cls-49" x="13.21" y="0">m</tspan><tspan x="17.45" y="0">edia</tspan><tspan class="cls-43" x="26.14" y="0">t</tspan><tspan x="27.72" y="0">o </tspan></text><text class="cls-5" transform="translate(18.93 46.32)"><tspan x="0" y="0">R$ </tspan><tspan class="cls-58" x="7.45" y="0">2.</tspan><tspan class="cls-57" x="11.38" y="0">2</tspan><tspan x="14.02" y="0">0</tspan><tspan class="cls-90" x="17.08" y="0">0,</tspan><tspan x="21.2" y="0">00</tspan></text><g><rect class="cls-37" x="18.82" y="101.14" width="67.02" height="21.65" rx="2.76" ry="2.76"/><g><path class="cls-36" d="M42.03,120.69H25.02c-1.71,0-3.1-1.39-3.1-3.1h0c0-1.71,1.39-3.1,3.1-3.1h17c1.71,0,3.1,1.39,3.1,3.1h0c0,1.71-1.39,3.1-3.1,3.1Z"/><g><text class="cls-3" transform="translate(76.49 106.65)"><tspan class="cls-73" x="0" y="0">4</tspan><tspan class="cls-86" x="2.41" y="0">,</tspan><tspan x="3.33" y="0">8</tspan></text><text class="cls-4" transform="translate(21.98 106.65)"><tspan x="0" y="0">NOMEEM</tspan><tspan class="cls-23" x="16.65" y="0">P</tspan><tspan x="19.1" y="0">RESA </tspan><tspan class="cls-84" x="29.6" y="0">L</tspan><tspan x="31.43" y="0">T</tspan><tspan class="cls-78" x="33.53" y="0">D</tspan><tspan x="36.3" y="0">A</tspan></text><polygon class="cls-35" points="73.66 103.52 74.25 104.72 75.57 104.91 74.61 105.85 74.84 107.17 73.66 106.55 72.47 107.17 72.7 105.85 71.74 104.91 73.06 104.72 73.66 103.52"/><text class="cls-15" transform="translate(22.26 111.66)"><tspan x="0" y="0">Rua e</tspan><tspan class="cls-79" x="7.21" y="0">n</tspan><tspan x="8.92" y="0">de</tspan><tspan class="cls-54" x="12.15" y="0">r</tspan><tspan x="13.15" y="0">e</tspan><tspan class="cls-89" x="14.68" y="0">ç</tspan><tspan x="16.09" y="0">o da emp</tspan><tspan class="cls-25" x="28.1" y="0">r</tspan><tspan x="29.09" y="0">esa, </tspan><tspan class="cls-87" x="34.61" y="0">2</tspan><tspan x="36.04" y="0">77</tspan><tspan class="cls-54" x="39.03" y="0">9</tspan><tspan x="40.54" y="0">, sl</tspan><tspan class="cls-68" x="43.73" y="0">2</tspan><tspan x="45.16" y="0">05</tspan></text><text class="cls-7" transform="translate(24.27 118.3)"><tspan x="0" y="0">Ent</tspan><tspan class="cls-60" x="3.47" y="0">r</tspan><tspan x="4.29" y="0">ar em </tspan><tspan class="cls-60" x="10.67" y="0">c</tspan><tspan x="11.79" y="0">onta</tspan><tspan class="cls-85" x="16.43" y="0">t</tspan><tspan x="17.24" y="0">o</tspan></text><path class="cls-36" d="M79.51,120.69h-17c-1.71,0-3.1-1.39-3.1-3.1h0c0-1.71,1.39-3.1,3.1-3.1h17c1.71,0,3.1,1.39,3.1,3.1h0c0,1.71-1.39,3.1-3.1,3.1Z"/></g><text class="cls-7" transform="translate(61.93 118.3)"><tspan class="cls-48" x="0" y="0">V</tspan><tspan x="1.34" y="0">er local </tspan><tspan class="cls-21" x="9.25" y="0">n</tspan><tspan x="10.6" y="0">o ma</tspan><tspan class="cls-51" x="15.63" y="0">p</tspan><tspan x="16.95" y="0">a</tspan></text></g></g><text class="cls-1" transform="translate(18.82 131.24)"><tspan x="0" y="0">Out</tspan><tspan class="cls-45" x="5.9" y="0">r</tspan><tspan x="7.17" y="0">as </tspan><tspan class="cls-9" x="11.46" y="0">v</tspan><tspan class="cls-18" x="13.2" y="0">a</tspan><tspan x="15.07" y="0">ga</tspan><tspan class="cls-64" x="19.02" y="0">s</tspan><tspan x="20.79" y="0" xml:space="preserve"> na </tspan><tspan class="cls-70" x="26.41" y="0">m</tspan><tspan x="29.58" y="0">esma emp</tspan><tspan class="cls-33" x="46.02" y="0">r</tspan><tspan x="47.29" y="0">esa:</tspan></text><g><rect class="cls-34" x="18.82" y="137.15" width="67.4" height="15.35" rx="2.76" ry="2.76"/><text class="cls-16" transform="translate(23.97 148.77)"><tspan x="0" y="0">21 </tspan><tspan class="cls-30" x="3.11" y="0">J</tspan><tspan x="4.38" y="0">AN 1</tspan><tspan class="cls-92" x="9.97" y="0">2</tspan><tspan x="11.49" y="0">:00</tspan></text><text class="cls-6" transform="translate(67.9 143.21)"><tspan x="0" y="0">2 </tspan><tspan class="cls-53" x="2.98" y="0">v</tspan><tspan class="cls-52" x="4.96" y="0">a</tspan><tspan x="7.09" y="0">gas</tspan></text><text class="cls-14" transform="translate(23.97 143.21)"><tspan class="cls-19" x="0" y="0">A</tspan><tspan x="2.47" y="0">uxiliar </tspan><tspan class="cls-63" x="13.88" y="0">c</tspan><tspan x="15.81" y="0">ontábil</tspan></text><g><path class="cls-20" d="M80.89,147.55c-.54,.8-1.47,1.33-2.52,1.33s-1.98-.53-2.52-1.33c.55-.8,1.47-1.33,2.52-1.33s1.97,.52,2.52,1.33Z"/><path class="cls-36" d="M79.23,147.55c0,.47-.38,.86-.86,.86s-.86-.38-.86-.86,.38-.86,.86-.86,.86,.38,.86,.86Z"/></g></g><g><rect class="cls-34" x="18.82" y="155.5" width="67.4" height="15.35" rx="2.76" ry="2.76"/><text class="cls-16" transform="translate(23.97 168.12)"><tspan x="0" y="0">21 </tspan><tspan class="cls-30" x="3.11" y="0">J</tspan><tspan x="4.38" y="0">AN 1</tspan><tspan class="cls-92" x="9.97" y="0">2</tspan><tspan x="11.49" y="0">:00</tspan></text><text class="cls-6" transform="translate(67.9 161.56)"><tspan x="0" y="0">3 </tspan><tspan class="cls-53" x="2.99" y="0">v</tspan><tspan class="cls-52" x="4.97" y="0">a</tspan><tspan x="7.1" y="0">gas</tspan></text><text class="cls-12" transform="translate(23.97 160.03)"><tspan class="cls-82" x="0" y="0">A</tspan><tspan x="2.93" y="0">uxiliar de </tspan><tspan x="0" y="4">al</tspan><tspan class="cls-71" x="3.55" y="4">m</tspan><tspan class="cls-44" x="7.85" y="4">o</tspan><tspan class="cls-22" x="10.35" y="4">x</tspan><tspan x="12.55" y="4">a</tspan><tspan class="cls-65" x="14.97" y="4">r</tspan><tspan x="16.6" y="4">i</tspan><tspan class="cls-82" x="17.73" y="4">f</tspan><tspan class="cls-71" x="19.12" y="4">a</tspan><tspan x="21.56" y="4">do</tspan></text><g><path class="cls-20" d="M80.89,165.9c-.54,.8-1.47,1.33-2.52,1.33s-1.98-.53-2.52-1.33c.55-.8,1.47-1.33,2.52-1.33s1.97,.52,2.52,1.33Z"/><path class="cls-36" d="M79.23,165.9c0,.47-.38,.86-.86,.86s-.86-.38-.86-.86,.38-.86,.86-.86,.86,.38,.86,.86Z"/></g></g><g><path class="cls-38" d="M52.92,85.09h0c-.16-.16-.16-.42,0-.59l1.11-1.11c.16-.16,.42-.16,.59,0h0c.16,.16,.16,.42,0,.59l-1.11,1.11c-.16,.16-.42,.16-.59,0Z"/><path class="cls-38" d="M51.81,83.39h0c.16-.16,.42-.16,.59,0l1.11,1.11c.16,.16,.16,.42,0,.59h0c-.16,.16-.42,.16-.59,0l-1.11-1.11c-.16-.16-.16-.42,0-.59Z"/></g></g></svg>