<?xml version="1.0" encoding="UTF-8"?><svg id="Layer_2" xmlns="http://www.w3.org/2000/svg" xmlns:xlink="http://www.w3.org/1999/xlink" viewBox="0 0 104.95 188.3"><defs><style>.cls-1{fill:none;}.cls-2,.cls-3{font-size:3px;}.cls-2,.cls-3,.cls-4,.cls-5,.cls-6{font-family:Montserrat-Medium, Montserrat;}.cls-2,.cls-7{fill:#e03434;}.cls-8{letter-spacing:0em;}.cls-3,.cls-9{fill:#f99e1d;}.cls-10{letter-spacing:0em;}.cls-4{font-size:3.04px;}.cls-4,.cls-11{fill:#d3d3d3;}.cls-12{font-size:3.1px;}.cls-12,.cls-13,.cls-14{font-family:Montserrat-Bold, Montserrat;}.cls-12,.cls-5{fill:#2b2b2b;}.cls-13{font-size:6.08px;}.cls-13,.cls-15,.cls-16{fill:#fff;}.cls-17{letter-spacing:-.02em;}.cls-18{letter-spacing:-.02em;}.cls-19,.cls-6{fill:#57b952;}.cls-20{letter-spacing:-.01em;}.cls-21{letter-spacing:-.02em;}.cls-22{letter-spacing:-.01em;}.cls-23{letter-spacing:-.01em;}.cls-24{letter-spacing:-.06em;}.cls-25{letter-spacing:0em;}.cls-26{letter-spacing:0em;}.cls-27{filter:url(#drop-shadow-4);}.cls-28{filter:url(#drop-shadow-2);}.cls-29{filter:url(#drop-shadow-3);}.cls-5{font-size:4.05px;}.cls-30{letter-spacing:0em;}.cls-31{letter-spacing:0em;}.cls-6{font-size:4px;}.cls-14{fill:#757575;font-size:4.5px;}.cls-32{letter-spacing:0em;}.cls-33{letter-spacing:0em;}.cls-34{letter-spacing:.01em;}.cls-16{filter:url(#drop-shadow-1);}.cls-35{letter-spacing:0em;}.cls-36{letter-spacing:0em;}.cls-37{letter-spacing:-.02em;}.cls-38{letter-spacing:.04em;}.cls-39{letter-spacing:-.01em;}.cls-40{letter-spacing:.02em;}</style><filter id="drop-shadow-1" filterUnits="userSpaceOnUse"><feOffset dx="3" dy="3"/><feGaussianBlur result="blur" stdDeviation="3"/><feFlood flood-color="#000" flood-opacity=".2"/><feComposite in2="blur" operator="in"/><feComposite in="SourceGraphic"/></filter><filter id="drop-shadow-2" filterUnits="userSpaceOnUse"><feOffset dx="3" dy="3"/><feGaussianBlur result="blur-2" stdDeviation="3"/><feFlood flood-color="#000" flood-opacity=".2"/><feComposite in2="blur-2" operator="in"/><feComposite in="SourceGraphic"/></filter><filter id="drop-shadow-3" filterUnits="userSpaceOnUse"><feOffset dx="3" dy="3"/><feGaussianBlur result="blur-3" stdDeviation="3"/><feFlood flood-color="#000" flood-opacity=".2"/><feComposite in2="blur-3" operator="in"/><feComposite in="SourceGraphic"/></filter><filter id="drop-shadow-4" filterUnits="userSpaceOnUse"><feOffset dx="3" dy="3"/><feGaussianBlur result="blur-4" stdDeviation="3"/><feFlood flood-color="#000" flood-opacity=".2"/><feComposite in2="blur-4" operator="in"/><feComposite in="SourceGraphic"/></filter></defs><g id="OBJECTS"><rect class="cls-1" width="104.95" height="186.57"/><text class="cls-13" transform="translate(28.3 28.26)"><tspan x="0" y="0">Minhas O</tspan><tspan class="cls-26" x="29.86" y="0">f</tspan><tspan x="32.17" y="0">e</tspan><tspan class="cls-34" x="36.01" y="0">r</tspan><tspan x="38.72" y="0">tas</tspan></text><path class="cls-15" d="M11.74,24.99h0c.16-.16,.42-.16,.59,0l1.11,1.11c.16,.16,.16,.42,0,.59h0c-.16,.16-.42,.16-.59,0l-1.11-1.11c-.16-.16-.16-.42,0-.59Z"/><path class="cls-15" d="M13.44,23.87h0c.16,.16,.16,.42,0,.59l-1.11,1.11c-.16,.16-.42,.16-.59,0h0c-.16-.16-.16-.42,0-.59l1.11-1.11c.16-.16,.42-.16,.59,0Z"/><path class="cls-15" d="M93.45,24.99h0c-.16-.16-.42-.16-.59,0l-1.11,1.11c-.16,.16-.16,.42,0,.59h0c.16,.16,.42,.16,.59,0l1.11-1.11c.16-.16,.16-.42,0-.59Z"/><path class="cls-15" d="M91.75,23.87h0c-.16,.16-.16,.42,0,.59l1.11,1.11c.16,.16,.42,.16,.59,0h0c.16-.16,.16-.42,0-.59l-1.11-1.11c-.16-.16-.42-.16-.59,0Z"/><path class="cls-15" d="M54.11,158.55c-.16-.16-.42-.16-.59,0l-.82,.82-.82-.82c-.16-.16-.42-.16-.59,0-.16,.16-.16,.42,0,.59l1.11,1.11c.08,.08,.19,.12,.29,.12,.11,0,.21-.04,.29-.12l1.11-1.11c.16-.16,.16-.42,0-.59Z"/><path class="cls-16" d="M46.11,175.87H18.82c-2.75,0-4.97-2.23-4.97-4.97h0c0-2.75,2.23-4.97,4.97-4.97h27.3c2.75,0,4.97,2.23,4.97,4.97h0c0,2.75-2.23,4.97-4.97,4.97Z"/><text class="cls-12" transform="translate(27.55 172.04)"><tspan class="cls-24" x="0" y="0">V</tspan><tspan x="2.15" y="0">o</tspan><tspan class="cls-38" x="4.18" y="0">l</tspan><tspan x="5.23" y="0">tar</tspan></text><g class="cls-28"><rect class="cls-15" x="12.56" y="44.11" width="79.98" height="32.45" rx="2.76" ry="2.76"/></g><text class="cls-5" transform="translate(17.83 52.06)"><tspan x="0" y="0">E</tspan><tspan class="cls-35" x="2.71" y="0">n</tspan><tspan x="5.49" y="0">genha</tspan><tspan class="cls-33" x="18.71" y="0">r</tspan><tspan x="20.34" y="0">ia </tspan><tspan class="cls-33" x="24.98" y="0">E</tspan><tspan x="27.67" y="0">ólica</tspan></text><g><path class="cls-19" d="M89.04,51.1c-.65,.95-1.74,1.58-2.99,1.58s-2.34-.63-2.99-1.58c.65-.95,1.75-1.57,2.99-1.57s2.34,.62,2.99,1.57Z"/><path class="cls-15" d="M87.06,51.1c0,.56-.46,1.02-1.02,1.02s-1.02-.46-1.02-1.02,.46-1.02,1.02-1.02,1.02,.46,1.02,1.02Z"/></g><text class="cls-4" transform="translate(17.83 62.59)"><tspan x="0" y="0">21 </tspan><tspan class="cls-17" x="3.69" y="0">J</tspan><tspan x="5.2" y="0">AN 1</tspan><tspan class="cls-40" x="11.83" y="0">2</tspan><tspan x="13.64" y="0">:00</tspan></text><text class="cls-6" transform="translate(58.18 71.64)"><tspan x="0" y="0">Inicio i</tspan><tspan class="cls-25" x="13.21" y="0">m</tspan><tspan x="17.45" y="0">edia</tspan><tspan class="cls-21" x="26.14" y="0">t</tspan><tspan x="27.72" y="0">o </tspan></text><text class="cls-14" transform="translate(17.87 71.3)"><tspan x="0" y="0">R$ </tspan><tspan class="cls-31" x="7.45" y="0">2.</tspan><tspan class="cls-30" x="11.38" y="0">2</tspan><tspan x="14.02" y="0">0</tspan><tspan class="cls-39" x="17.08" y="0">0,</tspan><tspan x="21.2" y="0">00</tspan></text><path class="cls-19" d="M85.65,58.33c-.27,.27-.27,.71,0,.98l1.36,1.36-1.36,1.36c-.27,.27-.27,.71,0,.98,.27,.27,.71,.27,.98,0l1.85-1.85c.13-.14,.2-.31,.2-.49,0-.18-.07-.35-.2-.49l-1.85-1.85c-.27-.27-.71-.27-.98,0Z"/><g class="cls-29"><rect class="cls-15" x="12.56" y="80.39" width="79.98" height="32.45" rx="2.76" ry="2.76"/></g><text class="cls-5" transform="translate(17.83 88.34)"><tspan x="0" y="0">E</tspan><tspan class="cls-35" x="2.71" y="0">n</tspan><tspan x="5.49" y="0">genha</tspan><tspan class="cls-33" x="18.71" y="0">r</tspan><tspan x="20.34" y="0">ia Elét</tspan><tspan class="cls-33" x="32.99" y="0">r</tspan><tspan x="34.62" y="0">ica</tspan></text><text class="cls-4" transform="translate(17.83 98.87)"><tspan x="0" y="0">22 </tspan><tspan class="cls-17" x="4.31" y="0">J</tspan><tspan x="5.82" y="0">AN 1</tspan><tspan class="cls-40" x="12.45" y="0">2</tspan><tspan x="14.26" y="0">:00</tspan></text><text class="cls-3" transform="translate(69.32 105.18)"><tspan class="cls-36" x="0" y="0">A</tspan><tspan x="2.18" y="0">gua</tspan><tspan class="cls-23" x="8.08" y="0">r</tspan><tspan x="9.27" y="0">da</tspan><tspan class="cls-25" x="13.11" y="0">n</tspan><tspan x="15.16" y="0">do </tspan><tspan x="-4.11" y="3.6">docu</tspan><tspan class="cls-25" x="3.59" y="3.6">m</tspan><tspan x="6.77" y="3.6">ent</tspan><tspan class="cls-25" x="11.89" y="3.6">a</tspan><tspan x="13.69" y="3.6">ç</tspan><tspan class="cls-10" x="15.4" y="3.6">ã</tspan><tspan x="17.21" y="3.6">o</tspan></text><text class="cls-14" transform="translate(17.87 107.59)"><tspan x="0" y="0">R$ </tspan><tspan class="cls-31" x="7.45" y="0">2</tspan><tspan x="10.15" y="0">.</tspan><tspan class="cls-30" x="11.33" y="0">4</tspan><tspan x="14.42" y="0">5</tspan><tspan class="cls-39" x="17.1" y="0">0,</tspan><tspan x="21.22" y="0">00</tspan></text><path class="cls-9" d="M85.65,94.62c-.27,.27-.27,.71,0,.98l1.36,1.36-1.36,1.36c-.27,.27-.27,.71,0,.98,.27,.27,.71,.27,.98,0l1.85-1.85c.13-.14,.2-.31,.2-.49,0-.18-.07-.35-.2-.49l-1.85-1.85c-.27-.27-.71-.27-.98,0Z"/><g><path class="cls-11" d="M89.02,87.48c-.65,.95-1.74,1.58-2.99,1.58s-2.34-.63-2.99-1.58c.65-.95,1.75-1.57,2.99-1.57s2.34,.62,2.99,1.57Z"/><path class="cls-15" d="M87.04,87.49c0,.56-.46,1.02-1.02,1.02s-1.02-.46-1.02-1.02,.46-1.02,1.02-1.02,1.02,.46,1.02,1.02Z"/></g><g class="cls-27"><rect class="cls-15" x="12.56" y="116.89" width="79.98" height="32.45" rx="2.76" ry="2.76"/></g><text class="cls-5" transform="translate(17.83 124.83)"><tspan x="0" y="0">E</tspan><tspan class="cls-35" x="2.71" y="0">n</tspan><tspan x="5.49" y="0">genha</tspan><tspan class="cls-33" x="18.71" y="0">r</tspan><tspan x="20.34" y="0">ia </tspan><tspan class="cls-37" x="0" y="4.86">P</tspan><tspan class="cls-22" x="2.85" y="4.86">r</tspan><tspan x="4.46" y="4.86">oduç</tspan><tspan class="cls-8" x="14.85" y="4.86">ã</tspan><tspan x="17.29" y="4.86">o</tspan></text><text class="cls-4" transform="translate(17.83 135.37)"><tspan x="0" y="0">23 </tspan><tspan class="cls-17" x="4.3" y="0">J</tspan><tspan x="5.81" y="0">AN 1</tspan><tspan class="cls-40" x="12.45" y="0">2</tspan><tspan x="14.25" y="0">:00</tspan></text><text class="cls-2" transform="translate(69.34 141.67)"><tspan x="0" y="0">Qualific</tspan><tspan class="cls-25" x="11.87" y="0">a</tspan><tspan x="13.67" y="0">ç</tspan><tspan class="cls-25" x="15.38" y="0">ã</tspan><tspan x="17.19" y="0">o</tspan><tspan x="-5.41" y="3.6">n</tspan><tspan class="cls-25" x="-3.36" y="3.6">ã</tspan><tspan x="-1.56" y="3.6">o </tspan><tspan class="cls-32" x="1.15" y="3.6">c</tspan><tspan x="2.84" y="3.6">omp</tspan><tspan class="cls-20" x="9.96" y="3.6">o</tspan><tspan class="cls-18" x="11.82" y="3.6">v</tspan><tspan class="cls-10" x="13.45" y="3.6">a</tspan><tspan x="15.25" y="3.6">da</tspan></text><text class="cls-14" transform="translate(17.87 144.08)"><tspan x="0" y="0">R$ 1.95</tspan><tspan class="cls-39" x="15.94" y="0">0,</tspan><tspan x="20.06" y="0">00</tspan></text><path class="cls-7" d="M85.65,131.11c-.27,.27-.27,.71,0,.98l1.36,1.36-1.36,1.36c-.27,.27-.27,.71,0,.98,.27,.27,.71,.27,.98,0l1.85-1.85c.13-.14,.2-.31,.2-.49,0-.18-.07-.35-.2-.49l-1.85-1.85c-.27-.27-.71-.27-.98,0Z"/><g><path class="cls-11" d="M89.02,123.98c-.65,.95-1.74,1.58-2.99,1.58s-2.34-.63-2.99-1.58c.65-.95,1.75-1.57,2.99-1.57s2.34,.62,2.99,1.57Z"/><path class="cls-15" d="M87.04,123.98c0,.56-.46,1.02-1.02,1.02s-1.02-.46-1.02-1.02,.46-1.02,1.02-1.02,1.02,.46,1.02,1.02Z"/></g></g></svg>