<?xml version="1.0" encoding="UTF-8"?><svg id="Layer_2" xmlns="http://www.w3.org/2000/svg" xmlns:xlink="http://www.w3.org/1999/xlink" viewBox="0 0 104.95 186.57"><defs><style>.cls-1{font-size:3px;}.cls-1,.cls-2,.cls-3,.cls-4,.cls-5{font-family:Montserrat-Bold, Montserrat;}.cls-1,.cls-4{fill:#727272;}.cls-6{fill:none;}.cls-7{letter-spacing:0em;}.cls-8{letter-spacing:0em;}.cls-9{letter-spacing:-.02em;}.cls-10{letter-spacing:0em;}.cls-2{font-size:6.08px;}.cls-2,.cls-11,.cls-5{fill:#fff;}.cls-12{letter-spacing:-.04em;}.cls-13{letter-spacing:-.02em;}.cls-14{fill:#f99e1d;}.cls-15{fill:#e6ecf4;}.cls-16{fill:#3733bf;}.cls-17{fill:#339ce9;}.cls-18{fill:#57b952;}.cls-19{letter-spacing:0em;}.cls-20{letter-spacing:0em;}.cls-21{letter-spacing:0em;}.cls-22{letter-spacing:0em;}.cls-23{letter-spacing:0em;}.cls-24{letter-spacing:-.05em;}.cls-25{letter-spacing:0em;}.cls-26{clip-path:url(#clippath-1);}.cls-27{letter-spacing:0em;}.cls-28{letter-spacing:0em;}.cls-29{letter-spacing:-.01em;}.cls-3{fill:#2b2b2b;font-size:3.98px;}.cls-30{letter-spacing:0em;}.cls-31{letter-spacing:-.01em;}.cls-32{letter-spacing:0em;}.cls-33{letter-spacing:.01em;}.cls-34{letter-spacing:.01em;}.cls-35{letter-spacing:0em;}.cls-36{letter-spacing:0em;}.cls-37{letter-spacing:-.06em;}.cls-38{letter-spacing:0em;}.cls-39{letter-spacing:0em;}.cls-40{letter-spacing:-.02em;}.cls-41{letter-spacing:-.02em;}.cls-42{letter-spacing:-.02em;}.cls-43{letter-spacing:-.02em;}.cls-44{letter-spacing:-.02em;}.cls-4,.cls-5{font-size:2.54px;}</style><clipPath id="clippath-1"><rect class="cls-6" x="5.33" y="162.36" width="92.05" height="24.21"/></clipPath></defs><g id="OBJECTS"><rect class="cls-6" width="104.95" height="186.57" rx="3.97" ry="3.97"/><text class="cls-2" transform="translate(35.99 30.8)"><tspan x="0" y="0">Meu </tspan><tspan class="cls-29" x="15.54" y="0">P</tspan><tspan x="19.92" y="0">e</tspan><tspan class="cls-33" x="23.75" y="0">r</tspan><tspan x="26.47" y="0">fil</tspan></text><rect class="cls-11" x="12.35" y="66.76" width="80.25" height="11.22" rx="4.44" ry="4.44"/><text class="cls-3" transform="translate(18.32 73.72)"><tspan class="cls-24" x="0" y="0">T</tspan><tspan x="2.24" y="0">e</tspan><tspan class="cls-27" x="4.76" y="0">r</tspan><tspan x="6.44" y="0">esa dos San</tspan><tspan class="cls-42" x="31.01" y="0">t</tspan><tspan x="32.68" y="0">os</tspan></text><rect class="cls-11" x="12.35" y="79.82" width="80.25" height="11.22" rx="4.44" ry="4.44"/><text class="cls-3" transform="translate(18.32 86.78)"><tspan x="0" y="0">Rua das </tspan><tspan class="cls-35" x="17.71" y="0">m</tspan><tspan x="21.91" y="0">o</tspan><tspan class="cls-21" x="24.52" y="0">r</tspan><tspan class="cls-35" x="26.21" y="0">a</tspan><tspan x="28.69" y="0">das, 223, ap 22</tspan></text><rect class="cls-11" x="12.35" y="92.88" width="47.05" height="11.22" rx="4.44" ry="4.44"/><rect class="cls-11" x="12.35" y="116.67" width="80.25" height="45.7" rx="4.44" ry="4.44"/><text class="cls-3" transform="translate(18.32 99.85)"><tspan class="cls-31" x="0" y="0">F</tspan><tspan x="2.49" y="0">o</tspan><tspan class="cls-34" x="5.1" y="0">r</tspan><tspan x="6.88" y="0">tal</tspan><tspan class="cls-38" x="12.27" y="0">e</tspan><tspan x="14.76" y="0">za</tspan></text><rect class="cls-11" x="62.56" y="92.88" width="29.85" height="11.22" rx="4.44" ry="4.44"/><rect class="cls-11" x="35.19" y="107.58" width="31.82" height="5.61" rx="2.43" ry="2.43"/><text class="cls-3" transform="translate(67.69 99.85)"><tspan x="0" y="0">6088</tspan><tspan class="cls-32" x="10.5" y="0">2</tspan><tspan class="cls-20" x="12.84" y="0">-</tspan><tspan x="14.39" y="0">610</tspan></text><g><path class="cls-11" d="M11.74,29.64h0c.16-.16,.42-.16,.59,0l1.11,1.11c.16,.16,.16,.42,0,.59h0c-.16,.16-.42,.16-.59,0l-1.11-1.11c-.16-.16-.16-.42,0-.59Z"/><path class="cls-11" d="M13.44,28.52h0c.16,.16,.16,.42,0,.59l-1.11,1.11c-.16,.16-.42,.16-.59,0h0c-.16-.16-.16-.42,0-.59l1.11-1.11c.16-.16,.42-.16,.59,0Z"/></g><rect class="cls-11" x="43.06" y="38.59" width="18.63" height="18.63" rx="9.32" ry="9.32"/><path class="cls-15" d="M54.23,47.38c.62-.53,1.02-1.31,1.02-2.19,0-1.58-1.28-2.87-2.87-2.87s-2.87,1.28-2.87,2.87c0,.88,.4,1.66,1.02,2.19-.81,.45-1.36,1.32-1.36,2.31v2.9h6.41v-2.9c0-.99-.55-1.86-1.36-2.31Z"/><g><path class="cls-14" d="M61.26,54.16c0,1.03-.83,1.86-1.86,1.86s-1.86-.83-1.86-1.86,.83-1.86,1.86-1.86,1.86,.83,1.86,1.86Z"/><path class="cls-11" d="M60.66,54.16c0,.7-.56,1.26-1.26,1.26s-1.26-.56-1.26-1.26,.56-1.26,1.26-1.26,1.26,.56,1.26,1.26Z"/></g><text class="cls-4" transform="translate(38.22 111.13)"><tspan class="cls-30" x="0" y="0">E</tspan><tspan x="1.7" y="0">ditar </tspan><tspan class="cls-25" x="8.72" y="0">m</tspan><tspan x="11.4" y="0">eus d</tspan><tspan class="cls-8" x="18.59" y="0">a</tspan><tspan x="20.17" y="0">dos</tspan></text><rect class="cls-17" x="17.37" y="130.69" width="14.65" height="5.61" rx="2.43" ry="2.43"/><text class="cls-5" transform="translate(20.67 134.24)"><tspan x="0" y="0">Offi</tspan><tspan class="cls-28" x="5.09" y="0">c</tspan><tspan x="6.57" y="0">e</tspan></text><rect class="cls-17" x="34.45" y="130.69" width="25.85" height="5.61" rx="2.43" ry="2.43"/><text class="cls-5" transform="translate(37.78 134.24)"><tspan class="cls-41" x="0" y="0">C</tspan><tspan class="cls-10" x="1.82" y="0">ontabilid</tspan><tspan class="cls-25" x="13.73" y="0">a</tspan><tspan x="15.32" y="0">de</tspan></text><rect class="cls-17" x="62.56" y="130.69" width="18.7" height="5.61" rx="2.43" ry="2.43"/><text class="cls-5" transform="translate(66.18 134.24)"><tspan x="0" y="0">Planilhas</tspan></text><rect class="cls-17" x="57.3" y="138.34" width="24.08" height="5.61" rx="2.43" ry="2.43"/><text class="cls-5" transform="translate(60.42 141.89)"><tspan class="cls-39" x="0" y="0">A</tspan><tspan class="cls-44" x="1.94" y="0">t</tspan><tspan x="3" y="0">e</tspan><tspan class="cls-25" x="4.61" y="0">n</tspan><tspan x="6.38" y="0">di</tspan><tspan class="cls-8" x="8.91" y="0">m</tspan><tspan x="11.59" y="0">en</tspan><tspan class="cls-44" x="14.96" y="0">t</tspan><tspan x="16.02" y="0">o</tspan></text><rect class="cls-17" x="17.37" y="138.48" width="37.52" height="5.61" rx="2.43" ry="2.43"/><text class="cls-5" transform="translate(20.27 142.03)"><tspan class="cls-9" x="0" y="0">C</tspan><tspan class="cls-23" x="1.82" y="0">ontas a </tspan><tspan class="cls-7" x="12.28" y="0">p</tspan><tspan class="cls-8" x="14.01" y="0">a</tspan><tspan x="15.6" y="0">ga</tspan><tspan class="cls-12" x="18.95" y="0">r</tspan><tspan class="cls-37" x="19.95" y="0">/</tspan><tspan class="cls-7" x="20.78" y="0">r</tspan><tspan x="21.86" y="0">e</tspan><tspan class="cls-28" x="23.46" y="0">c</tspan><tspan x="24.95" y="0">eber</tspan></text><rect class="cls-17" x="17.37" y="145.96" width="37.52" height="5.61" rx="2.43" ry="2.43"/><text class="cls-5" transform="translate(20.03 149.51)"><tspan x="0" y="0">Rotinas </tspan><tspan class="cls-8" x="10.81" y="0">a</tspan><tspan x="12.4" y="0">dminist</tspan><tspan class="cls-19" x="22.58" y="0">r</tspan><tspan x="23.65" y="0">ati</tspan><tspan class="cls-13" x="27.1" y="0">v</tspan><tspan x="28.57" y="0">as</tspan></text><text class="cls-1" transform="translate(17.8 123.94)"><tspan x="0" y="0">Minhas qualific</tspan><tspan class="cls-36" x="24.07" y="0">a</tspan><tspan class="cls-22" x="25.94" y="0">ç</tspan><tspan x="27.69" y="0">ões</tspan></text><g><rect class="cls-18" x="80.19" y="120.53" width="7.36" height="7.36" rx=".8" ry=".8"/><g><path class="cls-11" d="M83.93,125.91h0c-.25,0-.46-.2-.46-.46v-2.49c0-.25,.2-.46,.46-.46h0c.25,0,.46,.2,.46,.46v2.49c0,.25-.2,.46-.46,.46Z"/><path class="cls-11" d="M82.23,124.21h0c0-.25,.2-.46,.46-.46h2.49c.25,0,.46,.2,.46,.46h0c0,.25-.2,.46-.46,.46h-2.49c-.25,0-.46-.2-.46-.46Z"/></g></g><g class="cls-26"><g><rect class="cls-11" x="12.35" y="166.72" width="80.25" height="45.7" rx="4.44" ry="4.44"/><text class="cls-1" transform="translate(17.8 174)"><tspan x="0" y="0">Meus docu</tspan><tspan class="cls-36" x="17.13" y="0">m</tspan><tspan x="20.3" y="0">en</tspan><tspan class="cls-43" x="24.27" y="0">t</tspan><tspan x="25.52" y="0">o</tspan><tspan class="cls-40" x="27.48" y="0">s</tspan></text><g><path class="cls-14" d="M29.68,182.37v7.33c0,.33-.27,.6-.6,.6h-7.14c-.33,0-.6-.27-.6-.6v-9.62c0-.33,.27-.6,.6-.6h4.85l2.89,2.89Z"/><path class="cls-16" d="M26.79,181.77v-2.29l2.89,2.89h-2.29c-.33,0-.6-.27-.6-.6Z"/><path class="cls-16" d="M27.65,184.42h-4.27c-.14,0-.26-.12-.26-.26h0c0-.14,.12-.26,.26-.26h4.27c.14,0,.26,.12,.26,.26h0c0,.14-.12,.26-.26,.26Z"/><path class="cls-16" d="M27.65,185.76h-4.27c-.14,0-.26-.12-.26-.26h0c0-.14,.12-.26,.26-.26h4.27c.14,0,.26,.12,.26,.26h0c0,.15-.12,.26-.26,.26Z"/></g><g><path class="cls-14" d="M46.2,182.37v7.33c0,.33-.27,.6-.6,.6h-7.14c-.33,0-.6-.27-.6-.6v-9.62c0-.33,.27-.6,.6-.6h4.85l2.89,2.89Z"/><path class="cls-16" d="M43.31,181.77v-2.29l2.89,2.89h-2.29c-.33,0-.6-.27-.6-.6Z"/><path class="cls-16" d="M44.17,184.42h-4.27c-.14,0-.26-.12-.26-.26h0c0-.14,.12-.26,.26-.26h4.27c.14,0,.26,.12,.26,.26h0c0,.14-.12,.26-.26,.26Z"/><path class="cls-16" d="M44.17,185.76h-4.27c-.14,0-.26-.12-.26-.26h0c0-.14,.12-.26,.26-.26h4.27c.14,0,.26,.12,.26,.26h0c0,.15-.12,.26-.26,.26Z"/></g><g><path class="cls-14" d="M62.72,182.37v7.33c0,.33-.27,.6-.6,.6h-7.14c-.33,0-.6-.27-.6-.6v-9.62c0-.33,.27-.6,.6-.6h4.85l2.89,2.89Z"/><path class="cls-16" d="M59.83,181.77v-2.29l2.89,2.89h-2.29c-.33,0-.6-.27-.6-.6Z"/><path class="cls-16" d="M60.68,184.42h-4.27c-.14,0-.26-.12-.26-.26h0c0-.14,.12-.26,.26-.26h4.27c.14,0,.26,.12,.26,.26h0c0,.14-.12,.26-.26,.26Z"/><path class="cls-16" d="M60.68,185.76h-4.27c-.14,0-.26-.12-.26-.26h0c0-.14,.12-.26,.26-.26h4.27c.14,0,.26,.12,.26,.26h0c0,.15-.12,.26-.26,.26Z"/></g><g><rect class="cls-14" x="73.23" y="179.26" width="11.15" height="11.15" rx=".8" ry=".8"/><g><path class="cls-11" d="M78.89,187.41h0c-.38,0-.69-.31-.69-.69v-3.77c0-.38,.31-.69,.69-.69h0c.38,0,.69,.31,.69,.69v3.77c0,.38-.31,.69-.69,.69Z"/><path class="cls-11" d="M76.31,184.83h0c0-.38,.31-.69,.69-.69h3.77c.38,0,.69,.31,.69,.69h0c0,.38-.31,.69-.69,.69h-3.77c-.38,0-.69-.31-.69-.69Z"/></g></g></g></g></g></svg>