<?xml version="1.0" encoding="UTF-8"?><svg id="Layer_2" xmlns="http://www.w3.org/2000/svg" viewBox="0 0 104.95 186.57"><defs><style>.cls-1{fill:none;}.cls-2{letter-spacing:-.02em;}.cls-3{letter-spacing:-.01em;}.cls-4{letter-spacing:0em;}.cls-5{fill:#f99e1d;}.cls-6,.cls-7{fill:#fff;}.cls-8{fill:#36ace2;}.cls-9{fill:#149314;font-size:6px;}.cls-9,.cls-10,.cls-11,.cls-7{font-family:Montserrat-Bold, Montserrat;}.cls-12{letter-spacing:-.02em;}.cls-13{letter-spacing:.01em;}.cls-14{letter-spacing:0em;}.cls-15{letter-spacing:.08em;}.cls-16{letter-spacing:0em;}.cls-17{letter-spacing:0em;}.cls-10{font-size:3.5px;}.cls-10,.cls-11{fill:#2b2b2b;}.cls-18{letter-spacing:0em;}.cls-11{font-size:3.98px;}.cls-7{font-size:4.05px;}.cls-19{letter-spacing:-.01em;}.cls-20{letter-spacing:0em;}.cls-21{letter-spacing:0em;}.cls-22{letter-spacing:.02em;}.cls-23{letter-spacing:0em;}.cls-24{letter-spacing:0em;}.cls-25{letter-spacing:0em;}.cls-26{letter-spacing:-.01em;}.cls-27{letter-spacing:0em;}.cls-28{letter-spacing:0em;}.cls-29{opacity:.8;}.cls-30{fill:#7f7f7f;font-family:Montserrat-Medium, Montserrat;font-size:5px;}.cls-31{letter-spacing:0em;}.cls-32{letter-spacing:-.02em;}</style></defs><g id="OBJECTS"><rect class="cls-1" width="104.95" height="186.57"/><path class="cls-6" d="M54.08,176.53c-.16-.16-.42-.16-.59,0l-.82,.82-.82-.82c-.16-.16-.42-.16-.59,0-.16,.16-.16,.42,0,.59l1.11,1.11c.08,.08,.19,.12,.29,.12,.11,0,.21-.04,.29-.12l1.11-1.11c.16-.16,.16-.42,0-.59Z"/><rect class="cls-6" x="12.23" y="22.56" width="80.25" height="13.85" rx="4.44" ry="4.44"/><text class="cls-11" transform="translate(18.2 30.84)"><tspan x="0" y="0">E</tspan><tspan class="cls-27" x="2.67" y="0">n</tspan><tspan x="5.45" y="0">genha</tspan><tspan class="cls-21" x="18.72" y="0">r</tspan><tspan x="20.42" y="0">ia</tspan></text><rect class="cls-6" x="12.23" y="38.83" width="80.25" height="9.2" rx="4.44" ry="4.44"/><text class="cls-30" transform="translate(18.2 45.33)"><tspan class="cls-32" x="0" y="0">F</tspan><tspan x="3.09" y="0">o</tspan><tspan class="cls-22" x="6.26" y="0">r</tspan><tspan x="8.39" y="0">tal</tspan><tspan class="cls-4" x="14.84" y="0">e</tspan><tspan x="17.88" y="0">za</tspan></text><rect class="cls-6" x="12.23" y="50.38" width="80.25" height="9.2" rx="4.44" ry="4.44"/><text class="cls-30" transform="translate(18.17 56.92)"><tspan x="0" y="0">R$ 1</tspan><tspan class="cls-18" x="9.93" y="0">.</tspan><tspan x="11.12" y="0">80</tspan><tspan class="cls-3" x="17.67" y="0">0,</tspan><tspan x="22.02" y="0">00 a R$ 3</tspan><tspan class="cls-13" x="45.32" y="0">.</tspan><tspan class="cls-31" x="46.5" y="0">2</tspan><tspan x="49.36" y="0">0</tspan><tspan class="cls-3" x="52.69" y="0">0,</tspan><tspan x="57.04" y="0">00</tspan></text><g><g class="cls-29"><rect class="cls-6" x="12.53" y="126.66" width="79.98" height="14.02" rx="2.76" ry="2.76"/></g><text class="cls-9" transform="translate(78.73 135.4)"><tspan x="0" y="0">11</tspan></text><text class="cls-10" transform="translate(18.64 134.67)"><tspan x="0" y="0">E</tspan><tspan class="cls-28" x="2.35" y="0">n</tspan><tspan x="4.79" y="0">genha</tspan><tspan class="cls-20" x="16.44" y="0">r</tspan><tspan x="17.94" y="0">ia Civil</tspan></text><path class="cls-5" d="M87.44,131.33c-.27,.27-.27,.71,0,.98l1.36,1.36-1.36,1.36c-.27,.27-.27,.71,0,.98,.27,.27,.71,.27,.98,0l1.85-1.85c.13-.14,.2-.31,.2-.49,0-.18-.07-.35-.2-.49l-1.85-1.85c-.27-.27-.71-.27-.98,0Z"/></g><g><g class="cls-29"><rect class="cls-6" x="12.53" y="142.47" width="79.98" height="14.02" rx="2.76" ry="2.76"/></g><text class="cls-9" transform="translate(79.61 151.21)"><tspan x="0" y="0">9</tspan></text><text class="cls-10" transform="translate(18.64 150.48)"><tspan x="0" y="0">E</tspan><tspan class="cls-28" x="2.35" y="0">n</tspan><tspan x="4.79" y="0">genha</tspan><tspan class="cls-20" x="16.44" y="0">r</tspan><tspan x="17.94" y="0">ia Elét</tspan><tspan class="cls-20" x="29.27" y="0">r</tspan><tspan x="30.77" y="0">ica</tspan></text><path class="cls-5" d="M87.44,147.14c-.27,.27-.27,.71,0,.98l1.36,1.36-1.36,1.36c-.27,.27-.27,.71,0,.98,.27,.27,.71,.27,.98,0l1.85-1.85c.13-.14,.2-.31,.2-.49,0-.18-.07-.35-.2-.49l-1.85-1.85c-.27-.27-.71-.27-.98,0Z"/></g><g><g class="cls-29"><rect class="cls-6" x="12.53" y="158.28" width="79.98" height="14.02" rx="2.76" ry="2.76"/></g><text class="cls-9" transform="translate(79.88 167.02)"><tspan x="0" y="0">3</tspan></text><text class="cls-10" transform="translate(18.64 166.29)"><tspan x="0" y="0">E</tspan><tspan class="cls-28" x="2.35" y="0">n</tspan><tspan x="4.79" y="0">genha</tspan><tspan class="cls-20" x="16.44" y="0">r</tspan><tspan x="17.94" y="0">ia Ambiental</tspan></text><path class="cls-5" d="M87.44,162.95c-.27,.27-.27,.71,0,.98l1.36,1.36-1.36,1.36c-.27,.27-.27,.71,0,.98,.27,.27,.71,.27,.98,0l1.85-1.85c.13-.14,.2-.31,.2-.49,0-.18-.07-.35-.2-.49l-1.85-1.85c-.27-.27-.71-.27-.98,0Z"/></g><text class="cls-7" transform="translate(21.72 118.24)"><tspan class="cls-19" x="0" y="0">F</tspan><tspan x="2.53" y="0">o</tspan><tspan class="cls-24" x="5.19" y="0">r</tspan><tspan x="6.91" y="0">am e</tspan><tspan class="cls-17" x="17.36" y="0">n</tspan><tspan class="cls-24" x="20.18" y="0">c</tspan><tspan x="22.55" y="0">ont</tspan><tspan class="cls-24" x="29.77" y="0">r</tspan><tspan class="cls-17" x="31.48" y="0">a</tspan><tspan x="34.01" y="0">das 23 </tspan><tspan class="cls-2" x="48.55" y="0">v</tspan><tspan class="cls-17" x="50.9" y="0">a</tspan><tspan x="53.42" y="0">gas:</tspan></text><g><path class="cls-8" d="M88.09,54.68h0c-.16-.16-.42-.16-.59,0l-1.11,1.11c-.16,.16-.16,.42,0,.59h0c.16,.16,.42,.16,.59,0l1.11-1.11c.16-.16,.16-.42,0-.59Z"/><path class="cls-8" d="M86.39,53.57h0c-.16,.16-.16,.42,0,.59l1.11,1.11c.16,.16,.42,.16,.59,0h0c.16-.16,.16-.42,0-.59l-1.11-1.11c-.16-.16-.42-.16-.59,0Z"/></g><rect class="cls-6" x="11.97" y="62.03" width="80.25" height="9.2" rx="4.44" ry="4.44"/><text class="cls-30" transform="translate(17.91 68.57)"><tspan class="cls-4" x="0" y="0">A</tspan><tspan class="cls-12" x="3.63" y="0">t</tspan><tspan x="5.62" y="0">é 5</tspan><tspan class="cls-14" x="12.89" y="0">k</tspan><tspan x="15.94" y="0">m da minha casa</tspan></text><g><path class="cls-8" d="M87.83,66.33h0c-.16-.16-.42-.16-.59,0l-1.11,1.11c-.16,.16-.16,.42,0,.59h0c.16,.16,.42,.16,.59,0l1.11-1.11c.16-.16,.16-.42,0-.59Z"/><path class="cls-8" d="M86.13,65.22h0c-.16,.16-.16,.42,0,.59l1.11,1.11c.16,.16,.42,.16,.59,0h0c.16-.16,.16-.42,0-.59l-1.11-1.11c-.16-.16-.42-.16-.59,0Z"/></g><rect class="cls-6" x="11.97" y="73.59" width="80.25" height="9.2" rx="4.44" ry="4.44"/><text class="cls-30" transform="translate(17.91 80.13)"><tspan class="cls-25" x="0" y="0">C</tspan><tspan x="3.58" y="0">a</tspan><tspan class="cls-22" x="6.57" y="0">r</tspan><tspan class="cls-12" x="8.7" y="0">t</tspan><tspan x="10.68" y="0">ei</tspan><tspan class="cls-23" x="15.13" y="0">r</tspan><tspan x="17.14" y="0">a assin</tspan><tspan class="cls-16" x="34.27" y="0">a</tspan><tspan x="37.28" y="0">da</tspan></text><g><path class="cls-8" d="M87.83,77.89h0c-.16-.16-.42-.16-.59,0l-1.11,1.11c-.16,.16-.16,.42,0,.59h0c.16,.16,.42,.16,.59,0l1.11-1.11c.16-.16,.16-.42,0-.59Z"/><path class="cls-8" d="M86.13,76.78h0c-.16,.16-.16,.42,0,.59l1.11,1.11c.16,.16,.42,.16,.59,0h0c.16-.16,.16-.42,0-.59l-1.11-1.11c-.16-.16-.42-.16-.59,0Z"/></g><rect class="cls-6" x="11.97" y="85.09" width="80.25" height="9.2" rx="4.44" ry="4.44"/><text class="cls-30" transform="translate(17.91 91.64)"><tspan class="cls-26" x="0" y="0">T</tspan><tspan class="cls-23" x="2.87" y="0">r</tspan><tspan x="4.88" y="0">a</tspan><tspan class="cls-4" x="7.87" y="0">b</tspan><tspan x="11.25" y="0">al</tspan><tspan class="cls-16" x="15.64" y="0">h</tspan><tspan x="19.06" y="0">o </tspan><tspan class="cls-3" x="23.58" y="0">r</tspan><tspan x="25.57" y="0">e</tspan><tspan class="cls-16" x="28.63" y="0">m</tspan><tspan x="33.93" y="0">o</tspan><tspan class="cls-12" x="37.1" y="0">t</tspan><tspan x="39.08" y="0">o</tspan></text><g><path class="cls-8" d="M87.83,89.4h0c-.16-.16-.42-.16-.59,0l-1.11,1.11c-.16,.16-.16,.42,0,.59h0c.16,.16,.42,.16,.59,0l1.11-1.11c.16-.16,.16-.42,0-.59Z"/><path class="cls-8" d="M86.13,88.29h0c-.16,.16-.16,.42,0,.59l1.11,1.11c.16,.16,.42,.16,.59,0h0c.16-.16,.16-.42,0-.59l-1.11-1.11c-.16-.16-.42-.16-.59,0Z"/></g><rect class="cls-6" x="11.97" y="96.53" width="80.25" height="9.2" rx="4.44" ry="4.44"/><text class="cls-30" transform="translate(17.91 103.07)"><tspan x="0" y="0">Be</tspan><tspan class="cls-16" x="6.84" y="0">n</tspan><tspan x="10.26" y="0">e</tspan><tspan class="cls-15" x="13.32" y="0">f</tspan><tspan x="15.49" y="0">ícios...</tspan></text><g><path class="cls-8" d="M87.83,100.83h0c-.16-.16-.42-.16-.59,0l-1.11,1.11c-.16,.16-.16,.42,0,.59h0c.16,.16,.42,.16,.59,0l1.11-1.11c.16-.16,.16-.42,0-.59Z"/><path class="cls-8" d="M86.13,99.72h0c-.16,.16-.16,.42,0,.59l1.11,1.11c.16,.16,.42,.16,.59,0h0c.16-.16,.16-.42,0-.59l-1.11-1.11c-.16-.16-.42-.16-.59,0Z"/></g></g></svg>