<?xml version="1.0" encoding="UTF-8"?><svg id="Layer_2" xmlns="http://www.w3.org/2000/svg" xmlns:xlink="http://www.w3.org/1999/xlink" viewBox="0 0 218.73 388.85"><defs><style>.cls-1{fill:none;}.cls-2{letter-spacing:-.02em;}.cls-3{fill:#f99e1d;}.cls-4{fill:#36ace2;}.cls-5{fill:#57b952;}.cls-6{letter-spacing:-.05em;}.cls-7{letter-spacing:-.01em;}.cls-8{letter-spacing:0em;}.cls-9{filter:url(#drop-shadow-1);}.cls-10{letter-spacing:0em;}.cls-11{letter-spacing:0em;}.cls-12{fill:#2b2b2b;font-size:13.14px;}.cls-12,.cls-13{font-family:Montserrat-Bold, Montserrat;}.cls-14{letter-spacing:0em;}.cls-15{letter-spacing:0em;}.cls-13{fill:#fff;font-size:24px;}.cls-16{fill:#f2f2f4;font-family:Montserrat-Medium, Montserrat;font-size:8px;}</style><filter id="drop-shadow-1" filterUnits="userSpaceOnUse"><feOffset dx="4" dy="4"/><feGaussianBlur result="blur" stdDeviation="7"/><feFlood flood-color="#000" flood-opacity=".25"/><feComposite in2="blur" operator="in"/><feComposite in="SourceGraphic"/></filter></defs><g id="OBJECTS"><rect class="cls-1" width="218.73" height="388.85" rx="3.97" ry="3.97" transform="translate(218.73 388.85) rotate(180)"/><text class="cls-16" transform="translate(12.87 371.33)"><tspan x="0" y="0">p</tspan><tspan class="cls-7" x="5.46" y="0">r</tspan><tspan class="cls-14" x="8.64" y="0">ecisa de ajud</tspan><tspan class="cls-6" x="61.71" y="0">a</tspan><tspan x="66.12" y="0">?</tspan></text><g><text class="cls-12" transform="translate(144.54 340.45)"><tspan x="0" y="0">Ent</tspan><tspan class="cls-10" x="23.61" y="0">r</tspan><tspan x="29.18" y="0">ar</tspan></text><path class="cls-3" d="M203.98,333.94l-6.28-6.28c-.87-.87-2.27-.87-3.14,0-.87,.87-.87,2.27,0,3.14l4.72,4.72-4.72,4.72c-.87,.87-.87,2.27,0,3.14,.87,.87,2.27,.87,3.14,0l6.28-6.28c.44-.44,.65-1.01,.65-1.58,0-.57-.21-1.14-.65-1.58Z"/><text class="cls-12" transform="translate(125.84 370.04)"><tspan class="cls-11" x="0" y="0">C</tspan><tspan class="cls-8" x="9.58" y="0">a</tspan><tspan x="17.76" y="0">dast</tspan><tspan class="cls-2" x="47.65" y="0">r</tspan><tspan x="53.04" y="0">o</tspan></text><path class="cls-3" d="M203.98,363.53l-6.28-6.28c-.87-.87-2.27-.87-3.14,0-.87,.87-.87,2.27,0,3.14l4.72,4.72-4.72,4.72c-.87,.87-.87,2.27,0,3.14,.87,.87,2.27,.87,3.14,0l6.28-6.28c.44-.44,.65-1.01,.65-1.58,0-.57-.21-1.14-.65-1.58Z"/></g><g><text class="cls-13" transform="translate(88.22 188.76)"><tspan x="0" y="0">I</tspan><tspan class="cls-15" x="7.87" y="0">D</tspan><tspan x="27.46" y="0">T</tspan></text><g class="cls-9"><path class="cls-5" d="M90.05,102.23h-9.36c-3.88,0-7.02,3.14-7.02,7.02v46.03c0,3.88,3.14,7.02,7.02,7.02h9.36v-60.06Z"/><path class="cls-4" d="M114.62,102.23h-20.6v13.36h16.82c5.87,0,10.62,4.76,10.62,10.62v12.45c0,5.87-4.76,10.62-10.62,10.62h-20.78v13.01h24.57c12.91,0,23.38-10.47,23.38-23.38v-13.3c0-12.91-10.47-23.38-23.38-23.38Z"/><circle class="cls-4" cx="81.86" cy="91.6" r="7.91"/><circle class="cls-5" cx="130.09" cy="91.6" r="7.91"/><path class="cls-5" d="M138,125.61v.61c0-5.87,4.76-10.62,10.62-10.62h20.82v-13.36h-24.6c-5.76,0-11.03,2.09-15.11,5.54,5.06,4.29,8.27,10.69,8.27,17.84Z"/></g></g></g></svg>