<?xml version="1.0" encoding="utf-8"?>
<!-- Generator: Adobe Illustrator 26.3.1, SVG Export Plug-In . SVG Version: 6.00 Build 0)  -->
<svg version="1.1" id="Layer_2_00000162343727983958686590000008584078769847886523_"
	 xmlns="http://www.w3.org/2000/svg" xmlns:xlink="http://www.w3.org/1999/xlink" x="0px" y="0px" viewBox="0 0 104.9 186.6"
	 style="enable-background:new 0 0 104.9 186.6;" xml:space="preserve">
<style type="text/css">
	.st0{fill:none;}
	.st1{enable-background:new    ;}
	.st2{fill:#FFFFFF;}
	.st3{fill:#2B2B2B;}
	.st4{fill:#E6ECF4;}
	.st5{fill:#F99E1D;}
	.st6{fill:#727272;}
	.st7{fill:#339CE9;}
	.st8{fill:#57B952;}
	.st9{clip-path:url(#SVGID_00000005949768224063496080000009203866364418183081_);}
	.st10{fill:#3733BF;}
</style>
<g id="OBJECTS">
	<g>
		<path class="st0" d="M4,0h97c2.2,0,4,1.8,4,4v178.6c0,2.2-1.8,4-4,4H4c-2.2,0-4-1.8-4-4V4C0,1.8,1.8,0,4,0z"/>
	</g>
	<g class="st1">
		<path class="st2" d="M40.4,30.8l0-2.6l-1.3,2.1h-0.4l-1.2-2v2.5h-0.9v-4.3h0.8l1.6,2.6l1.6-2.6h0.8l0,4.3H40.4z"/>
		<path class="st2" d="M45.4,29.4h-2.5c0.1,0.4,0.4,0.7,0.9,0.7c0.3,0,0.6-0.1,0.8-0.3l0.5,0.5c-0.3,0.3-0.8,0.5-1.3,0.5
			c-1.1,0-1.9-0.7-1.9-1.7c0-1,0.7-1.7,1.7-1.7c1,0,1.7,0.6,1.7,1.7C45.4,29.3,45.4,29.4,45.4,29.4z M42.9,28.9h1.6
			c-0.1-0.4-0.4-0.7-0.8-0.7C43.3,28.2,43,28.5,42.9,28.9z"/>
		<path class="st2" d="M49.4,27.5v3.3h-0.9v-0.4c-0.2,0.3-0.6,0.4-1,0.4c-0.8,0-1.4-0.5-1.4-1.5v-1.8H47v1.7c0,0.5,0.2,0.8,0.7,0.8
			c0.4,0,0.8-0.3,0.8-0.9v-1.6H49.4z"/>
	</g>
	<g class="st1">
		<path class="st2" d="M55.7,28.1c0,0.9-0.7,1.5-1.8,1.5H53v1.2h-1v-4.3h1.8C55,26.5,55.7,27.1,55.7,28.1z M54.7,28.1
			c0-0.5-0.3-0.7-0.9-0.7H53v1.5h0.8C54.4,28.8,54.7,28.6,54.7,28.1z"/>
	</g>
	<g class="st1">
		<path class="st2" d="M59.5,29.4h-2.5c0.1,0.4,0.4,0.7,0.9,0.7c0.3,0,0.6-0.1,0.8-0.3l0.5,0.5c-0.3,0.3-0.8,0.5-1.3,0.5
			c-1.1,0-1.9-0.7-1.9-1.7c0-1,0.7-1.7,1.7-1.7c1,0,1.7,0.6,1.7,1.7C59.5,29.3,59.5,29.4,59.5,29.4z M57,28.9h1.6
			c-0.1-0.4-0.4-0.7-0.8-0.7C57.4,28.2,57.1,28.5,57,28.9z"/>
	</g>
	<g class="st1">
		<path class="st2" d="M62.2,27.5v0.9c-0.1,0-0.1,0-0.2,0c-0.5,0-0.9,0.3-0.9,0.9v1.5h-0.9v-3.3h0.9V28
			C61.3,27.6,61.7,27.5,62.2,27.5z"/>
	</g>
	<g class="st1">
		<path class="st2" d="M63.9,27.5v0.1h0.8v0.7H64v2.5H63v-2.5h-0.5v-0.7H63v-0.1c0-0.7,0.4-1.2,1.3-1.2c0.3,0,0.5,0.1,0.7,0.2
			l-0.2,0.7C64.6,27,64.5,27,64.4,27C64.1,27,63.9,27.1,63.9,27.5z M65.6,26.5c0-0.3,0.2-0.5,0.6-0.5c0.4,0,0.6,0.2,0.6,0.5
			c0,0.3-0.2,0.5-0.6,0.5C65.9,27.1,65.6,26.8,65.6,26.5z M65.7,27.5h0.9v3.3h-0.9V27.5z"/>
		<path class="st2" d="M67.6,26.3h0.9v4.5h-0.9V26.3z"/>
	</g>
	<g>
		<path class="st2" d="M16.8,66.8h71.4c2.5,0,4.4,2,4.4,4.4v2.3c0,2.5-2,4.4-4.4,4.4H16.8c-2.5,0-4.4-2-4.4-4.4v-2.3
			C12.4,68.7,14.3,66.8,16.8,66.8z"/>
	</g>
	<g class="st1">
		<path class="st3" d="M19.2,71.5h-0.9v-0.5h2.4v0.5h-0.9v2.3h-0.6V71.5z"/>
	</g>
	<g class="st1">
		<path class="st3" d="M22.9,72.8h-1.6c0.1,0.3,0.3,0.4,0.6,0.4c0.2,0,0.4-0.1,0.5-0.2l0.3,0.4c-0.2,0.2-0.5,0.3-0.9,0.3
			c-0.7,0-1.2-0.5-1.2-1.1c0-0.6,0.5-1.1,1.1-1.1c0.6,0,1.1,0.4,1.1,1.1C22.9,72.7,22.9,72.8,22.9,72.8z M21.3,72.5h1.1
			c0-0.3-0.2-0.4-0.5-0.4C21.6,72,21.3,72.2,21.3,72.5z"/>
	</g>
	<g class="st1">
		<path class="st3" d="M24.7,71.5v0.6c-0.1,0-0.1,0-0.1,0c-0.3,0-0.6,0.2-0.6,0.6v1h-0.6v-2.1H24v0.3C24.1,71.7,24.4,71.5,24.7,71.5
			z"/>
	</g>
	<g class="st1">
		<path class="st3" d="M27.1,72.8h-1.6c0.1,0.3,0.3,0.4,0.6,0.4c0.2,0,0.4-0.1,0.5-0.2l0.3,0.4c-0.2,0.2-0.5,0.3-0.9,0.3
			c-0.7,0-1.2-0.5-1.2-1.1c0-0.6,0.5-1.1,1.1-1.1c0.6,0,1.1,0.4,1.1,1.1C27.1,72.7,27.1,72.8,27.1,72.8z M25.5,72.5h1.1
			c0-0.3-0.2-0.4-0.5-0.4C25.8,72,25.5,72.2,25.5,72.5z"/>
		<path class="st3" d="M27.4,73.5l0.2-0.4c0.2,0.1,0.5,0.2,0.7,0.2c0.3,0,0.4-0.1,0.4-0.2c0-0.4-1.3,0-1.3-0.8c0-0.4,0.4-0.7,1-0.7
			c0.3,0,0.6,0.1,0.8,0.2L29,72.2c-0.2-0.1-0.4-0.2-0.6-0.2c-0.3,0-0.4,0.1-0.4,0.2c0,0.4,1.3,0,1.3,0.9c0,0.4-0.4,0.7-1,0.7
			C27.9,73.8,27.5,73.7,27.4,73.5z"/>
		<path class="st3" d="M31.6,72.5v1.2H31v-0.3c-0.1,0.2-0.3,0.3-0.7,0.3c-0.5,0-0.8-0.3-0.8-0.6c0-0.4,0.3-0.6,0.9-0.6h0.5
			c0-0.3-0.2-0.4-0.5-0.4c-0.2,0-0.5,0.1-0.6,0.2l-0.2-0.4c0.2-0.2,0.6-0.3,0.9-0.3C31.2,71.5,31.6,71.8,31.6,72.5z M30.9,73v-0.2
			h-0.4c-0.3,0-0.4,0.1-0.4,0.3c0,0.2,0.1,0.3,0.3,0.3C30.7,73.3,30.9,73.2,30.9,73z"/>
		<path class="st3" d="M35.4,70.8v3h-0.6v-0.2c-0.2,0.2-0.4,0.3-0.7,0.3c-0.6,0-1.1-0.4-1.1-1.1s0.5-1.1,1.1-1.1
			c0.3,0,0.5,0.1,0.6,0.3v-1H35.4z M34.8,72.6c0-0.4-0.2-0.6-0.5-0.6c-0.3,0-0.5,0.2-0.5,0.6s0.2,0.6,0.5,0.6
			C34.6,73.2,34.8,73,34.8,72.6z"/>
		<path class="st3" d="M35.8,72.6c0-0.6,0.5-1.1,1.2-1.1c0.7,0,1.2,0.5,1.2,1.1s-0.5,1.1-1.2,1.1C36.3,73.8,35.8,73.3,35.8,72.6z
			 M37.6,72.6c0-0.4-0.2-0.6-0.5-0.6s-0.5,0.2-0.5,0.6s0.2,0.6,0.5,0.6S37.6,73,37.6,72.6z"/>
		<path class="st3" d="M38.4,73.5l0.2-0.4c0.2,0.1,0.5,0.2,0.7,0.2c0.3,0,0.4-0.1,0.4-0.2c0-0.4-1.3,0-1.3-0.8c0-0.4,0.4-0.7,1-0.7
			c0.3,0,0.6,0.1,0.8,0.2l-0.2,0.4c-0.2-0.1-0.4-0.2-0.6-0.2c-0.3,0-0.4,0.1-0.4,0.2c0,0.4,1.3,0,1.3,0.9c0,0.4-0.4,0.7-1,0.7
			C39,73.8,38.6,73.7,38.4,73.5z"/>
		<path class="st3" d="M41.7,73.4l0.2-0.5c0.2,0.2,0.6,0.3,0.9,0.3c0.4,0,0.5-0.1,0.5-0.3c0-0.5-1.6-0.2-1.6-1.2
			c0-0.5,0.4-0.9,1.2-0.9c0.4,0,0.7,0.1,1,0.2l-0.2,0.5c-0.3-0.1-0.5-0.2-0.8-0.2c-0.4,0-0.5,0.1-0.5,0.3c0,0.5,1.6,0.2,1.6,1.2
			c0,0.5-0.4,0.9-1.2,0.9C42.4,73.8,41.9,73.6,41.7,73.4z"/>
		<path class="st3" d="M46.3,72.5v1.2h-0.6v-0.3c-0.1,0.2-0.3,0.3-0.7,0.3c-0.5,0-0.8-0.3-0.8-0.6c0-0.4,0.3-0.6,0.9-0.6h0.5
			c0-0.3-0.2-0.4-0.5-0.4c-0.2,0-0.5,0.1-0.6,0.2l-0.2-0.4c0.2-0.2,0.6-0.3,0.9-0.3C45.9,71.5,46.3,71.8,46.3,72.5z M45.7,73v-0.2
			h-0.4c-0.3,0-0.4,0.1-0.4,0.3c0,0.2,0.1,0.3,0.3,0.3C45.4,73.3,45.6,73.2,45.7,73z"/>
		<path class="st3" d="M49,72.5v1.2h-0.6v-1.1c0-0.3-0.2-0.5-0.4-0.5c-0.3,0-0.5,0.2-0.5,0.6v1.1h-0.6v-2.1h0.6v0.3
			c0.2-0.2,0.4-0.3,0.7-0.3C48.7,71.5,49,71.8,49,72.5z"/>
	</g>
	<g class="st1">
		<path class="st3" d="M51,73.6c-0.1,0.1-0.3,0.1-0.5,0.1c-0.5,0-0.8-0.3-0.8-0.8v-0.9h-0.3v-0.5h0.3v-0.5h0.6v0.5h0.5v0.5h-0.5V73
			c0,0.2,0.1,0.3,0.3,0.3c0.1,0,0.2,0,0.3-0.1L51,73.6z"/>
	</g>
	<g class="st1">
		<path class="st3" d="M51.1,72.6c0-0.6,0.5-1.1,1.2-1.1c0.7,0,1.2,0.5,1.2,1.1s-0.5,1.1-1.2,1.1C51.6,73.8,51.1,73.3,51.1,72.6z
			 M52.9,72.6c0-0.4-0.2-0.6-0.5-0.6s-0.5,0.2-0.5,0.6s0.2,0.6,0.5,0.6S52.9,73,52.9,72.6z"/>
		<path class="st3" d="M53.7,73.5l0.2-0.4c0.2,0.1,0.5,0.2,0.7,0.2c0.3,0,0.4-0.1,0.4-0.2c0-0.4-1.3,0-1.3-0.8c0-0.4,0.4-0.7,1-0.7
			c0.3,0,0.6,0.1,0.8,0.2l-0.2,0.4c-0.2-0.1-0.4-0.2-0.6-0.2c-0.3,0-0.4,0.1-0.4,0.2c0,0.4,1.3,0,1.3,0.9c0,0.4-0.4,0.7-1,0.7
			C54.3,73.8,53.9,73.7,53.7,73.5z"/>
	</g>
	<g>
		<path class="st2" d="M16.8,79.8h71.4c2.5,0,4.4,2,4.4,4.4v2.3c0,2.5-2,4.4-4.4,4.4H16.8c-2.5,0-4.4-2-4.4-4.4v-2.3
			C12.4,81.8,14.3,79.8,16.8,79.8z"/>
	</g>
	<g class="st1">
		<path class="st3" d="M20.4,86.8L19.9,86h0h-0.6v0.8h-0.6V84h1.2c0.7,0,1.2,0.4,1.2,1c0,0.4-0.2,0.7-0.6,0.9l0.6,0.9H20.4z
			 M19.8,84.5h-0.5v1h0.5c0.4,0,0.6-0.2,0.6-0.5C20.4,84.7,20.2,84.5,19.8,84.5z"/>
		<path class="st3" d="M23.7,84.6v2.1h-0.6v-0.3c-0.2,0.2-0.4,0.3-0.7,0.3c-0.5,0-0.9-0.3-0.9-1v-1.2h0.6v1.1c0,0.4,0.2,0.5,0.4,0.5
			c0.3,0,0.5-0.2,0.5-0.6v-1.1H23.7z"/>
		<path class="st3" d="M26.2,85.6v1.2h-0.6v-0.3c-0.1,0.2-0.3,0.3-0.7,0.3c-0.5,0-0.8-0.3-0.8-0.6c0-0.4,0.3-0.6,0.9-0.6h0.5
			c0-0.3-0.2-0.4-0.5-0.4c-0.2,0-0.5,0.1-0.6,0.2l-0.2-0.4c0.2-0.2,0.6-0.3,0.9-0.3C25.8,84.6,26.2,84.9,26.2,85.6z M25.5,86.1v-0.2
			h-0.4c-0.3,0-0.4,0.1-0.4,0.3c0,0.2,0.1,0.3,0.4,0.3C25.3,86.4,25.5,86.3,25.5,86.1z"/>
		<path class="st3" d="M30,83.8v3h-0.6v-0.2c-0.2,0.2-0.4,0.3-0.7,0.3c-0.6,0-1.1-0.4-1.1-1.1s0.5-1.1,1.1-1.1
			c0.3,0,0.5,0.1,0.6,0.3v-1H30z M29.4,85.7c0-0.4-0.2-0.6-0.5-0.6c-0.3,0-0.5,0.2-0.5,0.6s0.2,0.6,0.5,0.6
			C29.2,86.3,29.4,86.1,29.4,85.7z"/>
		<path class="st3" d="M32.5,85.6v1.2h-0.6v-0.3c-0.1,0.2-0.3,0.3-0.7,0.3c-0.5,0-0.8-0.3-0.8-0.6c0-0.4,0.3-0.6,0.9-0.6h0.5
			c0-0.3-0.2-0.4-0.5-0.4c-0.2,0-0.5,0.1-0.6,0.2l-0.2-0.4c0.2-0.2,0.6-0.3,0.9-0.3C32.1,84.6,32.5,84.9,32.5,85.6z M31.9,86.1v-0.2
			h-0.4c-0.3,0-0.4,0.1-0.4,0.3c0,0.2,0.1,0.3,0.4,0.3C31.6,86.4,31.8,86.3,31.9,86.1z"/>
		<path class="st3" d="M32.9,86.6l0.2-0.4c0.2,0.1,0.5,0.2,0.7,0.2c0.3,0,0.4-0.1,0.4-0.2c0-0.4-1.3,0-1.3-0.8c0-0.4,0.4-0.7,1-0.7
			c0.3,0,0.6,0.1,0.8,0.2l-0.2,0.4c-0.2-0.1-0.4-0.2-0.6-0.2c-0.3,0-0.4,0.1-0.4,0.2c0,0.4,1.3,0,1.3,0.9c0,0.4-0.4,0.7-1,0.7
			C33.4,86.8,33,86.7,32.9,86.6z"/>
	</g>
	<g class="st1">
		<path class="st3" d="M39.9,85.6v1.2h-0.6v-1.1c0-0.3-0.2-0.5-0.4-0.5c-0.3,0-0.5,0.2-0.5,0.6v1.1h-0.6v-1.1c0-0.3-0.1-0.5-0.4-0.5
			c-0.3,0-0.5,0.2-0.5,0.6v1.1h-0.6v-2.1h0.6v0.2c0.2-0.2,0.4-0.3,0.7-0.3c0.3,0,0.6,0.1,0.7,0.4c0.2-0.2,0.5-0.4,0.8-0.4
			C39.6,84.6,39.9,84.9,39.9,85.6z"/>
	</g>
	<g class="st1">
		<path class="st3" d="M40.4,85.7c0-0.6,0.5-1.1,1.2-1.1c0.7,0,1.2,0.5,1.2,1.1s-0.5,1.1-1.2,1.1C40.9,86.8,40.4,86.4,40.4,85.7z
			 M42.1,85.7c0-0.4-0.2-0.6-0.5-0.6S41,85.3,41,85.7s0.2,0.6,0.5,0.6S42.1,86.1,42.1,85.7z"/>
	</g>
	<g class="st1">
		<path class="st3" d="M44.5,84.6v0.6c-0.1,0-0.1,0-0.1,0c-0.3,0-0.6,0.2-0.6,0.6v1h-0.6v-2.1h0.6v0.3
			C43.9,84.7,44.1,84.6,44.5,84.6z"/>
	</g>
	<g class="st1">
		<path class="st3" d="M46.7,85.6v1.2h-0.6v-0.3c-0.1,0.2-0.3,0.3-0.7,0.3c-0.5,0-0.8-0.3-0.8-0.6c0-0.4,0.3-0.6,0.9-0.6h0.5
			c0-0.3-0.2-0.4-0.5-0.4c-0.2,0-0.5,0.1-0.6,0.2l-0.2-0.4c0.2-0.2,0.6-0.3,0.9-0.3C46.3,84.6,46.7,84.9,46.7,85.6z M46.1,86.1v-0.2
			h-0.4c-0.3,0-0.4,0.1-0.4,0.3c0,0.2,0.1,0.3,0.3,0.3C45.8,86.4,46,86.3,46.1,86.1z"/>
	</g>
	<g class="st1">
		<path class="st3" d="M49.5,83.8v3h-0.6v-0.2c-0.2,0.2-0.4,0.3-0.7,0.3c-0.6,0-1.1-0.4-1.1-1.1s0.5-1.1,1.1-1.1
			c0.3,0,0.5,0.1,0.6,0.3v-1H49.5z M48.9,85.7c0-0.4-0.2-0.6-0.5-0.6c-0.3,0-0.5,0.2-0.5,0.6s0.2,0.6,0.5,0.6
			C48.6,86.3,48.9,86.1,48.9,85.7z"/>
		<path class="st3" d="M51.9,85.6v1.2h-0.6v-0.3c-0.1,0.2-0.3,0.3-0.7,0.3c-0.5,0-0.8-0.3-0.8-0.6c0-0.4,0.3-0.6,0.9-0.6h0.5
			c0-0.3-0.2-0.4-0.5-0.4c-0.2,0-0.5,0.1-0.6,0.2L50,84.9c0.2-0.2,0.6-0.3,0.9-0.3C51.6,84.6,51.9,84.9,51.9,85.6z M51.3,86.1v-0.2
			h-0.4c-0.3,0-0.4,0.1-0.4,0.3c0,0.2,0.1,0.3,0.4,0.3C51.1,86.4,51.3,86.3,51.3,86.1z"/>
		<path class="st3" d="M52.3,86.6l0.2-0.4c0.2,0.1,0.5,0.2,0.7,0.2c0.3,0,0.4-0.1,0.4-0.2c0-0.4-1.3,0-1.3-0.8c0-0.4,0.4-0.7,1-0.7
			c0.3,0,0.6,0.1,0.8,0.2L54,85.2c-0.2-0.1-0.4-0.2-0.6-0.2c-0.3,0-0.4,0.1-0.4,0.2c0,0.4,1.3,0,1.3,0.9c0,0.4-0.4,0.7-1,0.7
			C52.9,86.8,52.5,86.7,52.3,86.6z"/>
		<path class="st3" d="M55.2,86.4c0,0.1,0,0.2-0.1,0.4l-0.2,0.6h-0.4l0.2-0.6c-0.1-0.1-0.2-0.2-0.2-0.3c0-0.2,0.2-0.4,0.4-0.4
			C55.1,86,55.2,86.2,55.2,86.4z"/>
		<path class="st3" d="M58.7,86.3v0.5h-2.1v-0.4l1.1-1C58,85.1,58,85,58,84.8c0-0.2-0.2-0.3-0.4-0.3c-0.2,0-0.4,0.1-0.6,0.3
			l-0.5-0.3c0.2-0.3,0.6-0.5,1.1-0.5c0.6,0,1,0.3,1,0.8c0,0.3-0.1,0.5-0.5,0.9l-0.6,0.6H58.7z"/>
		<path class="st3" d="M61.1,86.3v0.5H59v-0.4l1.1-1c0.2-0.2,0.3-0.4,0.3-0.5c0-0.2-0.2-0.3-0.4-0.3c-0.2,0-0.4,0.1-0.6,0.3
			l-0.5-0.3c0.2-0.3,0.6-0.5,1.1-0.5c0.6,0,1,0.3,1,0.8c0,0.3-0.1,0.5-0.5,0.9l-0.6,0.6H61.1z"/>
		<path class="st3" d="M63.4,85.9c0,0.5-0.4,0.9-1.2,0.9c-0.4,0-0.8-0.1-1.1-0.3l0.3-0.5c0.2,0.2,0.5,0.3,0.8,0.3
			c0.3,0,0.5-0.1,0.5-0.4c0-0.2-0.2-0.3-0.5-0.3h-0.3v-0.4l0.6-0.6h-1.2V84h2v0.4l-0.6,0.7C63.2,85.2,63.4,85.5,63.4,85.9z"/>
		<path class="st3" d="M64.5,86.4c0,0.1,0,0.2-0.1,0.4l-0.2,0.6h-0.4l0.2-0.6c-0.1-0.1-0.2-0.2-0.2-0.3c0-0.2,0.2-0.4,0.4-0.4
			C64.3,86,64.5,86.2,64.5,86.4z"/>
		<path class="st3" d="M67.9,85.6v1.2h-0.6v-0.3c-0.1,0.2-0.3,0.3-0.7,0.3c-0.5,0-0.8-0.3-0.8-0.6c0-0.4,0.3-0.6,0.9-0.6h0.5
			c0-0.3-0.2-0.4-0.5-0.4c-0.2,0-0.5,0.1-0.6,0.2L66,84.9c0.2-0.2,0.6-0.3,0.9-0.3C67.5,84.6,67.9,84.9,67.9,85.6z M67.3,86.1v-0.2
			h-0.4c-0.3,0-0.4,0.1-0.4,0.3c0,0.2,0.1,0.3,0.3,0.3C67,86.4,67.2,86.3,67.3,86.1z"/>
		<path class="st3" d="M70.8,85.7c0,0.7-0.5,1.1-1.1,1.1c-0.3,0-0.5-0.1-0.6-0.3v1h-0.6v-2.9h0.6v0.2c0.2-0.2,0.4-0.3,0.7-0.3
			C70.3,84.6,70.8,85,70.8,85.7z M70.2,85.7c0-0.4-0.2-0.6-0.5-0.6s-0.5,0.2-0.5,0.6s0.2,0.6,0.5,0.6S70.2,86.1,70.2,85.7z"/>
		<path class="st3" d="M74.3,86.3v0.5h-2.1v-0.4l1.1-1c0.2-0.2,0.3-0.4,0.3-0.5c0-0.2-0.2-0.3-0.4-0.3c-0.2,0-0.4,0.1-0.6,0.3
			l-0.5-0.3c0.2-0.3,0.6-0.5,1.1-0.5c0.6,0,1,0.3,1,0.8c0,0.3-0.1,0.5-0.5,0.9l-0.6,0.6H74.3z"/>
		<path class="st3" d="M76.6,86.3v0.5h-2.1v-0.4l1.1-1c0.2-0.2,0.3-0.4,0.3-0.5c0-0.2-0.2-0.3-0.4-0.3c-0.2,0-0.4,0.1-0.6,0.3
			l-0.5-0.3c0.2-0.3,0.6-0.5,1.1-0.5c0.6,0,1,0.3,1,0.8c0,0.3-0.1,0.5-0.5,0.9l-0.6,0.6H76.6z"/>
	</g>
	<g>
		<path class="st2" d="M16.8,92.9H55c2.5,0,4.4,2,4.4,4.4v2.3c0,2.5-2,4.4-4.4,4.4H16.8c-2.5,0-4.4-2-4.4-4.4v-2.3
			C12.4,94.9,14.3,92.9,16.8,92.9z"/>
	</g>
	<g>
		<path class="st2" d="M16.8,116.7h71.4c2.5,0,4.4,2,4.4,4.4v36.8c0,2.5-2,4.4-4.4,4.4H16.8c-2.5,0-4.4-2-4.4-4.4v-36.8
			C12.4,118.7,14.3,116.7,16.8,116.7z"/>
	</g>
	<g class="st1">
		<path class="st3" d="M19.3,97.6v0.7h1.3v0.5h-1.3v1h-0.6v-2.8h2.1v0.5H19.3z"/>
	</g>
	<g class="st1">
		<path class="st3" d="M20.9,98.8c0-0.6,0.5-1.1,1.2-1.1c0.7,0,1.2,0.5,1.2,1.1s-0.5,1.1-1.2,1.1C21.4,99.9,20.9,99.4,20.9,98.8z
			 M22.7,98.8c0-0.4-0.2-0.6-0.5-0.6s-0.5,0.2-0.5,0.6s0.2,0.6,0.5,0.6S22.7,99.1,22.7,98.8z"/>
	</g>
	<g class="st1">
		<path class="st3" d="M25,97.7v0.6c-0.1,0-0.1,0-0.1,0c-0.3,0-0.6,0.2-0.6,0.6v1h-0.6v-2.1h0.6V98C24.5,97.8,24.7,97.7,25,97.7z"/>
	</g>
	<g class="st1">
		<path class="st3" d="M26.9,99.7c-0.1,0.1-0.3,0.1-0.5,0.1c-0.5,0-0.8-0.3-0.8-0.8v-0.9h-0.3v-0.5h0.3v-0.5h0.6v0.5h0.5v0.5h-0.5
			v0.9c0,0.2,0.1,0.3,0.3,0.3c0.1,0,0.2,0,0.3-0.1L26.9,99.7z"/>
		<path class="st3" d="M29.1,98.6v1.2h-0.6v-0.3c-0.1,0.2-0.3,0.3-0.7,0.3c-0.5,0-0.8-0.3-0.8-0.6c0-0.4,0.3-0.6,0.9-0.6h0.5
			c0-0.3-0.2-0.4-0.5-0.4c-0.2,0-0.5,0.1-0.6,0.2l-0.2-0.4c0.2-0.2,0.6-0.3,0.9-0.3C28.7,97.7,29.1,98,29.1,98.6z M28.5,99.2V99
			h-0.4c-0.3,0-0.4,0.1-0.4,0.3c0,0.2,0.1,0.3,0.4,0.3C28.2,99.5,28.4,99.4,28.5,99.2z"/>
		<path class="st3" d="M29.7,96.9h0.6v3h-0.6V96.9z"/>
	</g>
	<g class="st1">
		<path class="st3" d="M33,99h-1.6c0.1,0.3,0.3,0.4,0.6,0.4c0.2,0,0.4-0.1,0.5-0.2l0.3,0.4c-0.2,0.2-0.5,0.3-0.9,0.3
			c-0.7,0-1.2-0.5-1.2-1.1c0-0.6,0.5-1.1,1.1-1.1c0.6,0,1.1,0.4,1.1,1.1C33,98.8,33,98.9,33,99z M31.3,98.6h1.1
			c0-0.3-0.2-0.4-0.5-0.4C31.6,98.1,31.4,98.3,31.3,98.6z"/>
	</g>
	<g class="st1">
		<path class="st3" d="M35.1,99.4v0.5h-1.9v-0.4l1.1-1.3h-1.1v-0.5h1.8v0.4L34,99.4H35.1z"/>
		<path class="st3" d="M37.4,98.6v1.2h-0.6v-0.3c-0.1,0.2-0.3,0.3-0.7,0.3c-0.5,0-0.8-0.3-0.8-0.6c0-0.4,0.3-0.6,0.9-0.6h0.5
			c0-0.3-0.2-0.4-0.5-0.4c-0.2,0-0.5,0.1-0.6,0.2l-0.2-0.4c0.2-0.2,0.6-0.3,0.9-0.3C37,97.7,37.4,98,37.4,98.6z M36.8,99.2V99h-0.4
			c-0.3,0-0.4,0.1-0.4,0.3c0,0.2,0.1,0.3,0.4,0.3C36.6,99.5,36.7,99.4,36.8,99.2z"/>
	</g>
	<g>
		<path class="st2" d="M67,92.9h21c2.5,0,4.4,2,4.4,4.4v2.3c0,2.5-2,4.4-4.4,4.4H67c-2.5,0-4.4-2-4.4-4.4v-2.3
			C62.6,94.9,64.5,92.9,67,92.9z"/>
	</g>
	<g>
		<path class="st2" d="M37.6,107.6h27c1.3,0,2.4,1.1,2.4,2.4v0.8c0,1.3-1.1,2.4-2.4,2.4h-27c-1.3,0-2.4-1.1-2.4-2.4V110
			C35.2,108.7,36.3,107.6,37.6,107.6z"/>
	</g>
	<g class="st1">
		<path class="st3" d="M70.1,99c0,0.6-0.5,0.9-1.1,0.9c-0.8,0-1.2-0.5-1.2-1.4c0-1,0.6-1.5,1.4-1.5c0.3,0,0.6,0.1,0.8,0.2l-0.2,0.5
			c-0.2-0.1-0.3-0.1-0.5-0.1c-0.5,0-0.8,0.3-0.8,0.8c0.2-0.2,0.4-0.2,0.7-0.2C69.7,98.1,70.1,98.4,70.1,99z M69.5,99
			c0-0.3-0.2-0.4-0.5-0.4c-0.3,0-0.5,0.2-0.5,0.4c0,0.2,0.2,0.4,0.5,0.4C69.3,99.4,69.5,99.3,69.5,99z"/>
		<path class="st3" d="M70.4,98.5c0-0.9,0.5-1.4,1.2-1.4c0.7,0,1.2,0.5,1.2,1.4s-0.5,1.4-1.2,1.4C70.9,99.9,70.4,99.4,70.4,98.5z
			 M72.1,98.5c0-0.6-0.2-0.9-0.5-0.9c-0.3,0-0.5,0.3-0.5,0.9c0,0.6,0.2,0.9,0.5,0.9C71.9,99.4,72.1,99.1,72.1,98.5z"/>
		<path class="st3" d="M75.4,99c0,0.5-0.5,0.9-1.2,0.9c-0.7,0-1.2-0.3-1.2-0.9c0-0.3,0.2-0.5,0.4-0.7c-0.2-0.1-0.3-0.3-0.3-0.6
			c0-0.5,0.4-0.8,1.1-0.8c0.6,0,1.1,0.3,1.1,0.8c0,0.3-0.1,0.4-0.3,0.6C75.3,98.5,75.4,98.7,75.4,99z M74.8,99
			c0-0.2-0.2-0.4-0.5-0.4c-0.3,0-0.5,0.2-0.5,0.4s0.2,0.4,0.5,0.4C74.6,99.4,74.8,99.3,74.8,99z M73.8,97.8c0,0.2,0.2,0.3,0.4,0.3
			c0.3,0,0.4-0.1,0.4-0.3c0-0.2-0.2-0.4-0.4-0.4C74,97.5,73.8,97.6,73.8,97.8z"/>
		<path class="st3" d="M78,99c0,0.5-0.5,0.9-1.2,0.9c-0.7,0-1.2-0.3-1.2-0.9c0-0.3,0.2-0.5,0.4-0.7c-0.2-0.1-0.3-0.3-0.3-0.6
			c0-0.5,0.4-0.8,1.1-0.8c0.6,0,1.1,0.3,1.1,0.8c0,0.3-0.1,0.4-0.3,0.6C77.9,98.5,78,98.7,78,99z M77.4,99c0-0.2-0.2-0.4-0.5-0.4
			c-0.3,0-0.5,0.2-0.5,0.4s0.2,0.4,0.5,0.4C77.2,99.4,77.4,99.3,77.4,99z M76.4,97.8c0,0.2,0.2,0.3,0.4,0.3c0.3,0,0.4-0.1,0.4-0.3
			c0-0.2-0.2-0.4-0.4-0.4C76.6,97.5,76.4,97.6,76.4,97.8z"/>
	</g>
	<g class="st1">
		<path class="st3" d="M80.4,99.3v0.5h-2.1v-0.4l1.1-1c0.2-0.2,0.3-0.4,0.3-0.5c0-0.2-0.2-0.3-0.4-0.3c-0.2,0-0.4,0.1-0.6,0.3
			l-0.5-0.3c0.2-0.3,0.6-0.5,1.1-0.5c0.6,0,1,0.3,1,0.8c0,0.3-0.1,0.5-0.5,0.9l-0.6,0.6H80.4z"/>
	</g>
	<g class="st1">
		<path class="st3" d="M80.7,98.5h1.1V99h-1.1V98.5z"/>
	</g>
	<g class="st1">
		<path class="st3" d="M84.5,99c0,0.6-0.5,0.9-1.1,0.9c-0.8,0-1.2-0.5-1.2-1.4c0-1,0.6-1.5,1.4-1.5c0.3,0,0.6,0.1,0.8,0.2l-0.2,0.5
			c-0.2-0.1-0.3-0.1-0.5-0.1c-0.5,0-0.8,0.3-0.8,0.8c0.2-0.2,0.4-0.2,0.7-0.2C84.1,98.1,84.5,98.4,84.5,99z M83.9,99
			c0-0.3-0.2-0.4-0.5-0.4c-0.3,0-0.5,0.2-0.5,0.4c0,0.2,0.2,0.4,0.5,0.4C83.7,99.4,83.9,99.3,83.9,99z"/>
		<path class="st3" d="M85.8,97.1v2.8h-0.6v-2.3h-0.6v-0.5H85.8z"/>
		<path class="st3" d="M86.3,98.5c0-0.9,0.5-1.4,1.2-1.4c0.7,0,1.2,0.5,1.2,1.4s-0.5,1.4-1.2,1.4C86.8,99.9,86.3,99.4,86.3,98.5z
			 M88.1,98.5c0-0.6-0.2-0.9-0.5-0.9c-0.3,0-0.5,0.3-0.5,0.9c0,0.6,0.2,0.9,0.5,0.9C87.8,99.4,88.1,99.1,88.1,98.5z"/>
	</g>
	<g>
		<g>
			<path class="st2" d="M11.7,29.6L11.7,29.6c0.2-0.2,0.4-0.2,0.6,0l1.1,1.1c0.2,0.2,0.2,0.4,0,0.6l0,0c-0.2,0.2-0.4,0.2-0.6,0
				l-1.1-1.1C11.6,30.1,11.6,29.8,11.7,29.6z"/>
		</g>
		<g>
			<path class="st2" d="M13.4,28.5L13.4,28.5c0.2,0.2,0.2,0.4,0,0.6l-1.1,1.1c-0.2,0.2-0.4,0.2-0.6,0l0,0c-0.2-0.2-0.2-0.4,0-0.6
				l1.1-1.1C13,28.4,13.3,28.4,13.4,28.5z"/>
		</g>
	</g>
	<g>
		<path class="st2" d="M52.4,38.6L52.4,38.6c5.1,0,9.3,4.2,9.3,9.3v0c0,5.1-4.2,9.3-9.3,9.3h0c-5.1,0-9.3-4.2-9.3-9.3v0
			C43.1,42.8,47.2,38.6,52.4,38.6z"/>
	</g>
	<g>
		<path class="st4" d="M54.2,47.4c0.6-0.5,1-1.3,1-2.2c0-1.6-1.3-2.9-2.9-2.9s-2.9,1.3-2.9,2.9c0,0.9,0.4,1.7,1,2.2
			c-0.8,0.5-1.4,1.3-1.4,2.3v2.9h6.4v-2.9C55.6,48.7,55,47.8,54.2,47.4L54.2,47.4z"/>
	</g>
	<g>
		<g>
			<path class="st5" d="M61.3,54.2c0,1-0.8,1.9-1.9,1.9s-1.9-0.8-1.9-1.9s0.8-1.9,1.9-1.9S61.3,53.1,61.3,54.2z"/>
		</g>
		<g>
			<path class="st2" d="M60.7,54.2c0,0.7-0.6,1.3-1.3,1.3s-1.3-0.6-1.3-1.3s0.6-1.3,1.3-1.3S60.7,53.5,60.7,54.2z"/>
		</g>
	</g>
	<g class="st1">
		<path class="st6" d="M39.8,110.8v0.3h-1.4v-1.8h1.3v0.3h-0.9v0.4h0.8v0.3h-0.8v0.4H39.8z"/>
	</g>
	<g class="st1">
		<path class="st6" d="M41.5,109.2v1.9h-0.4V111c-0.1,0.1-0.2,0.2-0.4,0.2c-0.4,0-0.7-0.3-0.7-0.7c0-0.4,0.3-0.7,0.7-0.7
			c0.2,0,0.3,0.1,0.4,0.2v-0.7H41.5z M41.1,110.4c0-0.2-0.2-0.4-0.3-0.4c-0.2,0-0.3,0.1-0.3,0.4c0,0.2,0.2,0.4,0.3,0.4
			C41,110.8,41.1,110.7,41.1,110.4z"/>
		<path class="st6" d="M41.8,109.4c0-0.1,0.1-0.2,0.2-0.2s0.2,0.1,0.2,0.2c0,0.1-0.1,0.2-0.2,0.2S41.8,109.5,41.8,109.4z
			 M41.9,109.8h0.4v1.4h-0.4V109.8z"/>
		<path class="st6" d="M43.5,111.1c-0.1,0.1-0.2,0.1-0.3,0.1c-0.3,0-0.5-0.2-0.5-0.5v-0.6h-0.2v-0.3h0.2v-0.3h0.4v0.3h0.3v0.3h-0.3
			v0.6c0,0.1,0.1,0.2,0.2,0.2c0.1,0,0.1,0,0.2-0.1L43.5,111.1z"/>
		<path class="st6" d="M44.9,110.4v0.8h-0.4V111c-0.1,0.1-0.2,0.2-0.4,0.2c-0.3,0-0.5-0.2-0.5-0.4c0-0.2,0.2-0.4,0.6-0.4h0.3
			c0-0.2-0.1-0.3-0.3-0.3c-0.1,0-0.3,0-0.4,0.1l-0.1-0.3c0.1-0.1,0.4-0.2,0.6-0.2C44.7,109.7,44.9,109.9,44.9,110.4z M44.5,110.7
			v-0.1h-0.3c-0.2,0-0.2,0.1-0.2,0.2c0,0.1,0.1,0.2,0.2,0.2C44.4,110.9,44.5,110.8,44.5,110.7z"/>
		<path class="st6" d="M46.1,109.7v0.4c0,0-0.1,0-0.1,0c-0.2,0-0.4,0.1-0.4,0.4v0.6h-0.4v-1.4h0.4v0.2
			C45.8,109.8,45.9,109.7,46.1,109.7z"/>
	</g>
	<g class="st1">
		<path class="st6" d="M49.4,110.3v0.8H49v-0.7c0-0.2-0.1-0.3-0.3-0.3c-0.2,0-0.3,0.1-0.3,0.4v0.7h-0.4v-0.7c0-0.2-0.1-0.3-0.3-0.3
			c-0.2,0-0.3,0.1-0.3,0.4v0.7h-0.4v-1.4h0.4v0.2c0.1-0.1,0.3-0.2,0.4-0.2c0.2,0,0.4,0.1,0.4,0.2c0.1-0.1,0.3-0.2,0.5-0.2
			C49.2,109.7,49.4,109.9,49.4,110.3z"/>
	</g>
	<g class="st1">
		<path class="st6" d="M51.1,110.6h-1c0,0.2,0.2,0.3,0.4,0.3c0.1,0,0.2,0,0.3-0.1l0.2,0.2c-0.1,0.1-0.3,0.2-0.6,0.2
			c-0.5,0-0.8-0.3-0.8-0.7c0-0.4,0.3-0.7,0.7-0.7c0.4,0,0.7,0.3,0.7,0.7C51.1,110.5,51.1,110.5,51.1,110.6z M50.1,110.3h0.7
			c0-0.2-0.2-0.3-0.3-0.3C50.3,110,50.1,110.2,50.1,110.3z"/>
		<path class="st6" d="M52.8,109.8v1.4h-0.4V111c-0.1,0.1-0.3,0.2-0.4,0.2c-0.3,0-0.6-0.2-0.6-0.6v-0.8h0.4v0.7
			c0,0.2,0.1,0.3,0.3,0.3c0.2,0,0.3-0.1,0.3-0.4v-0.7H52.8z"/>
		<path class="st6" d="M53,111l0.1-0.3c0.1,0.1,0.3,0.1,0.5,0.1c0.2,0,0.2,0,0.2-0.1c0-0.2-0.8,0-0.8-0.5c0-0.3,0.2-0.4,0.6-0.4
			c0.2,0,0.4,0,0.5,0.1l-0.1,0.3c-0.1-0.1-0.3-0.1-0.4-0.1c-0.2,0-0.3,0.1-0.3,0.1c0,0.2,0.8,0,0.8,0.5c0,0.3-0.2,0.4-0.6,0.4
			C53.4,111.2,53.1,111.1,53,111z"/>
		<path class="st6" d="M56.6,109.2v1.9h-0.4V111c-0.1,0.1-0.2,0.2-0.4,0.2c-0.4,0-0.7-0.3-0.7-0.7c0-0.4,0.3-0.7,0.7-0.7
			c0.2,0,0.3,0.1,0.4,0.2v-0.7H56.6z M56.2,110.4c0-0.2-0.2-0.4-0.3-0.4c-0.2,0-0.3,0.1-0.3,0.4c0,0.2,0.2,0.4,0.3,0.4
			C56.1,110.8,56.2,110.7,56.2,110.4z"/>
	</g>
	<g class="st1">
		<path class="st6" d="M58.2,110.4v0.8h-0.4V111c-0.1,0.1-0.2,0.2-0.4,0.2c-0.3,0-0.5-0.2-0.5-0.4c0-0.2,0.2-0.4,0.6-0.4h0.3
			c0-0.2-0.1-0.3-0.3-0.3c-0.1,0-0.3,0-0.4,0.1l-0.1-0.3c0.1-0.1,0.4-0.2,0.6-0.2C58,109.7,58.2,109.9,58.2,110.4z M57.8,110.7v-0.1
			h-0.3c-0.2,0-0.2,0.1-0.2,0.2c0,0.1,0.1,0.2,0.2,0.2C57.6,110.9,57.8,110.8,57.8,110.7z"/>
	</g>
	<g class="st1">
		<path class="st6" d="M60,109.2v1.9h-0.4V111c-0.1,0.1-0.2,0.2-0.4,0.2c-0.4,0-0.7-0.3-0.7-0.7c0-0.4,0.3-0.7,0.7-0.7
			c0.2,0,0.3,0.1,0.4,0.2v-0.7H60z M59.6,110.4c0-0.2-0.2-0.4-0.3-0.4c-0.2,0-0.3,0.1-0.3,0.4c0,0.2,0.2,0.4,0.3,0.4
			C59.4,110.8,59.6,110.7,59.6,110.4z"/>
		<path class="st6" d="M60.2,110.4c0-0.4,0.3-0.7,0.8-0.7s0.7,0.3,0.7,0.7s-0.3,0.7-0.7,0.7S60.2,110.9,60.2,110.4z M61.3,110.4
			c0-0.2-0.1-0.4-0.3-0.4s-0.3,0.1-0.3,0.4c0,0.2,0.2,0.4,0.3,0.4S61.3,110.7,61.3,110.4z"/>
		<path class="st6" d="M61.9,111l0.1-0.3c0.1,0.1,0.3,0.1,0.5,0.1c0.2,0,0.2,0,0.2-0.1c0-0.2-0.8,0-0.8-0.5c0-0.3,0.2-0.4,0.6-0.4
			c0.2,0,0.4,0,0.5,0.1l-0.1,0.3c-0.1-0.1-0.3-0.1-0.4-0.1c-0.2,0-0.3,0.1-0.3,0.1c0,0.2,0.8,0,0.8,0.5c0,0.3-0.2,0.4-0.6,0.4
			C62.2,111.2,62,111.1,61.9,111z"/>
	</g>
	<g>
		<path class="st7" d="M19.8,130.7h9.8c1.3,0,2.4,1.1,2.4,2.4v0.8c0,1.3-1.1,2.4-2.4,2.4h-9.8c-1.3,0-2.4-1.1-2.4-2.4v-0.8
			C17.4,131.8,18.5,130.7,19.8,130.7z"/>
	</g>
	<g class="st1">
		<path class="st2" d="M20.8,133.4c0-0.5,0.4-0.9,1-0.9c0.6,0,1,0.4,1,0.9s-0.4,0.9-1,0.9C21.2,134.3,20.8,133.9,20.8,133.4z
			 M22.3,133.4c0-0.3-0.2-0.6-0.6-0.6c-0.3,0-0.6,0.2-0.6,0.6s0.2,0.6,0.6,0.6C22.1,133.9,22.3,133.7,22.3,133.4z"/>
		<path class="st2" d="M23.4,132.9h0.3v0.3h-0.3v1H23v-1h-0.2v-0.3H23v-0.1c0-0.3,0.2-0.5,0.5-0.5c0.1,0,0.2,0,0.3,0.1l-0.1,0.3
			c0,0-0.1,0-0.2,0C23.5,132.7,23.4,132.7,23.4,132.9L23.4,132.9z"/>
		<path class="st2" d="M24.4,132.8L24.4,132.8l0.3,0.1v0.3h-0.3v1H24v-1h-0.2v-0.3H24v-0.1c0-0.3,0.2-0.5,0.5-0.5
			c0.1,0,0.2,0,0.3,0.1l-0.1,0.3c0,0-0.1,0-0.2,0C24.5,132.7,24.4,132.7,24.4,132.8z M25.1,132.5c0-0.1,0.1-0.2,0.2-0.2
			s0.2,0.1,0.2,0.2c0,0.1-0.1,0.2-0.2,0.2S25.1,132.6,25.1,132.5z M25.2,132.9h0.4v1.4h-0.4V132.9z"/>
	</g>
	<g class="st1">
		<path class="st2" d="M25.8,133.6c0-0.4,0.3-0.7,0.8-0.7c0.3,0,0.5,0.1,0.6,0.3l-0.3,0.2c-0.1-0.1-0.2-0.2-0.3-0.2
			c-0.2,0-0.4,0.1-0.4,0.4s0.2,0.4,0.4,0.4c0.1,0,0.2-0.1,0.3-0.2l0.3,0.2c-0.1,0.2-0.3,0.3-0.6,0.3C26.2,134.3,25.8,134,25.8,133.6
			z"/>
	</g>
	<g class="st1">
		<path class="st2" d="M28.8,133.7h-1c0,0.2,0.2,0.3,0.4,0.3c0.1,0,0.2,0,0.3-0.1l0.2,0.2c-0.1,0.1-0.3,0.2-0.6,0.2
			c-0.5,0-0.8-0.3-0.8-0.7c0-0.4,0.3-0.7,0.7-0.7c0.4,0,0.7,0.3,0.7,0.7C28.8,133.6,28.8,133.6,28.8,133.7z M27.7,133.4h0.7
			c0-0.2-0.2-0.3-0.3-0.3C27.9,133.2,27.7,133.3,27.7,133.4z"/>
	</g>
	<g>
		<path class="st7" d="M36.9,130.7h21c1.3,0,2.4,1.1,2.4,2.4v0.8c0,1.3-1.1,2.4-2.4,2.4h-21c-1.3,0-2.4-1.1-2.4-2.4v-0.8
			C34.5,131.8,35.5,130.7,36.9,130.7z"/>
	</g>
	<g class="st1">
		<path class="st2" d="M37.9,133.4c0-0.5,0.4-0.9,1-0.9c0.3,0,0.6,0.1,0.7,0.3l-0.3,0.2c-0.1-0.1-0.3-0.2-0.4-0.2
			c-0.3,0-0.6,0.2-0.6,0.6c0,0.3,0.2,0.6,0.6,0.6c0.2,0,0.3-0.1,0.4-0.2l0.3,0.2c-0.2,0.2-0.4,0.3-0.7,0.3
			C38.3,134.3,37.9,133.9,37.9,133.4z"/>
	</g>
	<g class="st1">
		<path class="st2" d="M39.7,133.6c0-0.4,0.3-0.7,0.8-0.7c0.4,0,0.7,0.3,0.7,0.7s-0.3,0.7-0.7,0.7C40,134.3,39.7,134,39.7,133.6z
			 M40.8,133.6c0-0.2-0.1-0.4-0.3-0.4c-0.2,0-0.3,0.1-0.3,0.4c0,0.2,0.2,0.4,0.3,0.4C40.6,133.9,40.8,133.8,40.8,133.6z"/>
		<path class="st2" d="M42.8,133.5v0.8h-0.4v-0.7c0-0.2-0.1-0.3-0.3-0.3c-0.2,0-0.3,0.1-0.3,0.4v0.7h-0.4v-1.4h0.4v0.2
			c0.1-0.1,0.3-0.2,0.5-0.2C42.6,132.9,42.8,133,42.8,133.5z"/>
		<path class="st2" d="M44.1,134.2c-0.1,0.1-0.2,0.1-0.3,0.1c-0.3,0-0.5-0.2-0.5-0.5v-0.6H43v-0.3h0.2v-0.3h0.4v0.3H44v0.3h-0.3v0.6
			c0,0.1,0.1,0.2,0.2,0.2c0.1,0,0.1,0,0.2-0.1L44.1,134.2z"/>
		<path class="st2" d="M45.5,133.5v0.8h-0.4v-0.2c-0.1,0.1-0.2,0.2-0.4,0.2c-0.3,0-0.5-0.2-0.5-0.4c0-0.2,0.2-0.4,0.6-0.4h0.3
			c0-0.2-0.1-0.3-0.3-0.3c-0.1,0-0.3,0-0.4,0.1l-0.1-0.3c0.1-0.1,0.4-0.2,0.6-0.2C45.3,132.9,45.5,133,45.5,133.5z M45.1,133.8v-0.1
			h-0.3c-0.2,0-0.2,0.1-0.2,0.2c0,0.1,0.1,0.2,0.2,0.2C45,134,45.1,133.9,45.1,133.8z"/>
		<path class="st2" d="M47.4,133.6c0,0.4-0.3,0.7-0.7,0.7c-0.2,0-0.3-0.1-0.4-0.2v0.2h-0.4v-1.9h0.4v0.7c0.1-0.1,0.2-0.2,0.4-0.2
			C47.1,132.9,47.4,133.1,47.4,133.6z M47,133.6c0-0.2-0.1-0.4-0.3-0.4s-0.3,0.1-0.3,0.4c0,0.2,0.1,0.4,0.3,0.4S47,133.8,47,133.6z"
			/>
		<path class="st2" d="M47.6,132.5c0-0.1,0.1-0.2,0.2-0.2s0.2,0.1,0.2,0.2c0,0.1-0.1,0.2-0.2,0.2S47.6,132.6,47.6,132.5z
			 M47.6,132.9H48v1.4h-0.4V132.9z"/>
		<path class="st2" d="M48.4,132.4h0.4v1.9h-0.4V132.4z"/>
		<path class="st2" d="M49.1,132.5c0-0.1,0.1-0.2,0.2-0.2s0.2,0.1,0.2,0.2c0,0.1-0.1,0.2-0.2,0.2S49.1,132.6,49.1,132.5z
			 M49.2,132.9h0.4v1.4h-0.4V132.9z"/>
		<path class="st2" d="M51.3,132.4v1.9h-0.4v-0.2c-0.1,0.1-0.2,0.2-0.4,0.2c-0.4,0-0.7-0.3-0.7-0.7c0-0.4,0.3-0.7,0.7-0.7
			c0.2,0,0.3,0.1,0.4,0.2v-0.7H51.3z M50.9,133.6c0-0.2-0.2-0.4-0.3-0.4c-0.2,0-0.3,0.1-0.3,0.4c0,0.2,0.2,0.4,0.3,0.4
			C50.8,133.9,50.9,133.8,50.9,133.6z"/>
	</g>
	<g class="st1">
		<path class="st2" d="M52.9,133.5v0.8h-0.4v-0.2c-0.1,0.1-0.2,0.2-0.4,0.2c-0.3,0-0.5-0.2-0.5-0.4c0-0.2,0.2-0.4,0.6-0.4h0.3
			c0-0.2-0.1-0.3-0.3-0.3c-0.1,0-0.3,0-0.4,0.1l-0.1-0.3c0.1-0.1,0.4-0.2,0.6-0.2C52.7,132.9,52.9,133,52.9,133.5z M52.5,133.8v-0.1
			h-0.3c-0.2,0-0.2,0.1-0.2,0.2c0,0.1,0.1,0.2,0.2,0.2C52.3,134,52.5,133.9,52.5,133.8z"/>
	</g>
	<g class="st1">
		<path class="st2" d="M54.7,132.4v1.9h-0.4v-0.2c-0.1,0.1-0.2,0.2-0.4,0.2c-0.4,0-0.7-0.3-0.7-0.7c0-0.4,0.3-0.7,0.7-0.7
			c0.2,0,0.3,0.1,0.4,0.2v-0.7H54.7z M54.3,133.6c0-0.2-0.2-0.4-0.3-0.4c-0.2,0-0.3,0.1-0.3,0.4c0,0.2,0.2,0.4,0.3,0.4
			C54.1,133.9,54.3,133.8,54.3,133.6z"/>
		<path class="st2" d="M56.4,133.7h-1c0,0.2,0.2,0.3,0.4,0.3c0.1,0,0.2,0,0.3-0.1l0.2,0.2c-0.1,0.1-0.3,0.2-0.6,0.2
			c-0.5,0-0.8-0.3-0.8-0.7c0-0.4,0.3-0.7,0.7-0.7c0.4,0,0.7,0.3,0.7,0.7C56.4,133.6,56.4,133.6,56.4,133.7z M55.3,133.4H56
			c0-0.2-0.2-0.3-0.3-0.3C55.5,133.2,55.4,133.3,55.3,133.4z"/>
	</g>
	<g>
		<path class="st7" d="M65,130.7h13.8c1.3,0,2.4,1.1,2.4,2.4v0.8c0,1.3-1.1,2.4-2.4,2.4H65c-1.3,0-2.4-1.1-2.4-2.4v-0.8
			C62.6,131.8,63.6,130.7,65,130.7z"/>
	</g>
	<g class="st1">
		<path class="st2" d="M67.9,133.1c0,0.4-0.3,0.6-0.8,0.6h-0.4v0.5h-0.4v-1.8h0.8C67.6,132.5,67.9,132.7,67.9,133.1z M67.5,133.1
			c0-0.2-0.1-0.3-0.4-0.3h-0.3v0.6h0.3C67.4,133.4,67.5,133.3,67.5,133.1z"/>
		<path class="st2" d="M68.2,132.4h0.4v1.9h-0.4V132.4z"/>
		<path class="st2" d="M70.2,133.5v0.8h-0.4v-0.2c-0.1,0.1-0.2,0.2-0.4,0.2c-0.3,0-0.5-0.2-0.5-0.4c0-0.2,0.2-0.4,0.6-0.4h0.3
			c0-0.2-0.1-0.3-0.3-0.3c-0.1,0-0.3,0-0.4,0.1l-0.1-0.3c0.1-0.1,0.4-0.2,0.6-0.2C70,132.9,70.2,133,70.2,133.5z M69.8,133.8v-0.1
			h-0.3c-0.2,0-0.2,0.1-0.2,0.2c0,0.1,0.1,0.2,0.2,0.2C69.6,134,69.8,133.9,69.8,133.8z"/>
		<path class="st2" d="M71.9,133.5v0.8h-0.4v-0.7c0-0.2-0.1-0.3-0.3-0.3c-0.2,0-0.3,0.1-0.3,0.4v0.7h-0.4v-1.4h0.4v0.2
			c0.1-0.1,0.3-0.2,0.5-0.2C71.7,132.9,71.9,133,71.9,133.5z"/>
		<path class="st2" d="M72.3,132.5c0-0.1,0.1-0.2,0.2-0.2c0.1,0,0.2,0.1,0.2,0.2c0,0.1-0.1,0.2-0.2,0.2
			C72.4,132.7,72.3,132.6,72.3,132.5z M72.3,132.9h0.4v1.4h-0.4V132.9z"/>
		<path class="st2" d="M73.1,132.4h0.4v1.9h-0.4V132.4z"/>
		<path class="st2" d="M75.2,133.5v0.8h-0.4v-0.7c0-0.2-0.1-0.3-0.3-0.3c-0.2,0-0.3,0.1-0.3,0.4v0.7h-0.4v-1.9h0.4v0.7
			c0.1-0.1,0.3-0.2,0.4-0.2C75,132.9,75.2,133,75.2,133.5z"/>
		<path class="st2" d="M76.8,133.5v0.8h-0.4v-0.2c-0.1,0.1-0.2,0.2-0.4,0.2c-0.3,0-0.5-0.2-0.5-0.4c0-0.2,0.2-0.4,0.6-0.4h0.3
			c0-0.2-0.1-0.3-0.3-0.3c-0.1,0-0.3,0-0.4,0.1l-0.1-0.3c0.1-0.1,0.4-0.2,0.6-0.2C76.6,132.9,76.8,133,76.8,133.5z M76.4,133.8v-0.1
			h-0.3c-0.2,0-0.2,0.1-0.2,0.2c0,0.1,0.1,0.2,0.2,0.2C76.2,134,76.4,133.9,76.4,133.8z"/>
		<path class="st2" d="M77,134.1l0.1-0.3c0.1,0.1,0.3,0.1,0.5,0.1c0.2,0,0.2,0,0.2-0.1c0-0.2-0.8,0-0.8-0.5c0-0.3,0.2-0.4,0.6-0.4
			c0.2,0,0.4,0,0.5,0.1l-0.1,0.3c-0.1-0.1-0.3-0.1-0.4-0.1c-0.2,0-0.3,0.1-0.3,0.1c0,0.2,0.8,0,0.8,0.5c0,0.3-0.2,0.4-0.6,0.4
			C77.4,134.3,77.2,134.2,77,134.1z"/>
	</g>
	<g>
		<path class="st7" d="M59.7,138.3h19.2c1.3,0,2.4,1.1,2.4,2.4v0.8c0,1.3-1.1,2.4-2.4,2.4H59.7c-1.3,0-2.4-1.1-2.4-2.4v-0.8
			C57.3,139.4,58.4,138.3,59.7,138.3z"/>
	</g>
	<g class="st1">
		<path class="st2" d="M61.8,141.5H61l-0.2,0.4h-0.4l0.8-1.8h0.4l0.8,1.8H62L61.8,141.5z M61.7,141.2l-0.3-0.7l-0.3,0.7H61.7z"/>
	</g>
	<g class="st1">
		<path class="st2" d="M63.4,141.8c-0.1,0.1-0.2,0.1-0.3,0.1c-0.3,0-0.5-0.2-0.5-0.5v-0.6h-0.2v-0.3h0.2v-0.3H63v0.3h0.3v0.3H63v0.6
			c0,0.1,0.1,0.2,0.2,0.2c0.1,0,0.1,0,0.2-0.1L63.4,141.8z"/>
	</g>
	<g class="st1">
		<path class="st2" d="M64.9,141.3h-1c0,0.2,0.2,0.3,0.4,0.3c0.1,0,0.2,0,0.3-0.1l0.2,0.2c-0.1,0.1-0.3,0.2-0.6,0.2
			c-0.5,0-0.8-0.3-0.8-0.7c0-0.4,0.3-0.7,0.7-0.7c0.4,0,0.7,0.3,0.7,0.7C64.9,141.2,64.9,141.3,64.9,141.3z M63.9,141.1h0.7
			c0-0.2-0.2-0.3-0.3-0.3C64.1,140.8,63.9,140.9,63.9,141.1z"/>
	</g>
	<g class="st1">
		<path class="st2" d="M66.6,141.1v0.8h-0.4v-0.7c0-0.2-0.1-0.3-0.3-0.3c-0.2,0-0.3,0.1-0.3,0.4v0.7h-0.4v-1.4h0.4v0.2
			c0.1-0.1,0.3-0.2,0.5-0.2C66.4,140.5,66.6,140.7,66.6,141.1z"/>
	</g>
	<g class="st1">
		<path class="st2" d="M68.4,140v1.9H68v-0.2c-0.1,0.1-0.2,0.2-0.4,0.2c-0.4,0-0.7-0.3-0.7-0.7c0-0.4,0.3-0.7,0.7-0.7
			c0.2,0,0.3,0.1,0.4,0.2V140H68.4z M68,141.2c0-0.2-0.2-0.4-0.3-0.4c-0.2,0-0.3,0.1-0.3,0.4c0,0.2,0.2,0.4,0.3,0.4
			C67.8,141.6,68,141.4,68,141.2z"/>
		<path class="st2" d="M68.7,140.1c0-0.1,0.1-0.2,0.2-0.2c0.1,0,0.2,0.1,0.2,0.2c0,0.1-0.1,0.2-0.2,0.2
			C68.8,140.3,68.7,140.2,68.7,140.1z M68.7,140.5h0.4v1.4h-0.4V140.5z"/>
	</g>
	<g class="st1">
		<path class="st2" d="M71.8,141.1v0.8h-0.4v-0.7c0-0.2-0.1-0.3-0.3-0.3c-0.2,0-0.3,0.1-0.3,0.4v0.7h-0.4v-0.7
			c0-0.2-0.1-0.3-0.3-0.3c-0.2,0-0.3,0.1-0.3,0.4v0.7h-0.4v-1.4h0.4v0.2c0.1-0.1,0.3-0.2,0.4-0.2c0.2,0,0.4,0.1,0.4,0.2
			c0.1-0.1,0.3-0.2,0.5-0.2C71.6,140.5,71.8,140.7,71.8,141.1z"/>
	</g>
	<g class="st1">
		<path class="st2" d="M73.5,141.3h-1c0,0.2,0.2,0.3,0.4,0.3c0.1,0,0.2,0,0.3-0.1l0.2,0.2c-0.1,0.1-0.3,0.2-0.6,0.2
			c-0.5,0-0.8-0.3-0.8-0.7c0-0.4,0.3-0.7,0.7-0.7c0.4,0,0.7,0.3,0.7,0.7C73.5,141.2,73.5,141.3,73.5,141.3z M72.5,141.1h0.7
			c0-0.2-0.2-0.3-0.3-0.3C72.6,140.8,72.5,140.9,72.5,141.1z"/>
		<path class="st2" d="M75.2,141.1v0.8h-0.4v-0.7c0-0.2-0.1-0.3-0.3-0.3c-0.2,0-0.3,0.1-0.3,0.4v0.7h-0.4v-1.4h0.4v0.2
			c0.1-0.1,0.3-0.2,0.5-0.2C74.9,140.5,75.2,140.7,75.2,141.1z"/>
	</g>
	<g class="st1">
		<path class="st2" d="M76.4,141.8c-0.1,0.1-0.2,0.1-0.3,0.1c-0.3,0-0.5-0.2-0.5-0.5v-0.6h-0.2v-0.3h0.2v-0.3H76v0.3h0.3v0.3H76v0.6
			c0,0.1,0.1,0.2,0.2,0.2c0.1,0,0.1,0,0.2-0.1L76.4,141.8z"/>
	</g>
	<g class="st1">
		<path class="st2" d="M76.5,141.2c0-0.4,0.3-0.7,0.8-0.7c0.4,0,0.7,0.3,0.7,0.7s-0.3,0.7-0.7,0.7C76.8,141.9,76.5,141.6,76.5,141.2
			z M77.6,141.2c0-0.2-0.1-0.4-0.3-0.4c-0.2,0-0.3,0.1-0.3,0.4c0,0.2,0.2,0.4,0.3,0.4C77.5,141.6,77.6,141.4,77.6,141.2z"/>
	</g>
	<g>
		<path class="st7" d="M19.8,138.5h32.7c1.3,0,2.4,1.1,2.4,2.4v0.8c0,1.3-1.1,2.4-2.4,2.4H19.8c-1.3,0-2.4-1.1-2.4-2.4v-0.8
			C17.4,139.6,18.5,138.5,19.8,138.5z"/>
	</g>
	<g class="st1">
		<path class="st2" d="M20.4,141.1c0-0.5,0.4-0.9,1-0.9c0.3,0,0.6,0.1,0.7,0.3l-0.3,0.2c-0.1-0.1-0.3-0.2-0.4-0.2
			c-0.3,0-0.6,0.2-0.6,0.6c0,0.3,0.2,0.6,0.6,0.6c0.2,0,0.3-0.1,0.4-0.2l0.3,0.2c-0.2,0.2-0.4,0.3-0.7,0.3
			C20.8,142.1,20.4,141.7,20.4,141.1z"/>
	</g>
	<g class="st1">
		<path class="st2" d="M22.2,141.3c0-0.4,0.3-0.7,0.8-0.7c0.4,0,0.7,0.3,0.7,0.7s-0.3,0.7-0.7,0.7C22.5,142.1,22.2,141.8,22.2,141.3
			z M23.3,141.3c0-0.2-0.1-0.4-0.3-0.4c-0.2,0-0.3,0.1-0.3,0.4c0,0.2,0.2,0.4,0.3,0.4C23.1,141.7,23.3,141.6,23.3,141.3z"/>
		<path class="st2" d="M25.3,141.2v0.8h-0.4v-0.7c0-0.2-0.1-0.3-0.3-0.3c-0.2,0-0.3,0.1-0.3,0.4v0.7h-0.4v-1.4h0.4v0.2
			c0.1-0.1,0.3-0.2,0.5-0.2C25.1,140.6,25.3,140.8,25.3,141.2z"/>
		<path class="st2" d="M26.6,142c-0.1,0.1-0.2,0.1-0.3,0.1c-0.3,0-0.5-0.2-0.5-0.5V141h-0.2v-0.3h0.2v-0.3h0.4v0.3h0.3v0.3h-0.3v0.6
			c0,0.1,0.1,0.2,0.2,0.2c0.1,0,0.1,0,0.2-0.1L26.6,142z"/>
		<path class="st2" d="M28,141.3v0.8h-0.4v-0.2c-0.1,0.1-0.2,0.2-0.4,0.2c-0.3,0-0.5-0.2-0.5-0.4c0-0.2,0.2-0.4,0.6-0.4h0.3
			c0-0.2-0.1-0.3-0.3-0.3c-0.1,0-0.3,0-0.4,0.1l-0.1-0.3c0.1-0.1,0.4-0.2,0.6-0.2C27.8,140.6,28,140.8,28,141.3z M27.6,141.6v-0.1
			h-0.3c-0.2,0-0.2,0.1-0.2,0.2c0,0.1,0.1,0.2,0.2,0.2C27.4,141.8,27.6,141.7,27.6,141.6z"/>
		<path class="st2" d="M28.2,141.9l0.1-0.3c0.1,0.1,0.3,0.1,0.5,0.1c0.2,0,0.3,0,0.3-0.1c0-0.2-0.8,0-0.8-0.5c0-0.3,0.2-0.4,0.6-0.4
			c0.2,0,0.4,0,0.5,0.1l-0.1,0.3c-0.1-0.1-0.3-0.1-0.4-0.1c-0.2,0-0.3,0.1-0.3,0.1c0,0.2,0.8,0,0.8,0.5c0,0.3-0.2,0.4-0.6,0.4
			C28.6,142.1,28.4,142,28.2,141.9z"/>
		<path class="st2" d="M31.6,141.3v0.8h-0.4v-0.2c-0.1,0.1-0.2,0.2-0.4,0.2c-0.3,0-0.5-0.2-0.5-0.4c0-0.2,0.2-0.4,0.6-0.4h0.3
			c0-0.2-0.1-0.3-0.3-0.3c-0.1,0-0.3,0-0.4,0.1l-0.1-0.3c0.1-0.1,0.4-0.2,0.6-0.2C31.4,140.6,31.6,140.8,31.6,141.3z M31.2,141.6
			v-0.1H31c-0.2,0-0.2,0.1-0.2,0.2c0,0.1,0.1,0.2,0.2,0.2C31.1,141.8,31.2,141.7,31.2,141.6z"/>
	</g>
	<g class="st1">
		<path class="st2" d="M34.2,141.3c0,0.4-0.3,0.7-0.7,0.7c-0.2,0-0.3-0.1-0.4-0.2v0.6h-0.4v-1.9h0.4v0.2c0.1-0.1,0.2-0.2,0.4-0.2
			C33.9,140.6,34.2,140.9,34.2,141.3z M33.8,141.3c0-0.2-0.1-0.4-0.3-0.4s-0.3,0.1-0.3,0.4c0,0.2,0.1,0.4,0.3,0.4
			S33.8,141.6,33.8,141.3z"/>
	</g>
	<g class="st1">
		<path class="st2" d="M35.7,141.3v0.8h-0.4v-0.2c-0.1,0.1-0.2,0.2-0.4,0.2c-0.3,0-0.5-0.2-0.5-0.4c0-0.2,0.2-0.4,0.6-0.4h0.3
			c0-0.2-0.1-0.3-0.3-0.3c-0.1,0-0.3,0-0.4,0.1l-0.1-0.3c0.1-0.1,0.4-0.2,0.6-0.2C35.4,140.6,35.7,140.8,35.7,141.3z M35.3,141.6
			v-0.1H35c-0.2,0-0.2,0.1-0.2,0.2c0,0.1,0.1,0.2,0.2,0.2C35.1,141.8,35.2,141.7,35.3,141.6z"/>
	</g>
	<g class="st1">
		<path class="st2" d="M37.5,140.7v1.1c0,0.5-0.3,0.7-0.8,0.7c-0.3,0-0.5-0.1-0.7-0.2l0.2-0.3c0.1,0.1,0.3,0.2,0.5,0.2
			c0.3,0,0.4-0.1,0.4-0.4v-0.1c-0.1,0.1-0.3,0.2-0.4,0.2c-0.4,0-0.7-0.3-0.7-0.7s0.3-0.7,0.7-0.7c0.2,0,0.3,0.1,0.5,0.2v-0.2H37.5z
			 M37.1,141.3c0-0.2-0.1-0.3-0.4-0.3c-0.2,0-0.4,0.1-0.4,0.3s0.2,0.3,0.4,0.3C36.9,141.6,37.1,141.5,37.1,141.3z"/>
		<path class="st2" d="M39,141.3v0.8h-0.4v-0.2c-0.1,0.1-0.2,0.2-0.4,0.2c-0.3,0-0.5-0.2-0.5-0.4c0-0.2,0.2-0.4,0.6-0.4h0.3
			c0-0.2-0.1-0.3-0.3-0.3c-0.1,0-0.3,0-0.4,0.1l-0.1-0.3c0.1-0.1,0.4-0.2,0.6-0.2C38.8,140.6,39,140.8,39,141.3z M38.6,141.6v-0.1
			h-0.3c-0.2,0-0.2,0.1-0.2,0.2c0,0.1,0.1,0.2,0.2,0.2C38.5,141.8,38.6,141.7,38.6,141.6z"/>
	</g>
	<g class="st1">
		<path class="st2" d="M40.2,140.6v0.4c0,0-0.1,0-0.1,0c-0.2,0-0.4,0.1-0.4,0.4v0.6h-0.4v-1.4h0.4v0.2
			C39.9,140.7,40,140.6,40.2,140.6z"/>
	</g>
	<g class="st1">
		<path class="st2" d="M41,139.9h0.4l-0.8,2.4h-0.4L41,139.9z"/>
	</g>
	<g class="st1">
		<path class="st2" d="M42.1,140.6v0.4c0,0-0.1,0-0.1,0c-0.2,0-0.4,0.1-0.4,0.4v0.6h-0.4v-1.4h0.4v0.2
			C41.7,140.7,41.9,140.6,42.1,140.6z"/>
	</g>
	<g class="st1">
		<path class="st2" d="M43.6,141.5h-1c0,0.2,0.2,0.3,0.4,0.3c0.1,0,0.2,0,0.3-0.1l0.2,0.2c-0.1,0.1-0.3,0.2-0.6,0.2
			c-0.5,0-0.8-0.3-0.8-0.7c0-0.4,0.3-0.7,0.7-0.7c0.4,0,0.7,0.3,0.7,0.7C43.6,141.4,43.6,141.4,43.6,141.5z M42.6,141.2h0.7
			c0-0.2-0.2-0.3-0.3-0.3C42.8,140.9,42.6,141.1,42.6,141.2z"/>
	</g>
	<g class="st1">
		<path class="st2" d="M43.8,141.3c0-0.4,0.3-0.7,0.8-0.7c0.3,0,0.5,0.1,0.6,0.3l-0.3,0.2c-0.1-0.1-0.2-0.2-0.3-0.2
			c-0.2,0-0.4,0.1-0.4,0.4s0.2,0.4,0.4,0.4c0.1,0,0.2-0.1,0.3-0.2l0.3,0.2c-0.1,0.2-0.3,0.3-0.6,0.3
			C44.1,142.1,43.8,141.8,43.8,141.3z"/>
	</g>
	<g class="st1">
		<path class="st2" d="M46.7,141.5h-1c0,0.2,0.2,0.3,0.4,0.3c0.1,0,0.2,0,0.3-0.1l0.2,0.2c-0.1,0.1-0.3,0.2-0.6,0.2
			c-0.5,0-0.8-0.3-0.8-0.7c0-0.4,0.3-0.7,0.7-0.7c0.4,0,0.7,0.3,0.7,0.7C46.7,141.4,46.7,141.4,46.7,141.5z M45.7,141.2h0.7
			c0-0.2-0.2-0.3-0.3-0.3C45.9,140.9,45.7,141.1,45.7,141.2z"/>
		<path class="st2" d="M48.5,141.3c0,0.4-0.3,0.7-0.7,0.7c-0.2,0-0.3-0.1-0.4-0.2v0.2H47v-1.9h0.4v0.7c0.1-0.1,0.2-0.2,0.4-0.2
			C48.2,140.6,48.5,140.9,48.5,141.3z M48.1,141.3c0-0.2-0.1-0.4-0.3-0.4c-0.2,0-0.3,0.1-0.3,0.4c0,0.2,0.1,0.4,0.3,0.4
			C47.9,141.7,48.1,141.6,48.1,141.3z"/>
		<path class="st2" d="M50.1,141.5h-1c0,0.2,0.2,0.3,0.4,0.3c0.1,0,0.2,0,0.3-0.1l0.2,0.2c-0.1,0.1-0.3,0.2-0.6,0.2
			c-0.5,0-0.8-0.3-0.8-0.7c0-0.4,0.3-0.7,0.7-0.7c0.4,0,0.7,0.3,0.7,0.7C50.1,141.4,50.1,141.4,50.1,141.5z M49,141.2h0.7
			c0-0.2-0.2-0.3-0.3-0.3C49.2,140.9,49.1,141.1,49,141.2z"/>
		<path class="st2" d="M51.2,140.6v0.4c0,0-0.1,0-0.1,0c-0.2,0-0.4,0.1-0.4,0.4v0.6h-0.4v-1.4h0.4v0.2
			C50.8,140.7,51,140.6,51.2,140.6z"/>
	</g>
	<g>
		<path class="st7" d="M19.8,146h32.7c1.3,0,2.4,1.1,2.4,2.4v0.8c0,1.3-1.1,2.4-2.4,2.4H19.8c-1.3,0-2.4-1.1-2.4-2.4v-0.8
			C17.4,147,18.5,146,19.8,146z"/>
	</g>
	<g class="st1">
		<path class="st2" d="M21.4,149.5L21,149h0h-0.4v0.5h-0.4v-1.8H21c0.5,0,0.8,0.2,0.8,0.6c0,0.3-0.1,0.5-0.4,0.6l0.4,0.6H21.4z
			 M21,148.1h-0.3v0.6H21c0.2,0,0.4-0.1,0.4-0.3C21.4,148.2,21.2,148.1,21,148.1z"/>
		<path class="st2" d="M22,148.8c0-0.4,0.3-0.7,0.8-0.7s0.7,0.3,0.7,0.7s-0.3,0.7-0.7,0.7S22,149.2,22,148.8z M23.1,148.8
			c0-0.2-0.1-0.4-0.3-0.4s-0.3,0.1-0.3,0.4c0,0.2,0.2,0.4,0.3,0.4S23.1,149.1,23.1,148.8z"/>
		<path class="st2" d="M24.6,149.4c-0.1,0.1-0.2,0.1-0.3,0.1c-0.3,0-0.5-0.2-0.5-0.5v-0.6h-0.2v-0.3h0.2v-0.3h0.4v0.3h0.3v0.3h-0.3
			v0.6c0,0.1,0.1,0.2,0.2,0.2c0.1,0,0.1,0,0.2-0.1L24.6,149.4z"/>
		<path class="st2" d="M24.8,147.7c0-0.1,0.1-0.2,0.2-0.2c0.1,0,0.2,0.1,0.2,0.2c0,0.1-0.1,0.2-0.2,0.2
			C24.9,148,24.8,147.9,24.8,147.7z M24.8,148.1h0.4v1.4h-0.4V148.1z"/>
		<path class="st2" d="M27,148.7v0.8h-0.4v-0.7c0-0.2-0.1-0.3-0.3-0.3c-0.2,0-0.3,0.1-0.3,0.4v0.7h-0.4v-1.4H26v0.2
			c0.1-0.1,0.3-0.2,0.5-0.2C26.8,148.1,27,148.3,27,148.7z"/>
		<path class="st2" d="M28.6,148.7v0.8h-0.4v-0.2c-0.1,0.1-0.2,0.2-0.4,0.2c-0.3,0-0.5-0.2-0.5-0.4c0-0.2,0.2-0.4,0.6-0.4h0.3
			c0-0.2-0.1-0.3-0.3-0.3c-0.1,0-0.3,0-0.4,0.1l-0.1-0.3c0.1-0.1,0.4-0.2,0.6-0.2C28.3,148.1,28.6,148.3,28.6,148.7z M28.2,149.1
			v-0.1h-0.3c-0.2,0-0.2,0.1-0.2,0.2c0,0.1,0.1,0.2,0.2,0.2C28,149.3,28.1,149.2,28.2,149.1z"/>
		<path class="st2" d="M28.8,149.4l0.1-0.3c0.1,0.1,0.3,0.1,0.5,0.1c0.2,0,0.3,0,0.3-0.1c0-0.2-0.8,0-0.8-0.5c0-0.3,0.2-0.4,0.6-0.4
			c0.2,0,0.4,0,0.5,0.1l-0.1,0.3c-0.1-0.1-0.3-0.1-0.4-0.1c-0.2,0-0.3,0.1-0.3,0.1c0,0.2,0.8,0,0.8,0.5c0,0.3-0.2,0.4-0.6,0.4
			C29.2,149.5,28.9,149.5,28.8,149.4z"/>
	</g>
	<g class="st1">
		<path class="st2" d="M32.2,148.7v0.8h-0.4v-0.2c-0.1,0.1-0.2,0.2-0.4,0.2c-0.3,0-0.5-0.2-0.5-0.4c0-0.2,0.2-0.4,0.6-0.4h0.3
			c0-0.2-0.1-0.3-0.3-0.3c-0.1,0-0.3,0-0.4,0.1l-0.1-0.3c0.1-0.1,0.4-0.2,0.6-0.2C32,148.1,32.2,148.3,32.2,148.7z M31.8,149.1v-0.1
			h-0.3c-0.2,0-0.2,0.1-0.2,0.2c0,0.1,0.1,0.2,0.2,0.2C31.7,149.3,31.8,149.2,31.8,149.1z"/>
	</g>
	<g class="st1">
		<path class="st2" d="M34,147.6v1.9h-0.4v-0.2c-0.1,0.1-0.2,0.2-0.4,0.2c-0.4,0-0.7-0.3-0.7-0.7c0-0.4,0.3-0.7,0.7-0.7
			c0.2,0,0.3,0.1,0.4,0.2v-0.7H34z M33.6,148.8c0-0.2-0.2-0.4-0.3-0.4c-0.2,0-0.3,0.1-0.3,0.4c0,0.2,0.2,0.4,0.3,0.4
			C33.5,149.2,33.6,149.1,33.6,148.8z"/>
		<path class="st2" d="M36.7,148.7v0.8h-0.4v-0.7c0-0.2-0.1-0.3-0.3-0.3c-0.2,0-0.3,0.1-0.3,0.4v0.7h-0.4v-0.7
			c0-0.2-0.1-0.3-0.3-0.3c-0.2,0-0.3,0.1-0.3,0.4v0.7h-0.4v-1.4h0.4v0.2c0.1-0.1,0.3-0.2,0.4-0.2c0.2,0,0.4,0.1,0.4,0.2
			c0.1-0.1,0.3-0.2,0.5-0.2C36.4,148.1,36.7,148.3,36.7,148.7z"/>
		<path class="st2" d="M37,147.7c0-0.1,0.1-0.2,0.2-0.2s0.2,0.1,0.2,0.2c0,0.1-0.1,0.2-0.2,0.2S37,147.9,37,147.7z M37,148.1h0.4
			v1.4H37V148.1z"/>
		<path class="st2" d="M39.2,148.7v0.8h-0.4v-0.7c0-0.2-0.1-0.3-0.3-0.3c-0.2,0-0.3,0.1-0.3,0.4v0.7h-0.4v-1.4h0.4v0.2
			c0.1-0.1,0.3-0.2,0.5-0.2C38.9,148.1,39.2,148.3,39.2,148.7z"/>
		<path class="st2" d="M39.5,147.7c0-0.1,0.1-0.2,0.2-0.2s0.2,0.1,0.2,0.2c0,0.1-0.1,0.2-0.2,0.2S39.5,147.9,39.5,147.7z
			 M39.6,148.1h0.4v1.4h-0.4V148.1z"/>
		<path class="st2" d="M40.2,149.4l0.1-0.3c0.1,0.1,0.3,0.1,0.5,0.1c0.2,0,0.3,0,0.3-0.1c0-0.2-0.8,0-0.8-0.5c0-0.3,0.2-0.4,0.6-0.4
			c0.2,0,0.4,0,0.5,0.1l-0.1,0.3c-0.1-0.1-0.3-0.1-0.4-0.1c-0.2,0-0.3,0.1-0.3,0.1c0,0.2,0.8,0,0.8,0.5c0,0.3-0.2,0.4-0.6,0.4
			C40.5,149.5,40.3,149.5,40.2,149.4z"/>
		<path class="st2" d="M42.5,149.4c-0.1,0.1-0.2,0.1-0.3,0.1c-0.3,0-0.5-0.2-0.5-0.5v-0.6h-0.2v-0.3h0.2v-0.3h0.4v0.3h0.3v0.3h-0.3
			v0.6c0,0.1,0.1,0.2,0.2,0.2c0.1,0,0.1,0,0.2-0.1L42.5,149.4z"/>
	</g>
	<g class="st1">
		<path class="st2" d="M43.6,148.1v0.4c0,0-0.1,0-0.1,0c-0.2,0-0.4,0.1-0.4,0.4v0.6h-0.4v-1.4h0.4v0.2
			C43.3,148.2,43.4,148.1,43.6,148.1z"/>
	</g>
	<g class="st1">
		<path class="st2" d="M45.1,148.7v0.8h-0.4v-0.2c-0.1,0.1-0.2,0.2-0.4,0.2c-0.3,0-0.5-0.2-0.5-0.4c0-0.2,0.2-0.4,0.6-0.4h0.3
			c0-0.2-0.1-0.3-0.3-0.3c-0.1,0-0.3,0-0.4,0.1l-0.1-0.3c0.1-0.1,0.4-0.2,0.6-0.2C44.8,148.1,45.1,148.3,45.1,148.7z M44.7,149.1
			v-0.1h-0.3c-0.2,0-0.2,0.1-0.2,0.2c0,0.1,0.1,0.2,0.2,0.2C44.5,149.3,44.6,149.2,44.7,149.1z"/>
		<path class="st2" d="M46.3,149.4c-0.1,0.1-0.2,0.1-0.3,0.1c-0.3,0-0.5-0.2-0.5-0.5v-0.6h-0.2v-0.3h0.2v-0.3h0.4v0.3h0.3v0.3h-0.3
			v0.6c0,0.1,0.1,0.2,0.2,0.2c0.1,0,0.1,0,0.2-0.1L46.3,149.4z"/>
		<path class="st2" d="M46.5,147.7c0-0.1,0.1-0.2,0.2-0.2s0.2,0.1,0.2,0.2c0,0.1-0.1,0.2-0.2,0.2S46.5,147.9,46.5,147.7z
			 M46.5,148.1h0.4v1.4h-0.4V148.1z"/>
	</g>
	<g class="st1">
		<path class="st2" d="M48.7,148.1l-0.6,1.4h-0.4l-0.6-1.4h0.4l0.4,0.9l0.4-0.9H48.7z"/>
	</g>
	<g class="st1">
		<path class="st2" d="M50,148.7v0.8h-0.4v-0.2c-0.1,0.1-0.2,0.2-0.4,0.2c-0.3,0-0.5-0.2-0.5-0.4c0-0.2,0.2-0.4,0.6-0.4h0.3
			c0-0.2-0.1-0.3-0.3-0.3c-0.1,0-0.3,0-0.4,0.1l-0.1-0.3c0.1-0.1,0.4-0.2,0.6-0.2C49.7,148.1,50,148.3,50,148.7z M49.6,149.1v-0.1
			h-0.3c-0.2,0-0.2,0.1-0.2,0.2c0,0.1,0.1,0.2,0.2,0.2C49.4,149.3,49.5,149.2,49.6,149.1z"/>
		<path class="st2" d="M50.2,149.4l0.1-0.3c0.1,0.1,0.3,0.1,0.5,0.1c0.2,0,0.3,0,0.3-0.1c0-0.2-0.8,0-0.8-0.5c0-0.3,0.2-0.4,0.6-0.4
			c0.2,0,0.4,0,0.5,0.1l-0.1,0.3c-0.1-0.1-0.3-0.1-0.4-0.1c-0.2,0-0.3,0.1-0.3,0.1c0,0.2,0.8,0,0.8,0.5c0,0.3-0.2,0.4-0.6,0.4
			C50.6,149.5,50.3,149.5,50.2,149.4z"/>
	</g>
	<g class="st1">
		<path class="st6" d="M20,123.9l0-1.3l-0.6,1h-0.2l-0.6-1v1.2H18v-2.1h0.4l0.8,1.3l0.8-1.3h0.4l0,2.1H20z"/>
		<path class="st6" d="M20.8,121.8c0-0.1,0.1-0.3,0.3-0.3c0.2,0,0.3,0.1,0.3,0.3c0,0.2-0.1,0.3-0.3,0.3
			C20.9,122.1,20.8,122,20.8,121.8z M20.9,122.3h0.5v1.6h-0.5V122.3z"/>
		<path class="st6" d="M23.4,123v0.9H23v-0.9c0-0.3-0.1-0.4-0.3-0.4c-0.2,0-0.4,0.1-0.4,0.4v0.8h-0.5v-1.6h0.4v0.2
			c0.1-0.1,0.3-0.2,0.5-0.2C23.1,122.3,23.4,122.5,23.4,123z"/>
		<path class="st6" d="M25.5,123v0.9H25v-0.9c0-0.3-0.1-0.4-0.3-0.4c-0.2,0-0.4,0.1-0.4,0.4v0.8h-0.5v-2.2h0.5v0.8
			c0.1-0.1,0.3-0.2,0.5-0.2C25.2,122.3,25.5,122.5,25.5,123z"/>
		<path class="st6" d="M27.4,123v0.9h-0.4v-0.2c-0.1,0.1-0.3,0.2-0.5,0.2c-0.4,0-0.6-0.2-0.6-0.5c0-0.3,0.2-0.5,0.7-0.5h0.4
			c0-0.2-0.1-0.3-0.4-0.3c-0.2,0-0.3,0.1-0.5,0.2l-0.2-0.3c0.2-0.1,0.4-0.2,0.7-0.2C27.1,122.3,27.4,122.5,27.4,123z M26.9,123.4
			v-0.2h-0.3c-0.2,0-0.3,0.1-0.3,0.2c0,0.1,0.1,0.2,0.3,0.2C26.7,123.6,26.8,123.6,26.9,123.4z"/>
		<path class="st6" d="M27.6,123.8l0.2-0.3c0.1,0.1,0.4,0.2,0.6,0.2c0.2,0,0.3-0.1,0.3-0.1c0-0.3-1,0-1-0.6c0-0.3,0.3-0.5,0.7-0.5
			c0.2,0,0.5,0.1,0.6,0.1l-0.2,0.3c-0.2-0.1-0.3-0.1-0.5-0.1c-0.2,0-0.3,0.1-0.3,0.1c0,0.3,1,0,1,0.6c0,0.3-0.3,0.5-0.8,0.5
			C28.1,124,27.8,123.9,27.6,123.8z"/>
		<path class="st6" d="M31.9,122.3v2.2h-0.5v-0.8c-0.1,0.1-0.3,0.2-0.5,0.2c-0.5,0-0.8-0.3-0.8-0.8s0.4-0.8,0.8-0.8
			c0.2,0,0.4,0.1,0.5,0.2v-0.2H31.9z M31.4,123.1c0-0.3-0.2-0.4-0.4-0.4c-0.2,0-0.4,0.2-0.4,0.4s0.2,0.4,0.4,0.4
			C31.2,123.6,31.4,123.4,31.4,123.1z"/>
		<path class="st6" d="M33.9,122.3v1.6h-0.4v-0.2c-0.1,0.1-0.3,0.2-0.5,0.2c-0.4,0-0.7-0.2-0.7-0.7v-0.9h0.5v0.8
			c0,0.3,0.1,0.4,0.3,0.4c0.2,0,0.4-0.1,0.4-0.4v-0.8H33.9z"/>
		<path class="st6" d="M35.8,123v0.9h-0.4v-0.2c-0.1,0.1-0.3,0.2-0.5,0.2c-0.4,0-0.6-0.2-0.6-0.5c0-0.3,0.2-0.5,0.7-0.5h0.4
			c0-0.2-0.1-0.3-0.4-0.3c-0.2,0-0.3,0.1-0.5,0.2l-0.2-0.3c0.2-0.1,0.4-0.2,0.7-0.2C35.5,122.3,35.8,122.5,35.8,123z M35.3,123.4
			v-0.2H35c-0.2,0-0.3,0.1-0.3,0.2c0,0.1,0.1,0.2,0.3,0.2C35.1,123.6,35.3,123.6,35.3,123.4z"/>
		<path class="st6" d="M36.2,121.7h0.5v2.2h-0.5V121.7z"/>
		<path class="st6" d="M37.1,121.8c0-0.1,0.1-0.3,0.3-0.3s0.3,0.1,0.3,0.3c0,0.2-0.1,0.3-0.3,0.3S37.1,122,37.1,121.8z M37.1,122.3
			h0.5v1.6h-0.5V122.3z"/>
		<path class="st6" d="M38.5,122.3L38.5,122.3l0.4,0.1v0.4h-0.4v1.2h-0.5v-1.2h-0.2v-0.4h0.2v-0.1c0-0.4,0.2-0.6,0.6-0.6
			c0.1,0,0.3,0,0.4,0.1l-0.1,0.3c-0.1,0-0.1-0.1-0.2-0.1C38.6,122.1,38.5,122.1,38.5,122.3z M39.4,121.8c0-0.1,0.1-0.3,0.3-0.3
			s0.3,0.1,0.3,0.3c0,0.2-0.1,0.3-0.3,0.3S39.4,122,39.4,121.8z M39.4,122.3h0.5v1.6h-0.5V122.3z"/>
		<path class="st6" d="M40.2,123.1c0-0.5,0.4-0.8,0.9-0.8c0.3,0,0.6,0.1,0.7,0.4l-0.4,0.2c-0.1-0.2-0.2-0.2-0.4-0.2
			c-0.2,0-0.4,0.2-0.4,0.4s0.2,0.4,0.4,0.4c0.1,0,0.3-0.1,0.4-0.2l0.4,0.2c-0.1,0.3-0.4,0.4-0.7,0.4C40.6,124,40.2,123.6,40.2,123.1
			z"/>
	</g>
	<g class="st1">
		<path class="st6" d="M43.5,123v0.9h-0.4v-0.2c-0.1,0.1-0.3,0.2-0.5,0.2c-0.4,0-0.6-0.2-0.6-0.5c0-0.3,0.2-0.5,0.7-0.5H43
			c0-0.2-0.1-0.3-0.4-0.3c-0.2,0-0.3,0.1-0.5,0.2l-0.2-0.3c0.2-0.1,0.4-0.2,0.7-0.2C43.2,122.3,43.5,122.5,43.5,123z M43,123.4v-0.2
			h-0.3c-0.2,0-0.3,0.1-0.3,0.2c0,0.1,0.1,0.2,0.3,0.2C42.9,123.6,43,123.6,43,123.4z"/>
	</g>
	<g class="st1">
		<path class="st6" d="M45.1,123.4l0.4,0.2c-0.1,0.2-0.4,0.4-0.7,0.4l0,0.1c0.2,0,0.3,0.1,0.3,0.2c0,0.2-0.2,0.3-0.4,0.3
			c-0.1,0-0.2,0-0.3-0.1l0.1-0.2c0.1,0,0.1,0,0.2,0c0.1,0,0.2,0,0.2-0.1c0-0.1,0-0.1-0.1-0.1h-0.1l0.1-0.3c-0.4-0.1-0.7-0.4-0.7-0.8
			c0-0.5,0.4-0.8,0.9-0.8c0.3,0,0.6,0.1,0.7,0.4l-0.4,0.2c-0.1-0.2-0.2-0.2-0.4-0.2c-0.2,0-0.4,0.2-0.4,0.4s0.2,0.4,0.4,0.4
			C44.9,123.6,45,123.5,45.1,123.4z"/>
	</g>
	<g class="st1">
		<path class="st6" d="M45.6,123.1c0-0.5,0.4-0.8,0.9-0.8c0.5,0,0.9,0.3,0.9,0.8S47,124,46.5,124C46,124,45.6,123.6,45.6,123.1z
			 M46.3,121.9c-0.1,0-0.1,0.1-0.1,0.2h-0.2c0-0.3,0.1-0.4,0.4-0.4c0.2,0,0.3,0.2,0.4,0.2c0.1,0,0.1-0.1,0.1-0.2H47
			c0,0.3-0.1,0.4-0.4,0.4C46.5,122.1,46.4,121.9,46.3,121.9z M46.9,123.1c0-0.3-0.2-0.4-0.4-0.4s-0.4,0.2-0.4,0.4s0.2,0.4,0.4,0.4
			S46.9,123.4,46.9,123.1z"/>
		<path class="st6" d="M49.2,123.3H48c0,0.2,0.2,0.3,0.5,0.3c0.2,0,0.3-0.1,0.4-0.2l0.2,0.3c-0.2,0.2-0.4,0.3-0.7,0.3
			c-0.6,0-0.9-0.4-0.9-0.8c0-0.5,0.4-0.8,0.9-0.8c0.5,0,0.8,0.3,0.8,0.8C49.3,123.2,49.2,123.2,49.2,123.3z M48,123h0.8
			c0-0.2-0.2-0.3-0.4-0.3C48.2,122.7,48,122.8,48,123z"/>
		<path class="st6" d="M49.4,123.8l0.2-0.3c0.1,0.1,0.4,0.2,0.6,0.2c0.2,0,0.3-0.1,0.3-0.1c0-0.3-1,0-1-0.6c0-0.3,0.3-0.5,0.7-0.5
			c0.2,0,0.5,0.1,0.6,0.1l-0.2,0.3c-0.2-0.1-0.3-0.1-0.5-0.1c-0.2,0-0.3,0.1-0.3,0.1c0,0.3,1,0,1,0.6c0,0.3-0.3,0.5-0.8,0.5
			C49.8,124,49.6,123.9,49.4,123.8z"/>
	</g>
	<g>
		<g>
			<path class="st8" d="M81,120.5h5.8c0.4,0,0.8,0.4,0.8,0.8v5.8c0,0.4-0.4,0.8-0.8,0.8H81c-0.4,0-0.8-0.4-0.8-0.8v-5.8
				C80.2,120.9,80.5,120.5,81,120.5z"/>
		</g>
		<g>
			<g>
				<path class="st2" d="M83.9,125.9L83.9,125.9c-0.2,0-0.5-0.2-0.5-0.5V123c0-0.2,0.2-0.5,0.5-0.5l0,0c0.2,0,0.5,0.2,0.5,0.5v2.5
					C84.4,125.7,84.2,125.9,83.9,125.9z"/>
			</g>
			<g>
				<path class="st2" d="M82.2,124.2L82.2,124.2c0-0.2,0.2-0.5,0.5-0.5h2.5c0.2,0,0.5,0.2,0.5,0.5l0,0c0,0.2-0.2,0.5-0.5,0.5h-2.5
					C82.4,124.7,82.2,124.5,82.2,124.2z"/>
			</g>
		</g>
	</g>
	<g>
		<defs>
			<rect id="SVGID_1_" x="5.3" y="162.4" width="92.1" height="24.2"/>
		</defs>
		<clipPath id="SVGID_00000119100440438816220820000017285006660066805131_">
			<use xlink:href="#SVGID_1_"  style="overflow:visible;"/>
		</clipPath>
		<g style="clip-path:url(#SVGID_00000119100440438816220820000017285006660066805131_);">
			<g>
				<g>
					<path class="st2" d="M16.8,166.7h71.4c2.5,0,4.4,2,4.4,4.4V208c0,2.5-2,4.4-4.4,4.4H16.8c-2.5,0-4.4-2-4.4-4.4v-36.8
						C12.4,168.7,14.3,166.7,16.8,166.7z"/>
				</g>
				<g class="st1">
					<path class="st6" d="M20,174l0-1.3l-0.6,1h-0.2l-0.6-1v1.2H18v-2.1h0.4l0.8,1.3l0.8-1.3h0.4l0,2.1H20z"/>
					<path class="st6" d="M22.5,173.3h-1.2c0,0.2,0.2,0.3,0.5,0.3c0.2,0,0.3-0.1,0.4-0.2l0.2,0.3c-0.2,0.2-0.4,0.3-0.7,0.3
						c-0.6,0-0.9-0.4-0.9-0.8c0-0.5,0.4-0.8,0.9-0.8c0.5,0,0.8,0.3,0.8,0.8C22.5,173.2,22.5,173.3,22.5,173.3z M21.2,173H22
						c0-0.2-0.2-0.3-0.4-0.3C21.4,172.7,21.3,172.8,21.2,173z"/>
					<path class="st6" d="M24.4,172.4v1.6H24v-0.2c-0.1,0.1-0.3,0.2-0.5,0.2c-0.4,0-0.7-0.2-0.7-0.7v-0.9h0.5v0.8
						c0,0.3,0.1,0.4,0.3,0.4c0.2,0,0.4-0.1,0.4-0.4v-0.8H24.4z"/>
					<path class="st6" d="M24.7,173.8l0.2-0.3c0.1,0.1,0.4,0.2,0.6,0.2c0.2,0,0.3-0.1,0.3-0.1c0-0.3-1,0-1-0.6
						c0-0.3,0.3-0.5,0.7-0.5c0.2,0,0.5,0.1,0.6,0.1l-0.2,0.3c-0.2-0.1-0.3-0.1-0.5-0.1c-0.2,0-0.3,0.1-0.3,0.1c0,0.3,1,0,1,0.6
						c0,0.3-0.3,0.5-0.8,0.5C25.1,174,24.8,173.9,24.7,173.8z"/>
					<path class="st6" d="M28.9,171.8v2.2h-0.4v-0.2c-0.1,0.1-0.3,0.2-0.5,0.2c-0.5,0-0.8-0.3-0.8-0.8s0.4-0.8,0.8-0.8
						c0.2,0,0.4,0.1,0.5,0.2v-0.8H28.9z M28.5,173.2c0-0.3-0.2-0.4-0.4-0.4c-0.2,0-0.4,0.2-0.4,0.4s0.2,0.4,0.4,0.4
						C28.3,173.6,28.5,173.5,28.5,173.2z"/>
					<path class="st6" d="M29.2,173.2c0-0.5,0.4-0.8,0.9-0.8c0.5,0,0.9,0.3,0.9,0.8s-0.4,0.8-0.9,0.8
						C29.6,174,29.2,173.7,29.2,173.2z M30.5,173.2c0-0.3-0.2-0.4-0.4-0.4s-0.4,0.2-0.4,0.4s0.2,0.4,0.4,0.4S30.5,173.5,30.5,173.2z
						"/>
					<path class="st6" d="M31.2,173.2c0-0.5,0.4-0.8,0.9-0.8c0.3,0,0.6,0.1,0.7,0.4l-0.4,0.2c-0.1-0.2-0.2-0.2-0.4-0.2
						c-0.2,0-0.4,0.2-0.4,0.4s0.2,0.4,0.4,0.4c0.1,0,0.3-0.1,0.4-0.2l0.4,0.2c-0.1,0.3-0.4,0.4-0.7,0.4
						C31.6,174,31.2,173.7,31.2,173.2z"/>
					<path class="st6" d="M34.7,172.4v1.6h-0.4v-0.2c-0.1,0.1-0.3,0.2-0.5,0.2c-0.4,0-0.7-0.2-0.7-0.7v-0.9h0.5v0.8
						c0,0.3,0.1,0.4,0.3,0.4c0.2,0,0.4-0.1,0.4-0.4v-0.8H34.7z"/>
				</g>
				<g class="st1">
					<path class="st6" d="M37.9,173.1v0.9h-0.5v-0.9c0-0.3-0.1-0.4-0.3-0.4c-0.2,0-0.4,0.1-0.4,0.4v0.8h-0.5v-0.9
						c0-0.3-0.1-0.4-0.3-0.4c-0.2,0-0.4,0.1-0.4,0.4v0.8h-0.5v-1.6h0.4v0.2c0.1-0.1,0.3-0.2,0.5-0.2c0.2,0,0.4,0.1,0.5,0.3
						c0.1-0.2,0.3-0.3,0.6-0.3C37.6,172.4,37.9,172.6,37.9,173.1z"/>
				</g>
				<g class="st1">
					<path class="st6" d="M39.9,173.3h-1.2c0,0.2,0.2,0.3,0.5,0.3c0.2,0,0.3-0.1,0.4-0.2l0.2,0.3c-0.2,0.2-0.4,0.3-0.7,0.3
						c-0.6,0-0.9-0.4-0.9-0.8c0-0.5,0.4-0.8,0.9-0.8c0.5,0,0.8,0.3,0.8,0.8C39.9,173.2,39.9,173.3,39.9,173.3z M38.7,173h0.8
						c0-0.2-0.2-0.3-0.4-0.3C38.8,172.7,38.7,172.8,38.7,173z"/>
					<path class="st6" d="M41.9,173.1v0.9h-0.5v-0.9c0-0.3-0.1-0.4-0.3-0.4c-0.2,0-0.4,0.1-0.4,0.4v0.8h-0.5v-1.6h0.4v0.2
						c0.1-0.1,0.3-0.2,0.5-0.2C41.6,172.4,41.9,172.6,41.9,173.1z"/>
				</g>
				<g class="st1">
					<path class="st6" d="M43.3,173.9c-0.1,0.1-0.2,0.1-0.4,0.1c-0.4,0-0.6-0.2-0.6-0.6v-0.7h-0.2v-0.4h0.2V172h0.5v0.4h0.4v0.4
						h-0.4v0.7c0,0.1,0.1,0.2,0.2,0.2c0.1,0,0.1,0,0.2-0.1L43.3,173.9z"/>
				</g>
				<g class="st1">
					<path class="st6" d="M43.4,173.2c0-0.5,0.4-0.8,0.9-0.8c0.5,0,0.9,0.3,0.9,0.8s-0.4,0.8-0.9,0.8
						C43.8,174,43.4,173.7,43.4,173.2z M44.7,173.2c0-0.3-0.2-0.4-0.4-0.4s-0.4,0.2-0.4,0.4s0.2,0.4,0.4,0.4S44.7,173.5,44.7,173.2z
						"/>
				</g>
				<g class="st1">
					<path class="st6" d="M45.3,173.8l0.2-0.3c0.1,0.1,0.4,0.2,0.6,0.2c0.2,0,0.3-0.1,0.3-0.1c0-0.3-1,0-1-0.6
						c0-0.3,0.3-0.5,0.7-0.5c0.2,0,0.5,0.1,0.6,0.1l-0.2,0.3c-0.2-0.1-0.3-0.1-0.5-0.1c-0.2,0-0.3,0.1-0.3,0.1c0,0.3,1,0,1,0.6
						c0,0.3-0.3,0.5-0.8,0.5C45.8,174,45.5,173.9,45.3,173.8z"/>
				</g>
				<g>
					<g>
						<path class="st5" d="M29.7,182.4v7.3c0,0.3-0.3,0.6-0.6,0.6h-7.1c-0.3,0-0.6-0.3-0.6-0.6v-9.6c0-0.3,0.3-0.6,0.6-0.6h4.9
							L29.7,182.4z"/>
					</g>
					<g>
						<path class="st10" d="M26.8,181.8v-2.3l2.9,2.9h-2.3C27.1,182.4,26.8,182.1,26.8,181.8z"/>
					</g>
					<g>
						<path class="st10" d="M27.6,184.4h-4.3c-0.1,0-0.3-0.1-0.3-0.3l0,0c0-0.1,0.1-0.3,0.3-0.3h4.3c0.1,0,0.3,0.1,0.3,0.3l0,0
							C27.9,184.3,27.8,184.4,27.6,184.4z"/>
					</g>
					<g>
						<path class="st10" d="M27.6,185.8h-4.3c-0.1,0-0.3-0.1-0.3-0.3l0,0c0-0.1,0.1-0.3,0.3-0.3h4.3c0.1,0,0.3,0.1,0.3,0.3l0,0
							C27.9,185.6,27.8,185.8,27.6,185.8z"/>
					</g>
				</g>
				<g>
					<g>
						<path class="st5" d="M46.2,182.4v7.3c0,0.3-0.3,0.6-0.6,0.6h-7.1c-0.3,0-0.6-0.3-0.6-0.6v-9.6c0-0.3,0.3-0.6,0.6-0.6h4.8
							L46.2,182.4z"/>
					</g>
					<g>
						<path class="st10" d="M43.3,181.8v-2.3l2.9,2.9h-2.3C43.6,182.4,43.3,182.1,43.3,181.8z"/>
					</g>
					<g>
						<path class="st10" d="M44.2,184.4h-4.3c-0.1,0-0.3-0.1-0.3-0.3l0,0c0-0.1,0.1-0.3,0.3-0.3h4.3c0.1,0,0.3,0.1,0.3,0.3l0,0
							C44.4,184.3,44.3,184.4,44.2,184.4z"/>
					</g>
					<g>
						<path class="st10" d="M44.2,185.8h-4.3c-0.1,0-0.3-0.1-0.3-0.3l0,0c0-0.1,0.1-0.3,0.3-0.3h4.3c0.1,0,0.3,0.1,0.3,0.3l0,0
							C44.4,185.6,44.3,185.8,44.2,185.8z"/>
					</g>
				</g>
				<g>
					<g>
						<path class="st5" d="M62.7,182.4v7.3c0,0.3-0.3,0.6-0.6,0.6H55c-0.3,0-0.6-0.3-0.6-0.6v-9.6c0-0.3,0.3-0.6,0.6-0.6h4.8
							L62.7,182.4z"/>
					</g>
					<g>
						<path class="st10" d="M59.8,181.8v-2.3l2.9,2.9h-2.3C60.1,182.4,59.8,182.1,59.8,181.8z"/>
					</g>
					<g>
						<path class="st10" d="M60.7,184.4h-4.3c-0.1,0-0.3-0.1-0.3-0.3l0,0c0-0.1,0.1-0.3,0.3-0.3h4.3c0.1,0,0.3,0.1,0.3,0.3l0,0
							C60.9,184.3,60.8,184.4,60.7,184.4z"/>
					</g>
					<g>
						<path class="st10" d="M60.7,185.8h-4.3c-0.1,0-0.3-0.1-0.3-0.3l0,0c0-0.1,0.1-0.3,0.3-0.3h4.3c0.1,0,0.3,0.1,0.3,0.3l0,0
							C60.9,185.6,60.8,185.8,60.7,185.8z"/>
					</g>
				</g>
				<g>
					<g>
						<path class="st5" d="M74,179.3h9.5c0.4,0,0.8,0.4,0.8,0.8v9.5c0,0.4-0.4,0.8-0.8,0.8H74c-0.4,0-0.8-0.4-0.8-0.8v-9.5
							C73.2,179.6,73.6,179.3,74,179.3z"/>
					</g>
					<g>
						<g>
							<path class="st2" d="M78.9,187.4L78.9,187.4c-0.4,0-0.7-0.3-0.7-0.7v-3.8c0-0.4,0.3-0.7,0.7-0.7l0,0c0.4,0,0.7,0.3,0.7,0.7
								v3.8C79.6,187.1,79.3,187.4,78.9,187.4z"/>
						</g>
						<g>
							<path class="st2" d="M76.3,184.8L76.3,184.8c0-0.4,0.3-0.7,0.7-0.7h3.8c0.4,0,0.7,0.3,0.7,0.7l0,0c0,0.4-0.3,0.7-0.7,0.7H77
								C76.6,185.5,76.3,185.2,76.3,184.8z"/>
						</g>
					</g>
				</g>
			</g>
		</g>
	</g>
</g>
</svg>
