<?xml version="1.0" encoding="UTF-8"?><svg id="Layer_2" xmlns="http://www.w3.org/2000/svg" viewBox="0 0 104.95 186.57"><defs><style>.cls-1{fill:none;}.cls-2{letter-spacing:-.02em;}.cls-3{letter-spacing:0em;}.cls-4{letter-spacing:0em;}.cls-5{fill:#757575;}.cls-5,.cls-6,.cls-7,.cls-8{font-family:Montserrat-Medium, Montserrat;}.cls-5,.cls-6,.cls-8{font-size:3.04px;}.cls-6,.cls-9{fill:#d3d3d3;}.cls-10{letter-spacing:-.01em;}.cls-11{letter-spacing:2.11em;}.cls-12{letter-spacing:2.11em;}.cls-13{letter-spacing:0em;}.cls-14{letter-spacing:0em;}.cls-15{letter-spacing:.34em;}.cls-16{letter-spacing:-.02em;}.cls-17{letter-spacing:.69em;}.cls-18{letter-spacing:0em;}.cls-19{fill:#f2f2f4;}.cls-20,.cls-21{fill:#f99e1d;}.cls-22,.cls-23{fill:#fff;}.cls-24,.cls-8{fill:#3733bf;}.cls-25{letter-spacing:.68em;}.cls-26{letter-spacing:.34em;}.cls-27{letter-spacing:-.02em;}.cls-28{letter-spacing:-.01em;}.cls-29{letter-spacing:-.05em;}.cls-30{letter-spacing:.04em;}.cls-31{letter-spacing:0em;}.cls-32{letter-spacing:-.05em;}.cls-33{letter-spacing:-.01em;}.cls-34{letter-spacing:0em;}.cls-35{letter-spacing:0em;}.cls-36{letter-spacing:0em;}.cls-37{letter-spacing:.04em;}.cls-38{letter-spacing:.07em;}.cls-39,.cls-40,.cls-7{font-size:4.05px;}.cls-39,.cls-40,.cls-23,.cls-21{font-family:Montserrat-Bold, Montserrat;}.cls-39,.cls-7{fill:#2b2b2b;}.cls-40{fill:#149314;}.cls-41{letter-spacing:0em;}.cls-42{letter-spacing:0em;}.cls-43{letter-spacing:0em;}.cls-44{letter-spacing:0em;}.cls-45{letter-spacing:0em;}.cls-46{letter-spacing:.02em;}.cls-47{letter-spacing:.64em;}.cls-48{letter-spacing:.64em;}.cls-49{letter-spacing:.09em;}.cls-50{letter-spacing:.09em;}.cls-51{letter-spacing:0em;}.cls-52{letter-spacing:0em;}.cls-53{letter-spacing:.01em;}.cls-54{letter-spacing:0em;}.cls-55{letter-spacing:0em;}.cls-56{letter-spacing:-.02em;}.cls-57{letter-spacing:0em;}.cls-58{letter-spacing:-.07em;}.cls-8{opacity:.5;}.cls-59{letter-spacing:-.01em;}.cls-60{letter-spacing:.04em;}.cls-61{letter-spacing:.56em;}.cls-62{letter-spacing:.02em;}.cls-63{letter-spacing:.56em;}.cls-23,.cls-21{font-size:2.54px;}.cls-64{letter-spacing:.07em;}</style></defs><g id="OBJECTS"><rect class="cls-1" width="104.95" height="186.57"/><rect class="cls-22" x="12.56" y="23.19" width="80.25" height="87.12" rx="5.77" ry="5.77"/><text class="cls-8" transform="translate(19.25 58.83)"><tspan x="0" y="0">Se</tspan><tspan class="cls-44" x="3.75" y="0">r</tspan><tspan x="4.97" y="0">á</tspan><tspan class="cls-17" x="6.79" y="0"> </tspan><tspan class="cls-10" x="9.69" y="0">r</tspan><tspan x="10.9" y="0">espons</tspan><tspan class="cls-55" x="21.87" y="0">á</tspan><tspan class="cls-16" x="23.66" y="0">v</tspan><tspan x="25.31" y="0">el</tspan><tspan class="cls-25" x="28.02" y="0"> </tspan><tspan x="30.92" y="0">por</tspan><tspan class="cls-17" x="36.17" y="0"> </tspan><tspan class="cls-44" x="39.07" y="0">f</tspan><tspan x="40.12" y="0">o</tspan><tspan class="cls-43" x="42.05" y="0">r</tspan><tspan class="cls-54" x="43.27" y="0">n</tspan><tspan x="45.35" y="0">e</tspan><tspan class="cls-44" x="47.21" y="0">c</tspan><tspan x="48.92" y="0">er</tspan><tspan class="cls-25" x="52.03" y="0"> </tspan><tspan class="cls-27" x="54.93" y="0">t</tspan><tspan x="56.13" y="0">odo</tspan><tspan class="cls-17" x="62.06" y="0"> </tspan><tspan x="64.96" y="0">o </tspan><tspan x="0" y="3.65">supo</tspan><tspan class="cls-46" x="7.58" y="3.65">r</tspan><tspan class="cls-27" x="8.87" y="3.65">t</tspan><tspan x="10.08" y="3.65">e</tspan><tspan class="cls-12" x="11.94" y="3.65"> </tspan><tspan class="cls-27" x="19.17" y="3.65">t</tspan><tspan x="20.37" y="3.65">écni</tspan><tspan class="cls-44" x="26.88" y="3.65">c</tspan><tspan x="28.6" y="3.65">o</tspan><tspan class="cls-11" x="30.53" y="3.65"> </tspan><tspan class="cls-52" x="37.76" y="3.65">n</tspan><tspan x="39.83" y="3.65">e</tspan><tspan class="cls-44" x="41.69" y="3.65">c</tspan><tspan x="43.41" y="3.65">essá</tspan><tspan class="cls-31" x="50.13" y="3.65">r</tspan><tspan x="51.35" y="3.65">io</tspan><tspan class="cls-12" x="54.13" y="3.65"> </tspan><tspan x="61.36" y="3.65">dos </tspan><tspan x="0" y="7.29">de</tspan><tspan class="cls-13" x="3.93" y="7.29">p</tspan><tspan x="5.99" y="7.29">a</tspan><tspan class="cls-46" x="7.81" y="7.29">r</tspan><tspan x="9.1" y="7.29">ta</tspan><tspan class="cls-52" x="12.17" y="7.29">m</tspan><tspan x="15.4" y="7.29">en</tspan><tspan class="cls-27" x="19.33" y="7.29">t</tspan><tspan x="20.53" y="7.29">os</tspan><tspan class="cls-47" x="23.98" y="7.29"> </tspan><tspan x="26.74" y="7.29">de</tspan><tspan class="cls-48" x="30.67" y="7.29"> </tspan><tspan class="cls-59" x="33.43" y="7.29">v</tspan><tspan x="35.08" y="7.29">e</tspan><tspan class="cls-52" x="36.94" y="7.29">n</tspan><tspan x="39.02" y="7.29">das,</tspan><tspan class="cls-47" x="45.12" y="7.29"> </tspan><tspan x="47.88" y="7.29">licit</tspan><tspan class="cls-52" x="53.42" y="7.29">a</tspan><tspan class="cls-42" x="55.25" y="7.29">ç</tspan><tspan x="56.96" y="7.29">ões</tspan><tspan class="cls-47" x="62.27" y="7.29"> </tspan><tspan x="65.03" y="7.29">e </tspan><tspan class="cls-52" x="0" y="10.94">n</tspan><tspan x="2.08" y="10.94">egoci</tspan><tspan class="cls-54" x="10.55" y="10.94">a</tspan><tspan x="12.38" y="10.94">ç</tspan><tspan class="cls-52" x="14.11" y="10.94">ã</tspan><tspan x="15.94" y="10.94">o</tspan><tspan class="cls-38" x="17.87" y="10.94"> </tspan><tspan x="18.89" y="10.94">de</tspan><tspan class="cls-64" x="22.82" y="10.94"> </tspan><tspan class="cls-44" x="23.84" y="10.94">c</tspan><tspan x="25.55" y="10.94">ont</tspan><tspan class="cls-44" x="30.81" y="10.94">r</tspan><tspan x="32.03" y="10.94">a</tspan><tspan class="cls-27" x="33.85" y="10.94">t</tspan><tspan x="35.05" y="10.94">os</tspan><tspan class="cls-38" x="38.5" y="10.94"> </tspan><tspan x="39.53" y="10.94">du</tspan><tspan class="cls-44" x="43.66" y="10.94">r</tspan><tspan x="44.88" y="10.94">an</tspan><tspan class="cls-27" x="48.77" y="10.94">t</tspan><tspan x="49.97" y="10.94">e</tspan><tspan class="cls-38" x="51.83" y="10.94"> </tspan><tspan x="52.85" y="10.94">a</tspan><tspan class="cls-64" x="54.67" y="10.94"> </tspan><tspan class="cls-55" x="55.69" y="10.94">f</tspan><tspan x="56.73" y="10.94">ase</tspan><tspan class="cls-38" x="61.93" y="10.94"> </tspan><tspan x="62.96" y="10.94">de </tspan><tspan class="cls-16" x="0" y="14.59">v</tspan><tspan x="1.65" y="14.59">e</tspan><tspan class="cls-54" x="3.51" y="14.59">n</tspan><tspan x="5.59" y="14.59">das</tspan><tspan class="cls-15" x="11" y="14.59"> </tspan><tspan x="12.86" y="14.59">e</tspan><tspan class="cls-26" x="14.72" y="14.59"> </tspan><tspan class="cls-44" x="16.58" y="14.59">f</tspan><tspan x="17.63" y="14.59">e</tspan><tspan class="cls-43" x="19.49" y="14.59">c</tspan><tspan x="21.2" y="14.59">ha</tspan><tspan class="cls-52" x="25.09" y="14.59">m</tspan><tspan x="28.31" y="14.59">en</tspan><tspan class="cls-27" x="32.24" y="14.59">t</tspan><tspan x="33.45" y="14.59">o</tspan><tspan class="cls-15" x="35.38" y="14.59"> </tspan><tspan x="37.23" y="14.59">do</tspan><tspan class="cls-26" x="41.24" y="14.59"> </tspan><tspan class="cls-44" x="43.09" y="14.59">c</tspan><tspan x="44.8" y="14.59">ont</tspan><tspan class="cls-42" x="50.06" y="14.59">r</tspan><tspan x="51.28" y="14.59">a</tspan><tspan class="cls-27" x="53.1" y="14.59">t</tspan><tspan class="cls-33" x="54.3" y="14.59">o</tspan><tspan x="56.2" y="14.59">.</tspan><tspan class="cls-15" x="56.89" y="14.59"> </tspan><tspan x="58.74" y="14.59">Além </tspan><tspan x="0" y="18.24">diss</tspan><tspan class="cls-10" x="5.96" y="18.24">o</tspan><tspan x="7.86" y="18.24">,</tspan><tspan class="cls-37" x="8.55" y="18.24"> </tspan><tspan x="9.48" y="18.24">ele</tspan><tspan class="cls-58" x="14.05" y="18.24">/</tspan><tspan x="14.92" y="18.24">ela</tspan><tspan class="cls-37" x="19.44" y="18.24"> </tspan><tspan x="20.38" y="18.24">se</tspan><tspan class="cls-44" x="23.76" y="18.24">r</tspan><tspan x="24.98" y="18.24">á</tspan><tspan class="cls-60" x="26.8" y="18.24"> </tspan><tspan class="cls-10" x="27.73" y="18.24">r</tspan><tspan x="28.94" y="18.24">espons</tspan><tspan class="cls-55" x="39.92" y="18.24">á</tspan><tspan class="cls-16" x="41.71" y="18.24">v</tspan><tspan x="43.36" y="18.24">el</tspan><tspan class="cls-37" x="46.07" y="18.24"> </tspan><tspan x="47" y="18.24">por</tspan><tspan class="cls-37" x="52.25" y="18.24"> </tspan><tspan x="53.19" y="18.24">es</tspan><tspan class="cls-27" x="56.57" y="18.24">t</tspan><tspan x="57.77" y="18.24">e</tspan><tspan class="cls-54" x="59.63" y="18.24">n</tspan><tspan x="61.71" y="18.24">der </tspan><tspan x="0" y="21.88">esse</tspan><tspan class="cls-49" x="6.77" y="21.88"> </tspan><tspan x="7.87" y="21.88">supo</tspan><tspan class="cls-46" x="15.45" y="21.88">r</tspan><tspan class="cls-27" x="16.74" y="21.88">t</tspan><tspan x="17.94" y="21.88">e</tspan><tspan class="cls-50" x="19.8" y="21.88"> </tspan><tspan x="20.91" y="21.88">du</tspan><tspan class="cls-44" x="25.04" y="21.88">r</tspan><tspan x="26.26" y="21.88">an</tspan><tspan class="cls-27" x="30.14" y="21.88">t</tspan><tspan x="31.35" y="21.88">e</tspan><tspan class="cls-49" x="33.21" y="21.88"> </tspan><tspan x="34.31" y="21.88">a</tspan><tspan class="cls-50" x="36.13" y="21.88"> </tspan><tspan class="cls-55" x="37.23" y="21.88">f</tspan><tspan x="38.27" y="21.88">ase</tspan><tspan class="cls-49" x="43.47" y="21.88"> </tspan><tspan x="44.57" y="21.88">de</tspan><tspan class="cls-50" x="48.5" y="21.88"> </tspan><tspan class="cls-44" x="49.6" y="21.88">c</tspan><tspan x="51.32" y="21.88">onstruç</tspan><tspan class="cls-52" x="63.13" y="21.88">ã</tspan><tspan x="64.96" y="21.88">o </tspan><tspan class="cls-13" x="0" y="25.53">p</tspan><tspan x="2.06" y="25.53">a</tspan><tspan class="cls-42" x="3.87" y="25.53">r</tspan><tspan x="5.1" y="25.53">a</tspan><tspan class="cls-63" x="6.91" y="25.53"> </tspan><tspan x="9.42" y="25.53">assun</tspan><tspan class="cls-27" x="18.41" y="25.53">t</tspan><tspan x="19.61" y="25.53">os</tspan><tspan class="cls-63" x="23.07" y="25.53"> </tspan><tspan x="25.57" y="25.53">de</tspan><tspan class="cls-61" x="29.51" y="25.53"> </tspan><tspan x="32.01" y="25.53">BoP</tspan><tspan class="cls-63" x="38.44" y="25.53"> </tspan><tspan class="cls-33" x="40.95" y="25.53">r</tspan><tspan x="42.16" y="25.53">el</tspan><tspan class="cls-54" x="44.86" y="25.53">a</tspan><tspan x="46.69" y="25.53">cion</tspan><tspan class="cls-52" x="53.27" y="25.53">a</tspan><tspan x="55.1" y="25.53">dos</tspan><tspan class="cls-63" x="60.62" y="25.53"> </tspan><tspan class="cls-52" x="63.13" y="25.53">a</tspan><tspan x="64.96" y="25.53">o </tspan><tspan x="0" y="29.18">t</tspan><tspan class="cls-44" x="1.26" y="29.18">r</tspan><tspan x="2.48" y="29.18">anspo</tspan><tspan class="cls-46" x="11.89" y="29.18">r</tspan><tspan class="cls-27" x="13.18" y="29.18">t</tspan><tspan x="14.39" y="29.18">e e instal</tspan><tspan class="cls-52" x="28.1" y="29.18">a</tspan><tspan x="29.93" y="29.18">ç</tspan><tspan class="cls-52" x="31.67" y="29.18">ã</tspan><tspan class="cls-10" x="33.49" y="29.18">o</tspan><tspan x="35.38" y="29.18">.</tspan></text><text class="cls-39" transform="translate(23.91 120.43)"><tspan class="cls-29" x="0" y="0">V</tspan><tspan x="2.8" y="0">o</tspan><tspan class="cls-45" x="5.46" y="0">c</tspan><tspan x="7.82" y="0">e pode tambem gosta</tspan><tspan class="cls-34" x="54.65" y="0">r</tspan><tspan x="56.42" y="0">:</tspan></text><g><path class="cls-20" d="M45.49,103.1H23.12c-2.25,0-4.07-1.82-4.07-4.07h0c0-2.25,1.82-4.07,4.07-4.07h22.38c2.25,0,4.07,1.82,4.07,4.07h0c0,2.25-1.82,4.07-4.07,4.07Z"/><text class="cls-23" transform="translate(24.69 99.96)"><tspan x="0" y="0">Me ca</tspan><tspan class="cls-4" x="7.83" y="0">n</tspan><tspan x="9.6" y="0">didatar</tspan></text></g><g><path class="cls-19" d="M82.19,103.1h-22.38c-2.25,0-4.07-1.82-4.07-4.07h0c0-2.25,1.82-4.07,4.07-4.07h22.38c2.25,0,4.07,1.82,4.07,4.07h0c0,2.25-1.82,4.07-4.07,4.07Z"/><text class="cls-21" transform="translate(60.81 99.96)"><tspan class="cls-32" x="0" y="0">V</tspan><tspan x="1.76" y="0">er</tspan><tspan class="cls-30" x="4.46" y="0"> </tspan><tspan x="5.28" y="0">localid</tspan><tspan class="cls-4" x="14.08" y="0">a</tspan><tspan x="15.67" y="0">des</tspan></text></g><g><g><path class="cls-22" d="M99.62,57.15h0c-.16-.16-.42-.16-.59,0l-1.11,1.11c-.16,.16-.16,.42,0,.59h0c.16,.16,.42,.16,.59,0l1.11-1.11c.16-.16,.16-.42,0-.59Z"/><path class="cls-22" d="M97.92,56.04h0c-.16,.16-.16,.42,0,.59l1.11,1.11c.16,.16,.42,.16,.59,0h0c.16-.16,.16-.42,0-.59l-1.11-1.11c-.16-.16-.42-.16-.59,0Z"/></g><g><path class="cls-22" d="M5.51,57.15h0c.16-.16,.42-.16,.59,0l1.11,1.11c.16,.16,.16,.42,0,.59h0c-.16,.16-.42,.16-.59,0l-1.11-1.11c-.16-.16-.16-.42,0-.59Z"/><path class="cls-22" d="M7.21,56.04h0c.16,.16,.16,.42,0,.59l-1.11,1.11c-.16,.16-.42,.16-.59,0h0c-.16-.16-.16-.42,0-.59l1.11-1.11c.16-.16,.42-.16,.59,0Z"/></g></g><rect class="cls-22" x="12.84" y="127.79" width="79.98" height="21.55" rx="2.76" ry="2.76"/><text class="cls-6" transform="translate(18.95 145.71)"><tspan x="0" y="0">21 </tspan><tspan class="cls-16" x="3.69" y="0">J</tspan><tspan x="5.2" y="0">AN 1</tspan><tspan class="cls-62" x="11.83" y="0">2</tspan><tspan x="13.64" y="0">:00</tspan></text><text class="cls-40" transform="translate(68.68 137.11)"><tspan x="0" y="0">23 </tspan><tspan class="cls-2" x="5.94" y="0">v</tspan><tspan class="cls-34" x="8.29" y="0">a</tspan><tspan x="10.81" y="0">gas</tspan></text><text class="cls-7" transform="translate(18.95 137.11)"><tspan x="0" y="0">E</tspan><tspan class="cls-51" x="2.71" y="0">n</tspan><tspan x="5.49" y="0">genha</tspan><tspan class="cls-45" x="18.71" y="0">r</tspan><tspan x="20.34" y="0">ia Elét</tspan><tspan class="cls-45" x="32.99" y="0">r</tspan><tspan x="34.62" y="0">ica</tspan></text><text class="cls-6" transform="translate(18.95 43.02)"><tspan x="0" y="0">21 </tspan><tspan class="cls-16" x="3.69" y="0">J</tspan><tspan x="5.2" y="0">AN 1</tspan><tspan class="cls-62" x="11.83" y="0">2</tspan><tspan x="13.64" y="0">:00</tspan></text><text class="cls-5" transform="translate(30.6 50.59)"><tspan x="0" y="0">de R$ 1</tspan><tspan class="cls-36" x="10.79" y="0">.</tspan><tspan x="11.51" y="0">80</tspan><tspan class="cls-10" x="15.49" y="0">0,</tspan><tspan x="18.14" y="0">00 a R$ 3</tspan><tspan class="cls-53" x="32.3" y="0">.</tspan><tspan class="cls-35" x="33.02" y="0">2</tspan><tspan x="34.75" y="0">0</tspan><tspan class="cls-10" x="36.78" y="0">0,</tspan><tspan x="39.42" y="0">00</tspan></text><text class="cls-40" transform="translate(67.71 32.42)"><tspan class="cls-57" x="0" y="0">3</tspan><tspan x="2.36" y="0">5 </tspan><tspan class="cls-2" x="5.92" y="0">v</tspan><tspan class="cls-34" x="8.27" y="0">a</tspan><tspan x="10.79" y="0">gas</tspan></text><text class="cls-7" transform="translate(18.95 32.42)"><tspan x="0" y="0">E</tspan><tspan class="cls-51" x="2.71" y="0">n</tspan><tspan x="5.49" y="0">genha</tspan><tspan class="cls-45" x="18.71" y="0">r</tspan><tspan x="20.34" y="0">ia </tspan><tspan class="cls-45" x="24.98" y="0">E</tspan><tspan x="27.67" y="0">ólica</tspan></text><g><path class="cls-9" d="M86.5,144.26c-.65,.95-1.74,1.58-2.99,1.58s-2.34-.63-2.99-1.58c.65-.95,1.75-1.57,2.99-1.57s2.34,.62,2.99,1.57Z"/><path class="cls-22" d="M84.53,144.26c0,.56-.46,1.02-1.02,1.02s-1.02-.46-1.02-1.02,.46-1.02,1.02-1.02,1.02,.46,1.02,1.02Z"/></g><rect class="cls-22" x="12.84" y="153.19" width="79.98" height="21.55" rx="2.76" ry="2.76"/><text class="cls-6" transform="translate(18.95 171.11)"><tspan x="0" y="0">21 </tspan><tspan class="cls-16" x="3.69" y="0">J</tspan><tspan x="5.2" y="0">AN 1</tspan><tspan class="cls-62" x="11.83" y="0">2</tspan><tspan x="13.64" y="0">:00</tspan></text><text class="cls-40" transform="translate(68.51 162.51)"><tspan class="cls-41" x="0" y="0">2</tspan><tspan x="2.38" y="0">6 </tspan><tspan class="cls-2" x="6.11" y="0">v</tspan><tspan class="cls-34" x="8.46" y="0">a</tspan><tspan x="10.98" y="0">gas</tspan></text><g><path class="cls-9" d="M86.5,169.66c-.65,.95-1.74,1.58-2.99,1.58s-2.34-.63-2.99-1.58c.65-.95,1.75-1.57,2.99-1.57s2.34,.62,2.99,1.57Z"/><path class="cls-22" d="M84.53,169.66c0,.56-.46,1.02-1.02,1.02s-1.02-.46-1.02-1.02,.46-1.02,1.02-1.02,1.02,.46,1.02,1.02Z"/></g><g><path class="cls-9" d="M85.48,41.92c-.65,.95-1.74,1.58-2.99,1.58s-2.34-.63-2.99-1.58c.65-.95,1.75-1.57,2.99-1.57s2.34,.62,2.99,1.57Z"/><path class="cls-22" d="M83.51,41.92c0,.56-.46,1.02-1.02,1.02s-1.02-.46-1.02-1.02,.46-1.02,1.02-1.02,1.02,.46,1.02,1.02Z"/></g><g><path class="cls-24" d="M51.9,91.37h0c-.16-.16-.16-.42,0-.59l1.11-1.11c.16-.16,.42-.16,.59,0h0c.16,.16,.16,.42,0,.59l-1.11,1.11c-.16,.16-.42,.16-.59,0Z"/><path class="cls-24" d="M50.79,89.67h0c.16-.16,.42-.16,.59,0l1.11,1.11c.16,.16,.16,.42,0,.59h0c-.16,.16-.42,.16-.59,0l-1.11-1.11c-.16-.16-.16-.42,0-.59Z"/></g><text class="cls-7" transform="translate(18.95 157.07)"><tspan x="0" y="0">E</tspan><tspan class="cls-51" x="2.71" y="0">n</tspan><tspan class="cls-18" x="5.49" y="0">genha</tspan><tspan class="cls-45" x="18.71" y="0">r</tspan><tspan x="20.34" y="0">ia</tspan><tspan x="0" y="4.86">de </tspan><tspan class="cls-56" x="6.33" y="4.86">P</tspan><tspan class="cls-28" x="9.18" y="4.86">r</tspan><tspan x="10.79" y="4.86">oduç</tspan><tspan class="cls-3" x="21.19" y="4.86">ã</tspan><tspan class="cls-14" x="23.62" y="4.86">o</tspan></text></g></svg>